%TF.GenerationSoftware,KiCad,Pcbnew,8.0.1*%
%TF.CreationDate,2024-04-15T14:43:50+02:00*%
%TF.ProjectId,zx81-bus-extender,7a783831-2d62-4757-932d-657874656e64,rev?*%
%TF.SameCoordinates,Original*%
%TF.FileFunction,Legend,Bot*%
%TF.FilePolarity,Positive*%
%FSLAX46Y46*%
G04 Gerber Fmt 4.6, Leading zero omitted, Abs format (unit mm)*
G04 Created by KiCad (PCBNEW 8.0.1) date 2024-04-15 14:43:50*
%MOMM*%
%LPD*%
G01*
G04 APERTURE LIST*
%ADD10C,0.100000*%
G04 APERTURE END LIST*
D10*
X139327580Y-130833735D02*
X139803771Y-131167068D01*
X139327580Y-131405163D02*
X140327580Y-131405163D01*
X140327580Y-131405163D02*
X140327580Y-131024211D01*
X140327580Y-131024211D02*
X140279961Y-130928973D01*
X140279961Y-130928973D02*
X140232342Y-130881354D01*
X140232342Y-130881354D02*
X140137104Y-130833735D01*
X140137104Y-130833735D02*
X139994247Y-130833735D01*
X139994247Y-130833735D02*
X139899009Y-130881354D01*
X139899009Y-130881354D02*
X139851390Y-130928973D01*
X139851390Y-130928973D02*
X139803771Y-131024211D01*
X139803771Y-131024211D02*
X139803771Y-131405163D01*
X140327580Y-130214687D02*
X140327580Y-130024211D01*
X140327580Y-130024211D02*
X140279961Y-129928973D01*
X140279961Y-129928973D02*
X140184723Y-129833735D01*
X140184723Y-129833735D02*
X139994247Y-129786116D01*
X139994247Y-129786116D02*
X139660914Y-129786116D01*
X139660914Y-129786116D02*
X139470438Y-129833735D01*
X139470438Y-129833735D02*
X139375200Y-129928973D01*
X139375200Y-129928973D02*
X139327580Y-130024211D01*
X139327580Y-130024211D02*
X139327580Y-130214687D01*
X139327580Y-130214687D02*
X139375200Y-130309925D01*
X139375200Y-130309925D02*
X139470438Y-130405163D01*
X139470438Y-130405163D02*
X139660914Y-130452782D01*
X139660914Y-130452782D02*
X139994247Y-130452782D01*
X139994247Y-130452782D02*
X140184723Y-130405163D01*
X140184723Y-130405163D02*
X140279961Y-130309925D01*
X140279961Y-130309925D02*
X140327580Y-130214687D01*
X139327580Y-129357544D02*
X140327580Y-129357544D01*
X140327580Y-129357544D02*
X139613295Y-129024211D01*
X139613295Y-129024211D02*
X140327580Y-128690878D01*
X140327580Y-128690878D02*
X139327580Y-128690878D01*
X139422819Y-127643259D02*
X139375200Y-127690878D01*
X139375200Y-127690878D02*
X139327580Y-127833735D01*
X139327580Y-127833735D02*
X139327580Y-127928973D01*
X139327580Y-127928973D02*
X139375200Y-128071830D01*
X139375200Y-128071830D02*
X139470438Y-128167068D01*
X139470438Y-128167068D02*
X139565676Y-128214687D01*
X139565676Y-128214687D02*
X139756152Y-128262306D01*
X139756152Y-128262306D02*
X139899009Y-128262306D01*
X139899009Y-128262306D02*
X140089485Y-128214687D01*
X140089485Y-128214687D02*
X140184723Y-128167068D01*
X140184723Y-128167068D02*
X140279961Y-128071830D01*
X140279961Y-128071830D02*
X140327580Y-127928973D01*
X140327580Y-127928973D02*
X140327580Y-127833735D01*
X140327580Y-127833735D02*
X140279961Y-127690878D01*
X140279961Y-127690878D02*
X140232342Y-127643259D01*
X139375200Y-127262306D02*
X139327580Y-127119449D01*
X139327580Y-127119449D02*
X139327580Y-126881354D01*
X139327580Y-126881354D02*
X139375200Y-126786116D01*
X139375200Y-126786116D02*
X139422819Y-126738497D01*
X139422819Y-126738497D02*
X139518057Y-126690878D01*
X139518057Y-126690878D02*
X139613295Y-126690878D01*
X139613295Y-126690878D02*
X139708533Y-126738497D01*
X139708533Y-126738497D02*
X139756152Y-126786116D01*
X139756152Y-126786116D02*
X139803771Y-126881354D01*
X139803771Y-126881354D02*
X139851390Y-127071830D01*
X139851390Y-127071830D02*
X139899009Y-127167068D01*
X139899009Y-127167068D02*
X139946628Y-127214687D01*
X139946628Y-127214687D02*
X140041866Y-127262306D01*
X140041866Y-127262306D02*
X140137104Y-127262306D01*
X140137104Y-127262306D02*
X140232342Y-127214687D01*
X140232342Y-127214687D02*
X140279961Y-127167068D01*
X140279961Y-127167068D02*
X140327580Y-127071830D01*
X140327580Y-127071830D02*
X140327580Y-126833735D01*
X140327580Y-126833735D02*
X140279961Y-126690878D01*
X140605200Y-131543259D02*
X140605200Y-126600402D01*
X134325117Y-97211353D02*
X134325117Y-96735163D01*
X134039402Y-97306591D02*
X135039402Y-96973258D01*
X135039402Y-96973258D02*
X134039402Y-96639925D01*
X135039402Y-95830401D02*
X135039402Y-96306591D01*
X135039402Y-96306591D02*
X134563212Y-96354210D01*
X134563212Y-96354210D02*
X134610831Y-96306591D01*
X134610831Y-96306591D02*
X134658450Y-96211353D01*
X134658450Y-96211353D02*
X134658450Y-95973258D01*
X134658450Y-95973258D02*
X134610831Y-95878020D01*
X134610831Y-95878020D02*
X134563212Y-95830401D01*
X134563212Y-95830401D02*
X134467974Y-95782782D01*
X134467974Y-95782782D02*
X134229879Y-95782782D01*
X134229879Y-95782782D02*
X134134641Y-95830401D01*
X134134641Y-95830401D02*
X134087022Y-95878020D01*
X134087022Y-95878020D02*
X134039402Y-95973258D01*
X134039402Y-95973258D02*
X134039402Y-96211353D01*
X134039402Y-96211353D02*
X134087022Y-96306591D01*
X134087022Y-96306591D02*
X134134641Y-96354210D01*
X111702895Y-98163734D02*
X111702895Y-97687544D01*
X111417180Y-98258972D02*
X112417180Y-97925639D01*
X112417180Y-97925639D02*
X111417180Y-97592306D01*
X111417180Y-96735163D02*
X111417180Y-97306591D01*
X111417180Y-97020877D02*
X112417180Y-97020877D01*
X112417180Y-97020877D02*
X112274323Y-97116115D01*
X112274323Y-97116115D02*
X112179085Y-97211353D01*
X112179085Y-97211353D02*
X112131466Y-97306591D01*
X112083847Y-95878020D02*
X111417180Y-95878020D01*
X112464800Y-96116115D02*
X111750514Y-96354210D01*
X111750514Y-96354210D02*
X111750514Y-95735163D01*
X136818327Y-97211353D02*
X136818327Y-96735163D01*
X136532612Y-97306591D02*
X137532612Y-96973258D01*
X137532612Y-96973258D02*
X136532612Y-96639925D01*
X137199279Y-95878020D02*
X136532612Y-95878020D01*
X137580232Y-96116115D02*
X136865946Y-96354210D01*
X136865946Y-96354210D02*
X136865946Y-95735163D01*
X83648133Y-98416115D02*
X83648133Y-97654211D01*
X83267180Y-98035163D02*
X84029085Y-98035163D01*
X84267180Y-96701830D02*
X84267180Y-97178020D01*
X84267180Y-97178020D02*
X83790990Y-97225639D01*
X83790990Y-97225639D02*
X83838609Y-97178020D01*
X83838609Y-97178020D02*
X83886228Y-97082782D01*
X83886228Y-97082782D02*
X83886228Y-96844687D01*
X83886228Y-96844687D02*
X83838609Y-96749449D01*
X83838609Y-96749449D02*
X83790990Y-96701830D01*
X83790990Y-96701830D02*
X83695752Y-96654211D01*
X83695752Y-96654211D02*
X83457657Y-96654211D01*
X83457657Y-96654211D02*
X83362419Y-96701830D01*
X83362419Y-96701830D02*
X83314800Y-96749449D01*
X83314800Y-96749449D02*
X83267180Y-96844687D01*
X83267180Y-96844687D02*
X83267180Y-97082782D01*
X83267180Y-97082782D02*
X83314800Y-97178020D01*
X83314800Y-97178020D02*
X83362419Y-97225639D01*
X84267180Y-96368496D02*
X83267180Y-96035163D01*
X83267180Y-96035163D02*
X84267180Y-95701830D01*
X94519561Y-97878020D02*
X94567180Y-97973258D01*
X94567180Y-97973258D02*
X94567180Y-98116115D01*
X94567180Y-98116115D02*
X94519561Y-98258972D01*
X94519561Y-98258972D02*
X94424323Y-98354210D01*
X94424323Y-98354210D02*
X94329085Y-98401829D01*
X94329085Y-98401829D02*
X94138609Y-98449448D01*
X94138609Y-98449448D02*
X93995752Y-98449448D01*
X93995752Y-98449448D02*
X93805276Y-98401829D01*
X93805276Y-98401829D02*
X93710038Y-98354210D01*
X93710038Y-98354210D02*
X93614800Y-98258972D01*
X93614800Y-98258972D02*
X93567180Y-98116115D01*
X93567180Y-98116115D02*
X93567180Y-98020877D01*
X93567180Y-98020877D02*
X93614800Y-97878020D01*
X93614800Y-97878020D02*
X93662419Y-97830401D01*
X93662419Y-97830401D02*
X93995752Y-97830401D01*
X93995752Y-97830401D02*
X93995752Y-98020877D01*
X93567180Y-97401829D02*
X94567180Y-97401829D01*
X94567180Y-97401829D02*
X93567180Y-96830401D01*
X93567180Y-96830401D02*
X94567180Y-96830401D01*
X93567180Y-96354210D02*
X94567180Y-96354210D01*
X94567180Y-96354210D02*
X94567180Y-96116115D01*
X94567180Y-96116115D02*
X94519561Y-95973258D01*
X94519561Y-95973258D02*
X94424323Y-95878020D01*
X94424323Y-95878020D02*
X94329085Y-95830401D01*
X94329085Y-95830401D02*
X94138609Y-95782782D01*
X94138609Y-95782782D02*
X93995752Y-95782782D01*
X93995752Y-95782782D02*
X93805276Y-95830401D01*
X93805276Y-95830401D02*
X93710038Y-95878020D01*
X93710038Y-95878020D02*
X93614800Y-95973258D01*
X93614800Y-95973258D02*
X93567180Y-96116115D01*
X93567180Y-96116115D02*
X93567180Y-96354210D01*
X129338697Y-97211353D02*
X129338697Y-96735163D01*
X129052982Y-97306591D02*
X130052982Y-96973258D01*
X130052982Y-96973258D02*
X129052982Y-96639925D01*
X130052982Y-96401829D02*
X130052982Y-95735163D01*
X130052982Y-95735163D02*
X129052982Y-96163734D01*
X86298133Y-100716115D02*
X86298133Y-99954211D01*
X85917180Y-100335163D02*
X86679085Y-100335163D01*
X85917180Y-98954211D02*
X85917180Y-99525639D01*
X85917180Y-99239925D02*
X86917180Y-99239925D01*
X86917180Y-99239925D02*
X86774323Y-99335163D01*
X86774323Y-99335163D02*
X86679085Y-99430401D01*
X86679085Y-99430401D02*
X86631466Y-99525639D01*
X86583847Y-98097068D02*
X85917180Y-98097068D01*
X86964800Y-98335163D02*
X86250514Y-98573258D01*
X86250514Y-98573258D02*
X86250514Y-97954211D01*
X86012419Y-97573258D02*
X85964800Y-97525639D01*
X85964800Y-97525639D02*
X85917180Y-97573258D01*
X85917180Y-97573258D02*
X85964800Y-97620877D01*
X85964800Y-97620877D02*
X86012419Y-97573258D01*
X86012419Y-97573258D02*
X85917180Y-97573258D01*
X86821942Y-97144687D02*
X86869561Y-97097068D01*
X86869561Y-97097068D02*
X86917180Y-97001830D01*
X86917180Y-97001830D02*
X86917180Y-96763735D01*
X86917180Y-96763735D02*
X86869561Y-96668497D01*
X86869561Y-96668497D02*
X86821942Y-96620878D01*
X86821942Y-96620878D02*
X86726704Y-96573259D01*
X86726704Y-96573259D02*
X86631466Y-96573259D01*
X86631466Y-96573259D02*
X86488609Y-96620878D01*
X86488609Y-96620878D02*
X85917180Y-97192306D01*
X85917180Y-97192306D02*
X85917180Y-96573259D01*
X86917180Y-96287544D02*
X85917180Y-95954211D01*
X85917180Y-95954211D02*
X86917180Y-95620878D01*
X139454834Y-99925639D02*
X139931025Y-100258972D01*
X139454834Y-100497067D02*
X140454834Y-100497067D01*
X140454834Y-100497067D02*
X140454834Y-100116115D01*
X140454834Y-100116115D02*
X140407215Y-100020877D01*
X140407215Y-100020877D02*
X140359596Y-99973258D01*
X140359596Y-99973258D02*
X140264358Y-99925639D01*
X140264358Y-99925639D02*
X140121501Y-99925639D01*
X140121501Y-99925639D02*
X140026263Y-99973258D01*
X140026263Y-99973258D02*
X139978644Y-100020877D01*
X139978644Y-100020877D02*
X139931025Y-100116115D01*
X139931025Y-100116115D02*
X139931025Y-100497067D01*
X140454834Y-99306591D02*
X140454834Y-99116115D01*
X140454834Y-99116115D02*
X140407215Y-99020877D01*
X140407215Y-99020877D02*
X140311977Y-98925639D01*
X140311977Y-98925639D02*
X140121501Y-98878020D01*
X140121501Y-98878020D02*
X139788168Y-98878020D01*
X139788168Y-98878020D02*
X139597692Y-98925639D01*
X139597692Y-98925639D02*
X139502454Y-99020877D01*
X139502454Y-99020877D02*
X139454834Y-99116115D01*
X139454834Y-99116115D02*
X139454834Y-99306591D01*
X139454834Y-99306591D02*
X139502454Y-99401829D01*
X139502454Y-99401829D02*
X139597692Y-99497067D01*
X139597692Y-99497067D02*
X139788168Y-99544686D01*
X139788168Y-99544686D02*
X140121501Y-99544686D01*
X140121501Y-99544686D02*
X140311977Y-99497067D01*
X140311977Y-99497067D02*
X140407215Y-99401829D01*
X140407215Y-99401829D02*
X140454834Y-99306591D01*
X139454834Y-98449448D02*
X140454834Y-98449448D01*
X140454834Y-98449448D02*
X139740549Y-98116115D01*
X139740549Y-98116115D02*
X140454834Y-97782782D01*
X140454834Y-97782782D02*
X139454834Y-97782782D01*
X139550073Y-96735163D02*
X139502454Y-96782782D01*
X139502454Y-96782782D02*
X139454834Y-96925639D01*
X139454834Y-96925639D02*
X139454834Y-97020877D01*
X139454834Y-97020877D02*
X139502454Y-97163734D01*
X139502454Y-97163734D02*
X139597692Y-97258972D01*
X139597692Y-97258972D02*
X139692930Y-97306591D01*
X139692930Y-97306591D02*
X139883406Y-97354210D01*
X139883406Y-97354210D02*
X140026263Y-97354210D01*
X140026263Y-97354210D02*
X140216739Y-97306591D01*
X140216739Y-97306591D02*
X140311977Y-97258972D01*
X140311977Y-97258972D02*
X140407215Y-97163734D01*
X140407215Y-97163734D02*
X140454834Y-97020877D01*
X140454834Y-97020877D02*
X140454834Y-96925639D01*
X140454834Y-96925639D02*
X140407215Y-96782782D01*
X140407215Y-96782782D02*
X140359596Y-96735163D01*
X139502454Y-96354210D02*
X139454834Y-96211353D01*
X139454834Y-96211353D02*
X139454834Y-95973258D01*
X139454834Y-95973258D02*
X139502454Y-95878020D01*
X139502454Y-95878020D02*
X139550073Y-95830401D01*
X139550073Y-95830401D02*
X139645311Y-95782782D01*
X139645311Y-95782782D02*
X139740549Y-95782782D01*
X139740549Y-95782782D02*
X139835787Y-95830401D01*
X139835787Y-95830401D02*
X139883406Y-95878020D01*
X139883406Y-95878020D02*
X139931025Y-95973258D01*
X139931025Y-95973258D02*
X139978644Y-96163734D01*
X139978644Y-96163734D02*
X140026263Y-96258972D01*
X140026263Y-96258972D02*
X140073882Y-96306591D01*
X140073882Y-96306591D02*
X140169120Y-96354210D01*
X140169120Y-96354210D02*
X140264358Y-96354210D01*
X140264358Y-96354210D02*
X140359596Y-96306591D01*
X140359596Y-96306591D02*
X140407215Y-96258972D01*
X140407215Y-96258972D02*
X140454834Y-96163734D01*
X140454834Y-96163734D02*
X140454834Y-95925639D01*
X140454834Y-95925639D02*
X140407215Y-95782782D01*
X140732454Y-100635163D02*
X140732454Y-95692306D01*
X119052914Y-98163734D02*
X119052914Y-97687544D01*
X118767199Y-98258972D02*
X119767199Y-97925639D01*
X119767199Y-97925639D02*
X118767199Y-97592306D01*
X118767199Y-96735163D02*
X118767199Y-97306591D01*
X118767199Y-97020877D02*
X119767199Y-97020877D01*
X119767199Y-97020877D02*
X119624342Y-97116115D01*
X119624342Y-97116115D02*
X119529104Y-97211353D01*
X119529104Y-97211353D02*
X119481485Y-97306591D01*
X118767199Y-95782782D02*
X118767199Y-96354210D01*
X118767199Y-96068496D02*
X119767199Y-96068496D01*
X119767199Y-96068496D02*
X119624342Y-96163734D01*
X119624342Y-96163734D02*
X119529104Y-96258972D01*
X119529104Y-96258972D02*
X119481485Y-96354210D01*
X91919561Y-97878020D02*
X91967180Y-97973258D01*
X91967180Y-97973258D02*
X91967180Y-98116115D01*
X91967180Y-98116115D02*
X91919561Y-98258972D01*
X91919561Y-98258972D02*
X91824323Y-98354210D01*
X91824323Y-98354210D02*
X91729085Y-98401829D01*
X91729085Y-98401829D02*
X91538609Y-98449448D01*
X91538609Y-98449448D02*
X91395752Y-98449448D01*
X91395752Y-98449448D02*
X91205276Y-98401829D01*
X91205276Y-98401829D02*
X91110038Y-98354210D01*
X91110038Y-98354210D02*
X91014800Y-98258972D01*
X91014800Y-98258972D02*
X90967180Y-98116115D01*
X90967180Y-98116115D02*
X90967180Y-98020877D01*
X90967180Y-98020877D02*
X91014800Y-97878020D01*
X91014800Y-97878020D02*
X91062419Y-97830401D01*
X91062419Y-97830401D02*
X91395752Y-97830401D01*
X91395752Y-97830401D02*
X91395752Y-98020877D01*
X90967180Y-97401829D02*
X91967180Y-97401829D01*
X91967180Y-97401829D02*
X90967180Y-96830401D01*
X90967180Y-96830401D02*
X91967180Y-96830401D01*
X90967180Y-96354210D02*
X91967180Y-96354210D01*
X91967180Y-96354210D02*
X91967180Y-96116115D01*
X91967180Y-96116115D02*
X91919561Y-95973258D01*
X91919561Y-95973258D02*
X91824323Y-95878020D01*
X91824323Y-95878020D02*
X91729085Y-95830401D01*
X91729085Y-95830401D02*
X91538609Y-95782782D01*
X91538609Y-95782782D02*
X91395752Y-95782782D01*
X91395752Y-95782782D02*
X91205276Y-95830401D01*
X91205276Y-95830401D02*
X91110038Y-95878020D01*
X91110038Y-95878020D02*
X91014800Y-95973258D01*
X91014800Y-95973258D02*
X90967180Y-96116115D01*
X90967180Y-96116115D02*
X90967180Y-96354210D01*
X121840549Y-98163734D02*
X121840549Y-97687544D01*
X121554834Y-98258972D02*
X122554834Y-97925639D01*
X122554834Y-97925639D02*
X121554834Y-97592306D01*
X121554834Y-96735163D02*
X121554834Y-97306591D01*
X121554834Y-97020877D02*
X122554834Y-97020877D01*
X122554834Y-97020877D02*
X122411977Y-97116115D01*
X122411977Y-97116115D02*
X122316739Y-97211353D01*
X122316739Y-97211353D02*
X122269120Y-97306591D01*
X122554834Y-96116115D02*
X122554834Y-96020877D01*
X122554834Y-96020877D02*
X122507215Y-95925639D01*
X122507215Y-95925639D02*
X122459596Y-95878020D01*
X122459596Y-95878020D02*
X122364358Y-95830401D01*
X122364358Y-95830401D02*
X122173882Y-95782782D01*
X122173882Y-95782782D02*
X121935787Y-95782782D01*
X121935787Y-95782782D02*
X121745311Y-95830401D01*
X121745311Y-95830401D02*
X121650073Y-95878020D01*
X121650073Y-95878020D02*
X121602454Y-95925639D01*
X121602454Y-95925639D02*
X121554834Y-96020877D01*
X121554834Y-96020877D02*
X121554834Y-96116115D01*
X121554834Y-96116115D02*
X121602454Y-96211353D01*
X121602454Y-96211353D02*
X121650073Y-96258972D01*
X121650073Y-96258972D02*
X121745311Y-96306591D01*
X121745311Y-96306591D02*
X121935787Y-96354210D01*
X121935787Y-96354210D02*
X122173882Y-96354210D01*
X122173882Y-96354210D02*
X122364358Y-96306591D01*
X122364358Y-96306591D02*
X122459596Y-96258972D01*
X122459596Y-96258972D02*
X122507215Y-96211353D01*
X122507215Y-96211353D02*
X122554834Y-96116115D01*
X106452895Y-97213734D02*
X106452895Y-96737544D01*
X106167180Y-97308972D02*
X107167180Y-96975639D01*
X107167180Y-96975639D02*
X106167180Y-96642306D01*
X107167180Y-96404210D02*
X107167180Y-95785163D01*
X107167180Y-95785163D02*
X106786228Y-96118496D01*
X106786228Y-96118496D02*
X106786228Y-95975639D01*
X106786228Y-95975639D02*
X106738609Y-95880401D01*
X106738609Y-95880401D02*
X106690990Y-95832782D01*
X106690990Y-95832782D02*
X106595752Y-95785163D01*
X106595752Y-95785163D02*
X106357657Y-95785163D01*
X106357657Y-95785163D02*
X106262419Y-95832782D01*
X106262419Y-95832782D02*
X106214800Y-95880401D01*
X106214800Y-95880401D02*
X106167180Y-95975639D01*
X106167180Y-95975639D02*
X106167180Y-96261353D01*
X106167180Y-96261353D02*
X106214800Y-96356591D01*
X106214800Y-96356591D02*
X106262419Y-96404210D01*
X103952895Y-97211353D02*
X103952895Y-96735163D01*
X103667180Y-97306591D02*
X104667180Y-96973258D01*
X104667180Y-96973258D02*
X103667180Y-96639925D01*
X104571942Y-96354210D02*
X104619561Y-96306591D01*
X104619561Y-96306591D02*
X104667180Y-96211353D01*
X104667180Y-96211353D02*
X104667180Y-95973258D01*
X104667180Y-95973258D02*
X104619561Y-95878020D01*
X104619561Y-95878020D02*
X104571942Y-95830401D01*
X104571942Y-95830401D02*
X104476704Y-95782782D01*
X104476704Y-95782782D02*
X104381466Y-95782782D01*
X104381466Y-95782782D02*
X104238609Y-95830401D01*
X104238609Y-95830401D02*
X103667180Y-96401829D01*
X103667180Y-96401829D02*
X103667180Y-95782782D01*
X131831907Y-97211353D02*
X131831907Y-96735163D01*
X131546192Y-97306591D02*
X132546192Y-96973258D01*
X132546192Y-96973258D02*
X131546192Y-96639925D01*
X132546192Y-95878020D02*
X132546192Y-96068496D01*
X132546192Y-96068496D02*
X132498573Y-96163734D01*
X132498573Y-96163734D02*
X132450954Y-96211353D01*
X132450954Y-96211353D02*
X132308097Y-96306591D01*
X132308097Y-96306591D02*
X132117621Y-96354210D01*
X132117621Y-96354210D02*
X131736669Y-96354210D01*
X131736669Y-96354210D02*
X131641431Y-96306591D01*
X131641431Y-96306591D02*
X131593812Y-96258972D01*
X131593812Y-96258972D02*
X131546192Y-96163734D01*
X131546192Y-96163734D02*
X131546192Y-95973258D01*
X131546192Y-95973258D02*
X131593812Y-95878020D01*
X131593812Y-95878020D02*
X131641431Y-95830401D01*
X131641431Y-95830401D02*
X131736669Y-95782782D01*
X131736669Y-95782782D02*
X131974764Y-95782782D01*
X131974764Y-95782782D02*
X132070002Y-95830401D01*
X132070002Y-95830401D02*
X132117621Y-95878020D01*
X132117621Y-95878020D02*
X132165240Y-95973258D01*
X132165240Y-95973258D02*
X132165240Y-96163734D01*
X132165240Y-96163734D02*
X132117621Y-96258972D01*
X132117621Y-96258972D02*
X132070002Y-96306591D01*
X132070002Y-96306591D02*
X131974764Y-96354210D01*
X98902895Y-97211353D02*
X98902895Y-96735163D01*
X98617180Y-97306591D02*
X99617180Y-96973258D01*
X99617180Y-96973258D02*
X98617180Y-96639925D01*
X99617180Y-96116115D02*
X99617180Y-96020877D01*
X99617180Y-96020877D02*
X99569561Y-95925639D01*
X99569561Y-95925639D02*
X99521942Y-95878020D01*
X99521942Y-95878020D02*
X99426704Y-95830401D01*
X99426704Y-95830401D02*
X99236228Y-95782782D01*
X99236228Y-95782782D02*
X98998133Y-95782782D01*
X98998133Y-95782782D02*
X98807657Y-95830401D01*
X98807657Y-95830401D02*
X98712419Y-95878020D01*
X98712419Y-95878020D02*
X98664800Y-95925639D01*
X98664800Y-95925639D02*
X98617180Y-96020877D01*
X98617180Y-96020877D02*
X98617180Y-96116115D01*
X98617180Y-96116115D02*
X98664800Y-96211353D01*
X98664800Y-96211353D02*
X98712419Y-96258972D01*
X98712419Y-96258972D02*
X98807657Y-96306591D01*
X98807657Y-96306591D02*
X98998133Y-96354210D01*
X98998133Y-96354210D02*
X99236228Y-96354210D01*
X99236228Y-96354210D02*
X99426704Y-96306591D01*
X99426704Y-96306591D02*
X99521942Y-96258972D01*
X99521942Y-96258972D02*
X99569561Y-96211353D01*
X99569561Y-96211353D02*
X99617180Y-96116115D01*
X113946105Y-98163734D02*
X113946105Y-97687544D01*
X113660390Y-98258972D02*
X114660390Y-97925639D01*
X114660390Y-97925639D02*
X113660390Y-97592306D01*
X113660390Y-96735163D02*
X113660390Y-97306591D01*
X113660390Y-97020877D02*
X114660390Y-97020877D01*
X114660390Y-97020877D02*
X114517533Y-97116115D01*
X114517533Y-97116115D02*
X114422295Y-97211353D01*
X114422295Y-97211353D02*
X114374676Y-97306591D01*
X114660390Y-96401829D02*
X114660390Y-95782782D01*
X114660390Y-95782782D02*
X114279438Y-96116115D01*
X114279438Y-96116115D02*
X114279438Y-95973258D01*
X114279438Y-95973258D02*
X114231819Y-95878020D01*
X114231819Y-95878020D02*
X114184200Y-95830401D01*
X114184200Y-95830401D02*
X114088962Y-95782782D01*
X114088962Y-95782782D02*
X113850867Y-95782782D01*
X113850867Y-95782782D02*
X113755629Y-95830401D01*
X113755629Y-95830401D02*
X113708010Y-95878020D01*
X113708010Y-95878020D02*
X113660390Y-95973258D01*
X113660390Y-95973258D02*
X113660390Y-96258972D01*
X113660390Y-96258972D02*
X113708010Y-96354210D01*
X113708010Y-96354210D02*
X113755629Y-96401829D01*
X124290549Y-97211353D02*
X124290549Y-96735163D01*
X124004834Y-97306591D02*
X125004834Y-96973258D01*
X125004834Y-96973258D02*
X124004834Y-96639925D01*
X124004834Y-96258972D02*
X124004834Y-96068496D01*
X124004834Y-96068496D02*
X124052454Y-95973258D01*
X124052454Y-95973258D02*
X124100073Y-95925639D01*
X124100073Y-95925639D02*
X124242930Y-95830401D01*
X124242930Y-95830401D02*
X124433406Y-95782782D01*
X124433406Y-95782782D02*
X124814358Y-95782782D01*
X124814358Y-95782782D02*
X124909596Y-95830401D01*
X124909596Y-95830401D02*
X124957215Y-95878020D01*
X124957215Y-95878020D02*
X125004834Y-95973258D01*
X125004834Y-95973258D02*
X125004834Y-96163734D01*
X125004834Y-96163734D02*
X124957215Y-96258972D01*
X124957215Y-96258972D02*
X124909596Y-96306591D01*
X124909596Y-96306591D02*
X124814358Y-96354210D01*
X124814358Y-96354210D02*
X124576263Y-96354210D01*
X124576263Y-96354210D02*
X124481025Y-96306591D01*
X124481025Y-96306591D02*
X124433406Y-96258972D01*
X124433406Y-96258972D02*
X124385787Y-96163734D01*
X124385787Y-96163734D02*
X124385787Y-95973258D01*
X124385787Y-95973258D02*
X124433406Y-95878020D01*
X124433406Y-95878020D02*
X124481025Y-95830401D01*
X124481025Y-95830401D02*
X124576263Y-95782782D01*
X116602914Y-98163734D02*
X116602914Y-97687544D01*
X116317199Y-98258972D02*
X117317199Y-97925639D01*
X117317199Y-97925639D02*
X116317199Y-97592306D01*
X116317199Y-96735163D02*
X116317199Y-97306591D01*
X116317199Y-97020877D02*
X117317199Y-97020877D01*
X117317199Y-97020877D02*
X117174342Y-97116115D01*
X117174342Y-97116115D02*
X117079104Y-97211353D01*
X117079104Y-97211353D02*
X117031485Y-97306591D01*
X117221961Y-96354210D02*
X117269580Y-96306591D01*
X117269580Y-96306591D02*
X117317199Y-96211353D01*
X117317199Y-96211353D02*
X117317199Y-95973258D01*
X117317199Y-95973258D02*
X117269580Y-95878020D01*
X117269580Y-95878020D02*
X117221961Y-95830401D01*
X117221961Y-95830401D02*
X117126723Y-95782782D01*
X117126723Y-95782782D02*
X117031485Y-95782782D01*
X117031485Y-95782782D02*
X116888628Y-95830401D01*
X116888628Y-95830401D02*
X116317199Y-96401829D01*
X116317199Y-96401829D02*
X116317199Y-95782782D01*
X101502895Y-97213734D02*
X101502895Y-96737544D01*
X101217180Y-97308972D02*
X102217180Y-96975639D01*
X102217180Y-96975639D02*
X101217180Y-96642306D01*
X101217180Y-95785163D02*
X101217180Y-96356591D01*
X101217180Y-96070877D02*
X102217180Y-96070877D01*
X102217180Y-96070877D02*
X102074323Y-96166115D01*
X102074323Y-96166115D02*
X101979085Y-96261353D01*
X101979085Y-96261353D02*
X101931466Y-96356591D01*
X109002895Y-98113734D02*
X109002895Y-97637544D01*
X108717180Y-98208972D02*
X109717180Y-97875639D01*
X109717180Y-97875639D02*
X108717180Y-97542306D01*
X108717180Y-96685163D02*
X108717180Y-97256591D01*
X108717180Y-96970877D02*
X109717180Y-96970877D01*
X109717180Y-96970877D02*
X109574323Y-97066115D01*
X109574323Y-97066115D02*
X109479085Y-97161353D01*
X109479085Y-97161353D02*
X109431466Y-97256591D01*
X109717180Y-95780401D02*
X109717180Y-96256591D01*
X109717180Y-96256591D02*
X109240990Y-96304210D01*
X109240990Y-96304210D02*
X109288609Y-96256591D01*
X109288609Y-96256591D02*
X109336228Y-96161353D01*
X109336228Y-96161353D02*
X109336228Y-95923258D01*
X109336228Y-95923258D02*
X109288609Y-95828020D01*
X109288609Y-95828020D02*
X109240990Y-95780401D01*
X109240990Y-95780401D02*
X109145752Y-95732782D01*
X109145752Y-95732782D02*
X108907657Y-95732782D01*
X108907657Y-95732782D02*
X108812419Y-95780401D01*
X108812419Y-95780401D02*
X108764800Y-95828020D01*
X108764800Y-95828020D02*
X108717180Y-95923258D01*
X108717180Y-95923258D02*
X108717180Y-96161353D01*
X108717180Y-96161353D02*
X108764800Y-96256591D01*
X108764800Y-96256591D02*
X108812419Y-96304210D01*
X126852914Y-97211353D02*
X126852914Y-96735163D01*
X126567199Y-97306591D02*
X127567199Y-96973258D01*
X127567199Y-96973258D02*
X126567199Y-96639925D01*
X127138628Y-96163734D02*
X127186247Y-96258972D01*
X127186247Y-96258972D02*
X127233866Y-96306591D01*
X127233866Y-96306591D02*
X127329104Y-96354210D01*
X127329104Y-96354210D02*
X127376723Y-96354210D01*
X127376723Y-96354210D02*
X127471961Y-96306591D01*
X127471961Y-96306591D02*
X127519580Y-96258972D01*
X127519580Y-96258972D02*
X127567199Y-96163734D01*
X127567199Y-96163734D02*
X127567199Y-95973258D01*
X127567199Y-95973258D02*
X127519580Y-95878020D01*
X127519580Y-95878020D02*
X127471961Y-95830401D01*
X127471961Y-95830401D02*
X127376723Y-95782782D01*
X127376723Y-95782782D02*
X127329104Y-95782782D01*
X127329104Y-95782782D02*
X127233866Y-95830401D01*
X127233866Y-95830401D02*
X127186247Y-95878020D01*
X127186247Y-95878020D02*
X127138628Y-95973258D01*
X127138628Y-95973258D02*
X127138628Y-96163734D01*
X127138628Y-96163734D02*
X127091009Y-96258972D01*
X127091009Y-96258972D02*
X127043390Y-96306591D01*
X127043390Y-96306591D02*
X126948152Y-96354210D01*
X126948152Y-96354210D02*
X126757676Y-96354210D01*
X126757676Y-96354210D02*
X126662438Y-96306591D01*
X126662438Y-96306591D02*
X126614819Y-96258972D01*
X126614819Y-96258972D02*
X126567199Y-96163734D01*
X126567199Y-96163734D02*
X126567199Y-95973258D01*
X126567199Y-95973258D02*
X126614819Y-95878020D01*
X126614819Y-95878020D02*
X126662438Y-95830401D01*
X126662438Y-95830401D02*
X126757676Y-95782782D01*
X126757676Y-95782782D02*
X126948152Y-95782782D01*
X126948152Y-95782782D02*
X127043390Y-95830401D01*
X127043390Y-95830401D02*
X127091009Y-95878020D01*
X127091009Y-95878020D02*
X127138628Y-95973258D01*
X96212419Y-97594687D02*
X96164800Y-97642306D01*
X96164800Y-97642306D02*
X96117180Y-97785163D01*
X96117180Y-97785163D02*
X96117180Y-97880401D01*
X96117180Y-97880401D02*
X96164800Y-98023258D01*
X96164800Y-98023258D02*
X96260038Y-98118496D01*
X96260038Y-98118496D02*
X96355276Y-98166115D01*
X96355276Y-98166115D02*
X96545752Y-98213734D01*
X96545752Y-98213734D02*
X96688609Y-98213734D01*
X96688609Y-98213734D02*
X96879085Y-98166115D01*
X96879085Y-98166115D02*
X96974323Y-98118496D01*
X96974323Y-98118496D02*
X97069561Y-98023258D01*
X97069561Y-98023258D02*
X97117180Y-97880401D01*
X97117180Y-97880401D02*
X97117180Y-97785163D01*
X97117180Y-97785163D02*
X97069561Y-97642306D01*
X97069561Y-97642306D02*
X97021942Y-97594687D01*
X96117180Y-96689925D02*
X96117180Y-97166115D01*
X96117180Y-97166115D02*
X97117180Y-97166115D01*
X96117180Y-96356591D02*
X97117180Y-96356591D01*
X96117180Y-95785163D02*
X96688609Y-96213734D01*
X97117180Y-95785163D02*
X96545752Y-96356591D01*
X83490479Y-131305163D02*
X83490479Y-130543259D01*
X83109526Y-130924211D02*
X83871431Y-130924211D01*
X84109526Y-129590878D02*
X84109526Y-130067068D01*
X84109526Y-130067068D02*
X83633336Y-130114687D01*
X83633336Y-130114687D02*
X83680955Y-130067068D01*
X83680955Y-130067068D02*
X83728574Y-129971830D01*
X83728574Y-129971830D02*
X83728574Y-129733735D01*
X83728574Y-129733735D02*
X83680955Y-129638497D01*
X83680955Y-129638497D02*
X83633336Y-129590878D01*
X83633336Y-129590878D02*
X83538098Y-129543259D01*
X83538098Y-129543259D02*
X83300003Y-129543259D01*
X83300003Y-129543259D02*
X83204765Y-129590878D01*
X83204765Y-129590878D02*
X83157146Y-129638497D01*
X83157146Y-129638497D02*
X83109526Y-129733735D01*
X83109526Y-129733735D02*
X83109526Y-129971830D01*
X83109526Y-129971830D02*
X83157146Y-130067068D01*
X83157146Y-130067068D02*
X83204765Y-130114687D01*
X84109526Y-129257544D02*
X83109526Y-128924211D01*
X83109526Y-128924211D02*
X84109526Y-128590878D01*
X124132895Y-131352782D02*
X124132895Y-130876592D01*
X123847180Y-131448020D02*
X124847180Y-131114687D01*
X124847180Y-131114687D02*
X123847180Y-130781354D01*
X123847180Y-130400401D02*
X123847180Y-130209925D01*
X123847180Y-130209925D02*
X123894800Y-130114687D01*
X123894800Y-130114687D02*
X123942419Y-130067068D01*
X123942419Y-130067068D02*
X124085276Y-129971830D01*
X124085276Y-129971830D02*
X124275752Y-129924211D01*
X124275752Y-129924211D02*
X124656704Y-129924211D01*
X124656704Y-129924211D02*
X124751942Y-129971830D01*
X124751942Y-129971830D02*
X124799561Y-130019449D01*
X124799561Y-130019449D02*
X124847180Y-130114687D01*
X124847180Y-130114687D02*
X124847180Y-130305163D01*
X124847180Y-130305163D02*
X124799561Y-130400401D01*
X124799561Y-130400401D02*
X124751942Y-130448020D01*
X124751942Y-130448020D02*
X124656704Y-130495639D01*
X124656704Y-130495639D02*
X124418609Y-130495639D01*
X124418609Y-130495639D02*
X124323371Y-130448020D01*
X124323371Y-130448020D02*
X124275752Y-130400401D01*
X124275752Y-130400401D02*
X124228133Y-130305163D01*
X124228133Y-130305163D02*
X124228133Y-130114687D01*
X124228133Y-130114687D02*
X124275752Y-130019449D01*
X124275752Y-130019449D02*
X124323371Y-129971830D01*
X124323371Y-129971830D02*
X124418609Y-129924211D01*
X111545241Y-131352782D02*
X111545241Y-130876592D01*
X111259526Y-131448020D02*
X112259526Y-131114687D01*
X112259526Y-131114687D02*
X111259526Y-130781354D01*
X111259526Y-129924211D02*
X111259526Y-130495639D01*
X111259526Y-130209925D02*
X112259526Y-130209925D01*
X112259526Y-130209925D02*
X112116669Y-130305163D01*
X112116669Y-130305163D02*
X112021431Y-130400401D01*
X112021431Y-130400401D02*
X111973812Y-130495639D01*
X111926193Y-129067068D02*
X111259526Y-129067068D01*
X112307146Y-129305163D02*
X111592860Y-129543258D01*
X111592860Y-129543258D02*
X111592860Y-128924211D01*
X91761907Y-130781354D02*
X91809526Y-130876592D01*
X91809526Y-130876592D02*
X91809526Y-131019449D01*
X91809526Y-131019449D02*
X91761907Y-131162306D01*
X91761907Y-131162306D02*
X91666669Y-131257544D01*
X91666669Y-131257544D02*
X91571431Y-131305163D01*
X91571431Y-131305163D02*
X91380955Y-131352782D01*
X91380955Y-131352782D02*
X91238098Y-131352782D01*
X91238098Y-131352782D02*
X91047622Y-131305163D01*
X91047622Y-131305163D02*
X90952384Y-131257544D01*
X90952384Y-131257544D02*
X90857146Y-131162306D01*
X90857146Y-131162306D02*
X90809526Y-131019449D01*
X90809526Y-131019449D02*
X90809526Y-130924211D01*
X90809526Y-130924211D02*
X90857146Y-130781354D01*
X90857146Y-130781354D02*
X90904765Y-130733735D01*
X90904765Y-130733735D02*
X91238098Y-130733735D01*
X91238098Y-130733735D02*
X91238098Y-130924211D01*
X90809526Y-130305163D02*
X91809526Y-130305163D01*
X91809526Y-130305163D02*
X90809526Y-129733735D01*
X90809526Y-129733735D02*
X91809526Y-129733735D01*
X90809526Y-129257544D02*
X91809526Y-129257544D01*
X91809526Y-129257544D02*
X91809526Y-129019449D01*
X91809526Y-129019449D02*
X91761907Y-128876592D01*
X91761907Y-128876592D02*
X91666669Y-128781354D01*
X91666669Y-128781354D02*
X91571431Y-128733735D01*
X91571431Y-128733735D02*
X91380955Y-128686116D01*
X91380955Y-128686116D02*
X91238098Y-128686116D01*
X91238098Y-128686116D02*
X91047622Y-128733735D01*
X91047622Y-128733735D02*
X90952384Y-128781354D01*
X90952384Y-128781354D02*
X90857146Y-128876592D01*
X90857146Y-128876592D02*
X90809526Y-129019449D01*
X90809526Y-129019449D02*
X90809526Y-129257544D01*
X121682895Y-131352782D02*
X121682895Y-130876592D01*
X121397180Y-131448020D02*
X122397180Y-131114687D01*
X122397180Y-131114687D02*
X121397180Y-130781354D01*
X121397180Y-129924211D02*
X121397180Y-130495639D01*
X121397180Y-130209925D02*
X122397180Y-130209925D01*
X122397180Y-130209925D02*
X122254323Y-130305163D01*
X122254323Y-130305163D02*
X122159085Y-130400401D01*
X122159085Y-130400401D02*
X122111466Y-130495639D01*
X122397180Y-129305163D02*
X122397180Y-129209925D01*
X122397180Y-129209925D02*
X122349561Y-129114687D01*
X122349561Y-129114687D02*
X122301942Y-129067068D01*
X122301942Y-129067068D02*
X122206704Y-129019449D01*
X122206704Y-129019449D02*
X122016228Y-128971830D01*
X122016228Y-128971830D02*
X121778133Y-128971830D01*
X121778133Y-128971830D02*
X121587657Y-129019449D01*
X121587657Y-129019449D02*
X121492419Y-129067068D01*
X121492419Y-129067068D02*
X121444800Y-129114687D01*
X121444800Y-129114687D02*
X121397180Y-129209925D01*
X121397180Y-129209925D02*
X121397180Y-129305163D01*
X121397180Y-129305163D02*
X121444800Y-129400401D01*
X121444800Y-129400401D02*
X121492419Y-129448020D01*
X121492419Y-129448020D02*
X121587657Y-129495639D01*
X121587657Y-129495639D02*
X121778133Y-129543258D01*
X121778133Y-129543258D02*
X122016228Y-129543258D01*
X122016228Y-129543258D02*
X122206704Y-129495639D01*
X122206704Y-129495639D02*
X122301942Y-129448020D01*
X122301942Y-129448020D02*
X122349561Y-129400401D01*
X122349561Y-129400401D02*
X122397180Y-129305163D01*
X113788451Y-131352782D02*
X113788451Y-130876592D01*
X113502736Y-131448020D02*
X114502736Y-131114687D01*
X114502736Y-131114687D02*
X113502736Y-130781354D01*
X113502736Y-129924211D02*
X113502736Y-130495639D01*
X113502736Y-130209925D02*
X114502736Y-130209925D01*
X114502736Y-130209925D02*
X114359879Y-130305163D01*
X114359879Y-130305163D02*
X114264641Y-130400401D01*
X114264641Y-130400401D02*
X114217022Y-130495639D01*
X114502736Y-129590877D02*
X114502736Y-128971830D01*
X114502736Y-128971830D02*
X114121784Y-129305163D01*
X114121784Y-129305163D02*
X114121784Y-129162306D01*
X114121784Y-129162306D02*
X114074165Y-129067068D01*
X114074165Y-129067068D02*
X114026546Y-129019449D01*
X114026546Y-129019449D02*
X113931308Y-128971830D01*
X113931308Y-128971830D02*
X113693213Y-128971830D01*
X113693213Y-128971830D02*
X113597975Y-129019449D01*
X113597975Y-129019449D02*
X113550356Y-129067068D01*
X113550356Y-129067068D02*
X113502736Y-129162306D01*
X113502736Y-129162306D02*
X113502736Y-129448020D01*
X113502736Y-129448020D02*
X113550356Y-129543258D01*
X113550356Y-129543258D02*
X113597975Y-129590877D01*
X129181043Y-131352782D02*
X129181043Y-130876592D01*
X128895328Y-131448020D02*
X129895328Y-131114687D01*
X129895328Y-131114687D02*
X128895328Y-130781354D01*
X129895328Y-130543258D02*
X129895328Y-129876592D01*
X129895328Y-129876592D02*
X128895328Y-130305163D01*
X86140479Y-131305163D02*
X86140479Y-130543259D01*
X85759526Y-130924211D02*
X86521431Y-130924211D01*
X85759526Y-130019449D02*
X85759526Y-129828973D01*
X85759526Y-129828973D02*
X85807146Y-129733735D01*
X85807146Y-129733735D02*
X85854765Y-129686116D01*
X85854765Y-129686116D02*
X85997622Y-129590878D01*
X85997622Y-129590878D02*
X86188098Y-129543259D01*
X86188098Y-129543259D02*
X86569050Y-129543259D01*
X86569050Y-129543259D02*
X86664288Y-129590878D01*
X86664288Y-129590878D02*
X86711907Y-129638497D01*
X86711907Y-129638497D02*
X86759526Y-129733735D01*
X86759526Y-129733735D02*
X86759526Y-129924211D01*
X86759526Y-129924211D02*
X86711907Y-130019449D01*
X86711907Y-130019449D02*
X86664288Y-130067068D01*
X86664288Y-130067068D02*
X86569050Y-130114687D01*
X86569050Y-130114687D02*
X86330955Y-130114687D01*
X86330955Y-130114687D02*
X86235717Y-130067068D01*
X86235717Y-130067068D02*
X86188098Y-130019449D01*
X86188098Y-130019449D02*
X86140479Y-129924211D01*
X86140479Y-129924211D02*
X86140479Y-129733735D01*
X86140479Y-129733735D02*
X86188098Y-129638497D01*
X86188098Y-129638497D02*
X86235717Y-129590878D01*
X86235717Y-129590878D02*
X86330955Y-129543259D01*
X86759526Y-129257544D02*
X85759526Y-128924211D01*
X85759526Y-128924211D02*
X86759526Y-128590878D01*
X101345241Y-131352782D02*
X101345241Y-130876592D01*
X101059526Y-131448020D02*
X102059526Y-131114687D01*
X102059526Y-131114687D02*
X101059526Y-130781354D01*
X101059526Y-129924211D02*
X101059526Y-130495639D01*
X101059526Y-130209925D02*
X102059526Y-130209925D01*
X102059526Y-130209925D02*
X101916669Y-130305163D01*
X101916669Y-130305163D02*
X101821431Y-130400401D01*
X101821431Y-130400401D02*
X101773812Y-130495639D01*
X94361907Y-130781354D02*
X94409526Y-130876592D01*
X94409526Y-130876592D02*
X94409526Y-131019449D01*
X94409526Y-131019449D02*
X94361907Y-131162306D01*
X94361907Y-131162306D02*
X94266669Y-131257544D01*
X94266669Y-131257544D02*
X94171431Y-131305163D01*
X94171431Y-131305163D02*
X93980955Y-131352782D01*
X93980955Y-131352782D02*
X93838098Y-131352782D01*
X93838098Y-131352782D02*
X93647622Y-131305163D01*
X93647622Y-131305163D02*
X93552384Y-131257544D01*
X93552384Y-131257544D02*
X93457146Y-131162306D01*
X93457146Y-131162306D02*
X93409526Y-131019449D01*
X93409526Y-131019449D02*
X93409526Y-130924211D01*
X93409526Y-130924211D02*
X93457146Y-130781354D01*
X93457146Y-130781354D02*
X93504765Y-130733735D01*
X93504765Y-130733735D02*
X93838098Y-130733735D01*
X93838098Y-130733735D02*
X93838098Y-130924211D01*
X93409526Y-130305163D02*
X94409526Y-130305163D01*
X94409526Y-130305163D02*
X93409526Y-129733735D01*
X93409526Y-129733735D02*
X94409526Y-129733735D01*
X93409526Y-129257544D02*
X94409526Y-129257544D01*
X94409526Y-129257544D02*
X94409526Y-129019449D01*
X94409526Y-129019449D02*
X94361907Y-128876592D01*
X94361907Y-128876592D02*
X94266669Y-128781354D01*
X94266669Y-128781354D02*
X94171431Y-128733735D01*
X94171431Y-128733735D02*
X93980955Y-128686116D01*
X93980955Y-128686116D02*
X93838098Y-128686116D01*
X93838098Y-128686116D02*
X93647622Y-128733735D01*
X93647622Y-128733735D02*
X93552384Y-128781354D01*
X93552384Y-128781354D02*
X93457146Y-128876592D01*
X93457146Y-128876592D02*
X93409526Y-129019449D01*
X93409526Y-129019449D02*
X93409526Y-129257544D01*
X108845241Y-131352782D02*
X108845241Y-130876592D01*
X108559526Y-131448020D02*
X109559526Y-131114687D01*
X109559526Y-131114687D02*
X108559526Y-130781354D01*
X108559526Y-129924211D02*
X108559526Y-130495639D01*
X108559526Y-130209925D02*
X109559526Y-130209925D01*
X109559526Y-130209925D02*
X109416669Y-130305163D01*
X109416669Y-130305163D02*
X109321431Y-130400401D01*
X109321431Y-130400401D02*
X109273812Y-130495639D01*
X109559526Y-129019449D02*
X109559526Y-129495639D01*
X109559526Y-129495639D02*
X109083336Y-129543258D01*
X109083336Y-129543258D02*
X109130955Y-129495639D01*
X109130955Y-129495639D02*
X109178574Y-129400401D01*
X109178574Y-129400401D02*
X109178574Y-129162306D01*
X109178574Y-129162306D02*
X109130955Y-129067068D01*
X109130955Y-129067068D02*
X109083336Y-129019449D01*
X109083336Y-129019449D02*
X108988098Y-128971830D01*
X108988098Y-128971830D02*
X108750003Y-128971830D01*
X108750003Y-128971830D02*
X108654765Y-129019449D01*
X108654765Y-129019449D02*
X108607146Y-129067068D01*
X108607146Y-129067068D02*
X108559526Y-129162306D01*
X108559526Y-129162306D02*
X108559526Y-129400401D01*
X108559526Y-129400401D02*
X108607146Y-129495639D01*
X108607146Y-129495639D02*
X108654765Y-129543258D01*
X116445260Y-131352782D02*
X116445260Y-130876592D01*
X116159545Y-131448020D02*
X117159545Y-131114687D01*
X117159545Y-131114687D02*
X116159545Y-130781354D01*
X116159545Y-129924211D02*
X116159545Y-130495639D01*
X116159545Y-130209925D02*
X117159545Y-130209925D01*
X117159545Y-130209925D02*
X117016688Y-130305163D01*
X117016688Y-130305163D02*
X116921450Y-130400401D01*
X116921450Y-130400401D02*
X116873831Y-130495639D01*
X117064307Y-129543258D02*
X117111926Y-129495639D01*
X117111926Y-129495639D02*
X117159545Y-129400401D01*
X117159545Y-129400401D02*
X117159545Y-129162306D01*
X117159545Y-129162306D02*
X117111926Y-129067068D01*
X117111926Y-129067068D02*
X117064307Y-129019449D01*
X117064307Y-129019449D02*
X116969069Y-128971830D01*
X116969069Y-128971830D02*
X116873831Y-128971830D01*
X116873831Y-128971830D02*
X116730974Y-129019449D01*
X116730974Y-129019449D02*
X116159545Y-129590877D01*
X116159545Y-129590877D02*
X116159545Y-128971830D01*
X98745241Y-131352782D02*
X98745241Y-130876592D01*
X98459526Y-131448020D02*
X99459526Y-131114687D01*
X99459526Y-131114687D02*
X98459526Y-130781354D01*
X99459526Y-130257544D02*
X99459526Y-130162306D01*
X99459526Y-130162306D02*
X99411907Y-130067068D01*
X99411907Y-130067068D02*
X99364288Y-130019449D01*
X99364288Y-130019449D02*
X99269050Y-129971830D01*
X99269050Y-129971830D02*
X99078574Y-129924211D01*
X99078574Y-129924211D02*
X98840479Y-129924211D01*
X98840479Y-129924211D02*
X98650003Y-129971830D01*
X98650003Y-129971830D02*
X98554765Y-130019449D01*
X98554765Y-130019449D02*
X98507146Y-130067068D01*
X98507146Y-130067068D02*
X98459526Y-130162306D01*
X98459526Y-130162306D02*
X98459526Y-130257544D01*
X98459526Y-130257544D02*
X98507146Y-130352782D01*
X98507146Y-130352782D02*
X98554765Y-130400401D01*
X98554765Y-130400401D02*
X98650003Y-130448020D01*
X98650003Y-130448020D02*
X98840479Y-130495639D01*
X98840479Y-130495639D02*
X99078574Y-130495639D01*
X99078574Y-130495639D02*
X99269050Y-130448020D01*
X99269050Y-130448020D02*
X99364288Y-130400401D01*
X99364288Y-130400401D02*
X99411907Y-130352782D01*
X99411907Y-130352782D02*
X99459526Y-130257544D01*
X106295241Y-131352782D02*
X106295241Y-130876592D01*
X106009526Y-131448020D02*
X107009526Y-131114687D01*
X107009526Y-131114687D02*
X106009526Y-130781354D01*
X107009526Y-130543258D02*
X107009526Y-129924211D01*
X107009526Y-129924211D02*
X106628574Y-130257544D01*
X106628574Y-130257544D02*
X106628574Y-130114687D01*
X106628574Y-130114687D02*
X106580955Y-130019449D01*
X106580955Y-130019449D02*
X106533336Y-129971830D01*
X106533336Y-129971830D02*
X106438098Y-129924211D01*
X106438098Y-129924211D02*
X106200003Y-129924211D01*
X106200003Y-129924211D02*
X106104765Y-129971830D01*
X106104765Y-129971830D02*
X106057146Y-130019449D01*
X106057146Y-130019449D02*
X106009526Y-130114687D01*
X106009526Y-130114687D02*
X106009526Y-130400401D01*
X106009526Y-130400401D02*
X106057146Y-130495639D01*
X106057146Y-130495639D02*
X106104765Y-130543258D01*
X126695260Y-131352782D02*
X126695260Y-130876592D01*
X126409545Y-131448020D02*
X127409545Y-131114687D01*
X127409545Y-131114687D02*
X126409545Y-130781354D01*
X126980974Y-130305163D02*
X127028593Y-130400401D01*
X127028593Y-130400401D02*
X127076212Y-130448020D01*
X127076212Y-130448020D02*
X127171450Y-130495639D01*
X127171450Y-130495639D02*
X127219069Y-130495639D01*
X127219069Y-130495639D02*
X127314307Y-130448020D01*
X127314307Y-130448020D02*
X127361926Y-130400401D01*
X127361926Y-130400401D02*
X127409545Y-130305163D01*
X127409545Y-130305163D02*
X127409545Y-130114687D01*
X127409545Y-130114687D02*
X127361926Y-130019449D01*
X127361926Y-130019449D02*
X127314307Y-129971830D01*
X127314307Y-129971830D02*
X127219069Y-129924211D01*
X127219069Y-129924211D02*
X127171450Y-129924211D01*
X127171450Y-129924211D02*
X127076212Y-129971830D01*
X127076212Y-129971830D02*
X127028593Y-130019449D01*
X127028593Y-130019449D02*
X126980974Y-130114687D01*
X126980974Y-130114687D02*
X126980974Y-130305163D01*
X126980974Y-130305163D02*
X126933355Y-130400401D01*
X126933355Y-130400401D02*
X126885736Y-130448020D01*
X126885736Y-130448020D02*
X126790498Y-130495639D01*
X126790498Y-130495639D02*
X126600022Y-130495639D01*
X126600022Y-130495639D02*
X126504784Y-130448020D01*
X126504784Y-130448020D02*
X126457165Y-130400401D01*
X126457165Y-130400401D02*
X126409545Y-130305163D01*
X126409545Y-130305163D02*
X126409545Y-130114687D01*
X126409545Y-130114687D02*
X126457165Y-130019449D01*
X126457165Y-130019449D02*
X126504784Y-129971830D01*
X126504784Y-129971830D02*
X126600022Y-129924211D01*
X126600022Y-129924211D02*
X126790498Y-129924211D01*
X126790498Y-129924211D02*
X126885736Y-129971830D01*
X126885736Y-129971830D02*
X126933355Y-130019449D01*
X126933355Y-130019449D02*
X126980974Y-130114687D01*
X118895260Y-131352782D02*
X118895260Y-130876592D01*
X118609545Y-131448020D02*
X119609545Y-131114687D01*
X119609545Y-131114687D02*
X118609545Y-130781354D01*
X118609545Y-129924211D02*
X118609545Y-130495639D01*
X118609545Y-130209925D02*
X119609545Y-130209925D01*
X119609545Y-130209925D02*
X119466688Y-130305163D01*
X119466688Y-130305163D02*
X119371450Y-130400401D01*
X119371450Y-130400401D02*
X119323831Y-130495639D01*
X118609545Y-128971830D02*
X118609545Y-129543258D01*
X118609545Y-129257544D02*
X119609545Y-129257544D01*
X119609545Y-129257544D02*
X119466688Y-129352782D01*
X119466688Y-129352782D02*
X119371450Y-129448020D01*
X119371450Y-129448020D02*
X119323831Y-129543258D01*
X103795241Y-131352782D02*
X103795241Y-130876592D01*
X103509526Y-131448020D02*
X104509526Y-131114687D01*
X104509526Y-131114687D02*
X103509526Y-130781354D01*
X104414288Y-130495639D02*
X104461907Y-130448020D01*
X104461907Y-130448020D02*
X104509526Y-130352782D01*
X104509526Y-130352782D02*
X104509526Y-130114687D01*
X104509526Y-130114687D02*
X104461907Y-130019449D01*
X104461907Y-130019449D02*
X104414288Y-129971830D01*
X104414288Y-129971830D02*
X104319050Y-129924211D01*
X104319050Y-129924211D02*
X104223812Y-129924211D01*
X104223812Y-129924211D02*
X104080955Y-129971830D01*
X104080955Y-129971830D02*
X103509526Y-130543258D01*
X103509526Y-130543258D02*
X103509526Y-129924211D01*
X136660673Y-131352782D02*
X136660673Y-130876592D01*
X136374958Y-131448020D02*
X137374958Y-131114687D01*
X137374958Y-131114687D02*
X136374958Y-130781354D01*
X137041625Y-130019449D02*
X136374958Y-130019449D01*
X137422578Y-130257544D02*
X136708292Y-130495639D01*
X136708292Y-130495639D02*
X136708292Y-129876592D01*
X131674253Y-131352782D02*
X131674253Y-130876592D01*
X131388538Y-131448020D02*
X132388538Y-131114687D01*
X132388538Y-131114687D02*
X131388538Y-130781354D01*
X132388538Y-130019449D02*
X132388538Y-130209925D01*
X132388538Y-130209925D02*
X132340919Y-130305163D01*
X132340919Y-130305163D02*
X132293300Y-130352782D01*
X132293300Y-130352782D02*
X132150443Y-130448020D01*
X132150443Y-130448020D02*
X131959967Y-130495639D01*
X131959967Y-130495639D02*
X131579015Y-130495639D01*
X131579015Y-130495639D02*
X131483777Y-130448020D01*
X131483777Y-130448020D02*
X131436158Y-130400401D01*
X131436158Y-130400401D02*
X131388538Y-130305163D01*
X131388538Y-130305163D02*
X131388538Y-130114687D01*
X131388538Y-130114687D02*
X131436158Y-130019449D01*
X131436158Y-130019449D02*
X131483777Y-129971830D01*
X131483777Y-129971830D02*
X131579015Y-129924211D01*
X131579015Y-129924211D02*
X131817110Y-129924211D01*
X131817110Y-129924211D02*
X131912348Y-129971830D01*
X131912348Y-129971830D02*
X131959967Y-130019449D01*
X131959967Y-130019449D02*
X132007586Y-130114687D01*
X132007586Y-130114687D02*
X132007586Y-130305163D01*
X132007586Y-130305163D02*
X131959967Y-130400401D01*
X131959967Y-130400401D02*
X131912348Y-130448020D01*
X131912348Y-130448020D02*
X131817110Y-130495639D01*
X134167463Y-131352782D02*
X134167463Y-130876592D01*
X133881748Y-131448020D02*
X134881748Y-131114687D01*
X134881748Y-131114687D02*
X133881748Y-130781354D01*
X134881748Y-129971830D02*
X134881748Y-130448020D01*
X134881748Y-130448020D02*
X134405558Y-130495639D01*
X134405558Y-130495639D02*
X134453177Y-130448020D01*
X134453177Y-130448020D02*
X134500796Y-130352782D01*
X134500796Y-130352782D02*
X134500796Y-130114687D01*
X134500796Y-130114687D02*
X134453177Y-130019449D01*
X134453177Y-130019449D02*
X134405558Y-129971830D01*
X134405558Y-129971830D02*
X134310320Y-129924211D01*
X134310320Y-129924211D02*
X134072225Y-129924211D01*
X134072225Y-129924211D02*
X133976987Y-129971830D01*
X133976987Y-129971830D02*
X133929368Y-130019449D01*
X133929368Y-130019449D02*
X133881748Y-130114687D01*
X133881748Y-130114687D02*
X133881748Y-130352782D01*
X133881748Y-130352782D02*
X133929368Y-130448020D01*
X133929368Y-130448020D02*
X133976987Y-130495639D01*
X96054765Y-130733735D02*
X96007146Y-130781354D01*
X96007146Y-130781354D02*
X95959526Y-130924211D01*
X95959526Y-130924211D02*
X95959526Y-131019449D01*
X95959526Y-131019449D02*
X96007146Y-131162306D01*
X96007146Y-131162306D02*
X96102384Y-131257544D01*
X96102384Y-131257544D02*
X96197622Y-131305163D01*
X96197622Y-131305163D02*
X96388098Y-131352782D01*
X96388098Y-131352782D02*
X96530955Y-131352782D01*
X96530955Y-131352782D02*
X96721431Y-131305163D01*
X96721431Y-131305163D02*
X96816669Y-131257544D01*
X96816669Y-131257544D02*
X96911907Y-131162306D01*
X96911907Y-131162306D02*
X96959526Y-131019449D01*
X96959526Y-131019449D02*
X96959526Y-130924211D01*
X96959526Y-130924211D02*
X96911907Y-130781354D01*
X96911907Y-130781354D02*
X96864288Y-130733735D01*
X95959526Y-129828973D02*
X95959526Y-130305163D01*
X95959526Y-130305163D02*
X96959526Y-130305163D01*
X95959526Y-129495639D02*
X96959526Y-129495639D01*
X95959526Y-128924211D02*
X96530955Y-129352782D01*
X96959526Y-128924211D02*
X96388098Y-129495639D01*
M02*
