M48
; DRILL file {KiCad 8.0.1} date 2024-04-15T14:43:52+0200
; FORMAT={-:-/ absolute / inch / decimal}
; #@! TF.CreationDate,2024-04-15T14:43:52+02:00
; #@! TF.GenerationSoftware,Kicad,Pcbnew,8.0.1
; #@! TF.FileFunction,Plated,1,2,PTH
FMAT,2
INCH
; #@! TA.AperFunction,Plated,PTH,ViaDrill
T1C0.0118
; #@! TA.AperFunction,Plated,PTH,ComponentDrill
T2C0.0394
%
G90
G05
T1
X3.5856Y-4.8846
X3.6439Y-4.5445
X3.7035Y-5.1736
X3.7957Y-5.1899
X3.902Y-5.0129
X4.0239Y-5.1861
X4.1192Y-5.1807
X4.2016Y-5.19
X4.3101Y-5.1898
X4.3436Y-3.7602
X4.4437Y-3.752
X4.5434Y-3.7523
X4.6425Y-3.7513
X4.7432Y-3.7515
X4.8433Y-3.7513
X4.9433Y-3.7513
X4.9731Y-4.3017
X4.9734Y-4.5047
X5.2082Y-4.9057
T2
X3.2957Y-4.2425
X3.2957Y-4.4425
X3.3957Y-4.2425
X3.3957Y-4.4425
X3.5957Y-4.2425
X3.5957Y-4.4425
X3.6957Y-4.2425
X3.6957Y-4.4425
X3.7957Y-4.2425
X3.7957Y-4.4425
X3.8957Y-4.2425
X3.8957Y-4.4425
X3.9957Y-4.2425
X3.9957Y-4.4425
X4.0957Y-4.2425
X4.0957Y-4.4425
X4.1957Y-4.2425
X4.1957Y-4.4425
X4.2957Y-4.2425
X4.2957Y-4.4425
X4.3957Y-4.2425
X4.3957Y-4.4425
X4.4957Y-4.2425
X4.4957Y-4.4425
X4.5957Y-4.2425
X4.5957Y-4.4425
X4.6957Y-4.2425
X4.6957Y-4.4425
X4.7957Y-4.2425
X4.7957Y-4.4425
X4.8957Y-4.2425
X4.8957Y-4.4425
X4.9957Y-4.2425
X4.9957Y-4.4425
X5.0957Y-4.2425
X5.0957Y-4.4425
X5.1957Y-4.2425
X5.1957Y-4.4425
X5.2957Y-4.2425
X5.2957Y-4.4425
X5.3957Y-4.2425
X5.3957Y-4.4425
X5.4957Y-4.2425
X5.4957Y-4.4425
M30
