%TF.GenerationSoftware,KiCad,Pcbnew,8.0.1*%
%TF.CreationDate,2024-04-15T14:43:50+02:00*%
%TF.ProjectId,zx81-bus-extender,7a783831-2d62-4757-932d-657874656e64,rev?*%
%TF.SameCoordinates,Original*%
%TF.FileFunction,Legend,Top*%
%TF.FilePolarity,Positive*%
%FSLAX46Y46*%
G04 Gerber Fmt 4.6, Leading zero omitted, Abs format (unit mm)*
G04 Created by KiCad (PCBNEW 8.0.1) date 2024-04-15 14:43:50*
%MOMM*%
%LPD*%
G01*
G04 APERTURE LIST*
%ADD10C,0.100000*%
%ADD11C,0.150000*%
%ADD12C,0.120000*%
G04 APERTURE END LIST*
D10*
X93488646Y-124832419D02*
X94155312Y-124832419D01*
X94155312Y-124832419D02*
X93488646Y-125832419D01*
X93488646Y-125832419D02*
X94155312Y-125832419D01*
X94441027Y-124832419D02*
X95107693Y-125832419D01*
X95107693Y-124832419D02*
X94441027Y-125832419D01*
X95631503Y-125260990D02*
X95536265Y-125213371D01*
X95536265Y-125213371D02*
X95488646Y-125165752D01*
X95488646Y-125165752D02*
X95441027Y-125070514D01*
X95441027Y-125070514D02*
X95441027Y-125022895D01*
X95441027Y-125022895D02*
X95488646Y-124927657D01*
X95488646Y-124927657D02*
X95536265Y-124880038D01*
X95536265Y-124880038D02*
X95631503Y-124832419D01*
X95631503Y-124832419D02*
X95821979Y-124832419D01*
X95821979Y-124832419D02*
X95917217Y-124880038D01*
X95917217Y-124880038D02*
X95964836Y-124927657D01*
X95964836Y-124927657D02*
X96012455Y-125022895D01*
X96012455Y-125022895D02*
X96012455Y-125070514D01*
X96012455Y-125070514D02*
X95964836Y-125165752D01*
X95964836Y-125165752D02*
X95917217Y-125213371D01*
X95917217Y-125213371D02*
X95821979Y-125260990D01*
X95821979Y-125260990D02*
X95631503Y-125260990D01*
X95631503Y-125260990D02*
X95536265Y-125308609D01*
X95536265Y-125308609D02*
X95488646Y-125356228D01*
X95488646Y-125356228D02*
X95441027Y-125451466D01*
X95441027Y-125451466D02*
X95441027Y-125641942D01*
X95441027Y-125641942D02*
X95488646Y-125737180D01*
X95488646Y-125737180D02*
X95536265Y-125784800D01*
X95536265Y-125784800D02*
X95631503Y-125832419D01*
X95631503Y-125832419D02*
X95821979Y-125832419D01*
X95821979Y-125832419D02*
X95917217Y-125784800D01*
X95917217Y-125784800D02*
X95964836Y-125737180D01*
X95964836Y-125737180D02*
X96012455Y-125641942D01*
X96012455Y-125641942D02*
X96012455Y-125451466D01*
X96012455Y-125451466D02*
X95964836Y-125356228D01*
X95964836Y-125356228D02*
X95917217Y-125308609D01*
X95917217Y-125308609D02*
X95821979Y-125260990D01*
X96964836Y-125832419D02*
X96393408Y-125832419D01*
X96679122Y-125832419D02*
X96679122Y-124832419D01*
X96679122Y-124832419D02*
X96583884Y-124975276D01*
X96583884Y-124975276D02*
X96488646Y-125070514D01*
X96488646Y-125070514D02*
X96393408Y-125118133D01*
X98155313Y-125308609D02*
X98488646Y-125308609D01*
X98631503Y-125832419D02*
X98155313Y-125832419D01*
X98155313Y-125832419D02*
X98155313Y-124832419D01*
X98155313Y-124832419D02*
X98631503Y-124832419D01*
X98964837Y-125832419D02*
X99488646Y-125165752D01*
X98964837Y-125165752D02*
X99488646Y-125832419D01*
X99869599Y-125165752D02*
X99869599Y-126165752D01*
X99869599Y-125213371D02*
X99964837Y-125165752D01*
X99964837Y-125165752D02*
X100155313Y-125165752D01*
X100155313Y-125165752D02*
X100250551Y-125213371D01*
X100250551Y-125213371D02*
X100298170Y-125260990D01*
X100298170Y-125260990D02*
X100345789Y-125356228D01*
X100345789Y-125356228D02*
X100345789Y-125641942D01*
X100345789Y-125641942D02*
X100298170Y-125737180D01*
X100298170Y-125737180D02*
X100250551Y-125784800D01*
X100250551Y-125784800D02*
X100155313Y-125832419D01*
X100155313Y-125832419D02*
X99964837Y-125832419D01*
X99964837Y-125832419D02*
X99869599Y-125784800D01*
X101202932Y-125832419D02*
X101202932Y-125308609D01*
X101202932Y-125308609D02*
X101155313Y-125213371D01*
X101155313Y-125213371D02*
X101060075Y-125165752D01*
X101060075Y-125165752D02*
X100869599Y-125165752D01*
X100869599Y-125165752D02*
X100774361Y-125213371D01*
X101202932Y-125784800D02*
X101107694Y-125832419D01*
X101107694Y-125832419D02*
X100869599Y-125832419D01*
X100869599Y-125832419D02*
X100774361Y-125784800D01*
X100774361Y-125784800D02*
X100726742Y-125689561D01*
X100726742Y-125689561D02*
X100726742Y-125594323D01*
X100726742Y-125594323D02*
X100774361Y-125499085D01*
X100774361Y-125499085D02*
X100869599Y-125451466D01*
X100869599Y-125451466D02*
X101107694Y-125451466D01*
X101107694Y-125451466D02*
X101202932Y-125403847D01*
X101679123Y-125165752D02*
X101679123Y-125832419D01*
X101679123Y-125260990D02*
X101726742Y-125213371D01*
X101726742Y-125213371D02*
X101821980Y-125165752D01*
X101821980Y-125165752D02*
X101964837Y-125165752D01*
X101964837Y-125165752D02*
X102060075Y-125213371D01*
X102060075Y-125213371D02*
X102107694Y-125308609D01*
X102107694Y-125308609D02*
X102107694Y-125832419D01*
X102536266Y-125784800D02*
X102631504Y-125832419D01*
X102631504Y-125832419D02*
X102821980Y-125832419D01*
X102821980Y-125832419D02*
X102917218Y-125784800D01*
X102917218Y-125784800D02*
X102964837Y-125689561D01*
X102964837Y-125689561D02*
X102964837Y-125641942D01*
X102964837Y-125641942D02*
X102917218Y-125546704D01*
X102917218Y-125546704D02*
X102821980Y-125499085D01*
X102821980Y-125499085D02*
X102679123Y-125499085D01*
X102679123Y-125499085D02*
X102583885Y-125451466D01*
X102583885Y-125451466D02*
X102536266Y-125356228D01*
X102536266Y-125356228D02*
X102536266Y-125308609D01*
X102536266Y-125308609D02*
X102583885Y-125213371D01*
X102583885Y-125213371D02*
X102679123Y-125165752D01*
X102679123Y-125165752D02*
X102821980Y-125165752D01*
X102821980Y-125165752D02*
X102917218Y-125213371D01*
X103393409Y-125832419D02*
X103393409Y-125165752D01*
X103393409Y-124832419D02*
X103345790Y-124880038D01*
X103345790Y-124880038D02*
X103393409Y-124927657D01*
X103393409Y-124927657D02*
X103441028Y-124880038D01*
X103441028Y-124880038D02*
X103393409Y-124832419D01*
X103393409Y-124832419D02*
X103393409Y-124927657D01*
X104012456Y-125832419D02*
X103917218Y-125784800D01*
X103917218Y-125784800D02*
X103869599Y-125737180D01*
X103869599Y-125737180D02*
X103821980Y-125641942D01*
X103821980Y-125641942D02*
X103821980Y-125356228D01*
X103821980Y-125356228D02*
X103869599Y-125260990D01*
X103869599Y-125260990D02*
X103917218Y-125213371D01*
X103917218Y-125213371D02*
X104012456Y-125165752D01*
X104012456Y-125165752D02*
X104155313Y-125165752D01*
X104155313Y-125165752D02*
X104250551Y-125213371D01*
X104250551Y-125213371D02*
X104298170Y-125260990D01*
X104298170Y-125260990D02*
X104345789Y-125356228D01*
X104345789Y-125356228D02*
X104345789Y-125641942D01*
X104345789Y-125641942D02*
X104298170Y-125737180D01*
X104298170Y-125737180D02*
X104250551Y-125784800D01*
X104250551Y-125784800D02*
X104155313Y-125832419D01*
X104155313Y-125832419D02*
X104012456Y-125832419D01*
X104774361Y-125165752D02*
X104774361Y-125832419D01*
X104774361Y-125260990D02*
X104821980Y-125213371D01*
X104821980Y-125213371D02*
X104917218Y-125165752D01*
X104917218Y-125165752D02*
X105060075Y-125165752D01*
X105060075Y-125165752D02*
X105155313Y-125213371D01*
X105155313Y-125213371D02*
X105202932Y-125308609D01*
X105202932Y-125308609D02*
X105202932Y-125832419D01*
X106441028Y-125165752D02*
X106441028Y-126165752D01*
X106441028Y-125213371D02*
X106536266Y-125165752D01*
X106536266Y-125165752D02*
X106726742Y-125165752D01*
X106726742Y-125165752D02*
X106821980Y-125213371D01*
X106821980Y-125213371D02*
X106869599Y-125260990D01*
X106869599Y-125260990D02*
X106917218Y-125356228D01*
X106917218Y-125356228D02*
X106917218Y-125641942D01*
X106917218Y-125641942D02*
X106869599Y-125737180D01*
X106869599Y-125737180D02*
X106821980Y-125784800D01*
X106821980Y-125784800D02*
X106726742Y-125832419D01*
X106726742Y-125832419D02*
X106536266Y-125832419D01*
X106536266Y-125832419D02*
X106441028Y-125784800D01*
X107488647Y-125832419D02*
X107393409Y-125784800D01*
X107393409Y-125784800D02*
X107345790Y-125737180D01*
X107345790Y-125737180D02*
X107298171Y-125641942D01*
X107298171Y-125641942D02*
X107298171Y-125356228D01*
X107298171Y-125356228D02*
X107345790Y-125260990D01*
X107345790Y-125260990D02*
X107393409Y-125213371D01*
X107393409Y-125213371D02*
X107488647Y-125165752D01*
X107488647Y-125165752D02*
X107631504Y-125165752D01*
X107631504Y-125165752D02*
X107726742Y-125213371D01*
X107726742Y-125213371D02*
X107774361Y-125260990D01*
X107774361Y-125260990D02*
X107821980Y-125356228D01*
X107821980Y-125356228D02*
X107821980Y-125641942D01*
X107821980Y-125641942D02*
X107774361Y-125737180D01*
X107774361Y-125737180D02*
X107726742Y-125784800D01*
X107726742Y-125784800D02*
X107631504Y-125832419D01*
X107631504Y-125832419D02*
X107488647Y-125832419D01*
X108250552Y-125832419D02*
X108250552Y-125165752D01*
X108250552Y-125356228D02*
X108298171Y-125260990D01*
X108298171Y-125260990D02*
X108345790Y-125213371D01*
X108345790Y-125213371D02*
X108441028Y-125165752D01*
X108441028Y-125165752D02*
X108536266Y-125165752D01*
X108726743Y-125165752D02*
X109107695Y-125165752D01*
X108869600Y-124832419D02*
X108869600Y-125689561D01*
X108869600Y-125689561D02*
X108917219Y-125784800D01*
X108917219Y-125784800D02*
X109012457Y-125832419D01*
X109012457Y-125832419D02*
X109107695Y-125832419D01*
X110202934Y-125308609D02*
X110536267Y-125308609D01*
X110679124Y-125832419D02*
X110202934Y-125832419D01*
X110202934Y-125832419D02*
X110202934Y-124832419D01*
X110202934Y-124832419D02*
X110679124Y-124832419D01*
X111012458Y-125832419D02*
X111536267Y-125165752D01*
X111012458Y-125165752D02*
X111536267Y-125832419D01*
X111774363Y-125165752D02*
X112155315Y-125165752D01*
X111917220Y-124832419D02*
X111917220Y-125689561D01*
X111917220Y-125689561D02*
X111964839Y-125784800D01*
X111964839Y-125784800D02*
X112060077Y-125832419D01*
X112060077Y-125832419D02*
X112155315Y-125832419D01*
X112869601Y-125784800D02*
X112774363Y-125832419D01*
X112774363Y-125832419D02*
X112583887Y-125832419D01*
X112583887Y-125832419D02*
X112488649Y-125784800D01*
X112488649Y-125784800D02*
X112441030Y-125689561D01*
X112441030Y-125689561D02*
X112441030Y-125308609D01*
X112441030Y-125308609D02*
X112488649Y-125213371D01*
X112488649Y-125213371D02*
X112583887Y-125165752D01*
X112583887Y-125165752D02*
X112774363Y-125165752D01*
X112774363Y-125165752D02*
X112869601Y-125213371D01*
X112869601Y-125213371D02*
X112917220Y-125308609D01*
X112917220Y-125308609D02*
X112917220Y-125403847D01*
X112917220Y-125403847D02*
X112441030Y-125499085D01*
X113345792Y-125165752D02*
X113345792Y-125832419D01*
X113345792Y-125260990D02*
X113393411Y-125213371D01*
X113393411Y-125213371D02*
X113488649Y-125165752D01*
X113488649Y-125165752D02*
X113631506Y-125165752D01*
X113631506Y-125165752D02*
X113726744Y-125213371D01*
X113726744Y-125213371D02*
X113774363Y-125308609D01*
X113774363Y-125308609D02*
X113774363Y-125832419D01*
X114679125Y-125832419D02*
X114679125Y-124832419D01*
X114679125Y-125784800D02*
X114583887Y-125832419D01*
X114583887Y-125832419D02*
X114393411Y-125832419D01*
X114393411Y-125832419D02*
X114298173Y-125784800D01*
X114298173Y-125784800D02*
X114250554Y-125737180D01*
X114250554Y-125737180D02*
X114202935Y-125641942D01*
X114202935Y-125641942D02*
X114202935Y-125356228D01*
X114202935Y-125356228D02*
X114250554Y-125260990D01*
X114250554Y-125260990D02*
X114298173Y-125213371D01*
X114298173Y-125213371D02*
X114393411Y-125165752D01*
X114393411Y-125165752D02*
X114583887Y-125165752D01*
X114583887Y-125165752D02*
X114679125Y-125213371D01*
X115536268Y-125784800D02*
X115441030Y-125832419D01*
X115441030Y-125832419D02*
X115250554Y-125832419D01*
X115250554Y-125832419D02*
X115155316Y-125784800D01*
X115155316Y-125784800D02*
X115107697Y-125689561D01*
X115107697Y-125689561D02*
X115107697Y-125308609D01*
X115107697Y-125308609D02*
X115155316Y-125213371D01*
X115155316Y-125213371D02*
X115250554Y-125165752D01*
X115250554Y-125165752D02*
X115441030Y-125165752D01*
X115441030Y-125165752D02*
X115536268Y-125213371D01*
X115536268Y-125213371D02*
X115583887Y-125308609D01*
X115583887Y-125308609D02*
X115583887Y-125403847D01*
X115583887Y-125403847D02*
X115107697Y-125499085D01*
X116012459Y-125832419D02*
X116012459Y-125165752D01*
X116012459Y-125356228D02*
X116060078Y-125260990D01*
X116060078Y-125260990D02*
X116107697Y-125213371D01*
X116107697Y-125213371D02*
X116202935Y-125165752D01*
X116202935Y-125165752D02*
X116298173Y-125165752D01*
X117298174Y-125165752D02*
X117536269Y-125832419D01*
X117536269Y-125832419D02*
X117774364Y-125165752D01*
X118679126Y-125832419D02*
X118107698Y-125832419D01*
X118393412Y-125832419D02*
X118393412Y-124832419D01*
X118393412Y-124832419D02*
X118298174Y-124975276D01*
X118298174Y-124975276D02*
X118202936Y-125070514D01*
X118202936Y-125070514D02*
X118107698Y-125118133D01*
X119107698Y-125737180D02*
X119155317Y-125784800D01*
X119155317Y-125784800D02*
X119107698Y-125832419D01*
X119107698Y-125832419D02*
X119060079Y-125784800D01*
X119060079Y-125784800D02*
X119107698Y-125737180D01*
X119107698Y-125737180D02*
X119107698Y-125832419D01*
X119774364Y-124832419D02*
X119869602Y-124832419D01*
X119869602Y-124832419D02*
X119964840Y-124880038D01*
X119964840Y-124880038D02*
X120012459Y-124927657D01*
X120012459Y-124927657D02*
X120060078Y-125022895D01*
X120060078Y-125022895D02*
X120107697Y-125213371D01*
X120107697Y-125213371D02*
X120107697Y-125451466D01*
X120107697Y-125451466D02*
X120060078Y-125641942D01*
X120060078Y-125641942D02*
X120012459Y-125737180D01*
X120012459Y-125737180D02*
X119964840Y-125784800D01*
X119964840Y-125784800D02*
X119869602Y-125832419D01*
X119869602Y-125832419D02*
X119774364Y-125832419D01*
X119774364Y-125832419D02*
X119679126Y-125784800D01*
X119679126Y-125784800D02*
X119631507Y-125737180D01*
X119631507Y-125737180D02*
X119583888Y-125641942D01*
X119583888Y-125641942D02*
X119536269Y-125451466D01*
X119536269Y-125451466D02*
X119536269Y-125213371D01*
X119536269Y-125213371D02*
X119583888Y-125022895D01*
X119583888Y-125022895D02*
X119631507Y-124927657D01*
X119631507Y-124927657D02*
X119679126Y-124880038D01*
X119679126Y-124880038D02*
X119774364Y-124832419D01*
X94344961Y-103831979D02*
X94392580Y-103736741D01*
X94392580Y-103736741D02*
X94392580Y-103593884D01*
X94392580Y-103593884D02*
X94344961Y-103451027D01*
X94344961Y-103451027D02*
X94249723Y-103355789D01*
X94249723Y-103355789D02*
X94154485Y-103308170D01*
X94154485Y-103308170D02*
X93964009Y-103260551D01*
X93964009Y-103260551D02*
X93821152Y-103260551D01*
X93821152Y-103260551D02*
X93630676Y-103308170D01*
X93630676Y-103308170D02*
X93535438Y-103355789D01*
X93535438Y-103355789D02*
X93440200Y-103451027D01*
X93440200Y-103451027D02*
X93392580Y-103593884D01*
X93392580Y-103593884D02*
X93392580Y-103689122D01*
X93392580Y-103689122D02*
X93440200Y-103831979D01*
X93440200Y-103831979D02*
X93487819Y-103879598D01*
X93487819Y-103879598D02*
X93821152Y-103879598D01*
X93821152Y-103879598D02*
X93821152Y-103689122D01*
X93392580Y-104308170D02*
X94392580Y-104308170D01*
X94392580Y-104308170D02*
X93392580Y-104879598D01*
X93392580Y-104879598D02*
X94392580Y-104879598D01*
X93392580Y-105355789D02*
X94392580Y-105355789D01*
X94392580Y-105355789D02*
X94392580Y-105593884D01*
X94392580Y-105593884D02*
X94344961Y-105736741D01*
X94344961Y-105736741D02*
X94249723Y-105831979D01*
X94249723Y-105831979D02*
X94154485Y-105879598D01*
X94154485Y-105879598D02*
X93964009Y-105927217D01*
X93964009Y-105927217D02*
X93821152Y-105927217D01*
X93821152Y-105927217D02*
X93630676Y-105879598D01*
X93630676Y-105879598D02*
X93535438Y-105831979D01*
X93535438Y-105831979D02*
X93440200Y-105736741D01*
X93440200Y-105736741D02*
X93392580Y-105593884D01*
X93392580Y-105593884D02*
X93392580Y-105355789D01*
X120007419Y-117962305D02*
X119007419Y-117962305D01*
X119007419Y-117295639D02*
X119007419Y-117105163D01*
X119007419Y-117105163D02*
X119055038Y-117009925D01*
X119055038Y-117009925D02*
X119150276Y-116914687D01*
X119150276Y-116914687D02*
X119340752Y-116867068D01*
X119340752Y-116867068D02*
X119674085Y-116867068D01*
X119674085Y-116867068D02*
X119864561Y-116914687D01*
X119864561Y-116914687D02*
X119959800Y-117009925D01*
X119959800Y-117009925D02*
X120007419Y-117105163D01*
X120007419Y-117105163D02*
X120007419Y-117295639D01*
X120007419Y-117295639D02*
X119959800Y-117390877D01*
X119959800Y-117390877D02*
X119864561Y-117486115D01*
X119864561Y-117486115D02*
X119674085Y-117533734D01*
X119674085Y-117533734D02*
X119340752Y-117533734D01*
X119340752Y-117533734D02*
X119150276Y-117486115D01*
X119150276Y-117486115D02*
X119055038Y-117390877D01*
X119055038Y-117390877D02*
X119007419Y-117295639D01*
X120007419Y-115867068D02*
X119531228Y-116200401D01*
X120007419Y-116438496D02*
X119007419Y-116438496D01*
X119007419Y-116438496D02*
X119007419Y-116057544D01*
X119007419Y-116057544D02*
X119055038Y-115962306D01*
X119055038Y-115962306D02*
X119102657Y-115914687D01*
X119102657Y-115914687D02*
X119197895Y-115867068D01*
X119197895Y-115867068D02*
X119340752Y-115867068D01*
X119340752Y-115867068D02*
X119435990Y-115914687D01*
X119435990Y-115914687D02*
X119483609Y-115962306D01*
X119483609Y-115962306D02*
X119531228Y-116057544D01*
X119531228Y-116057544D02*
X119531228Y-116438496D01*
X120102657Y-114771830D02*
X120055038Y-114867068D01*
X120055038Y-114867068D02*
X119959800Y-114962306D01*
X119959800Y-114962306D02*
X119816942Y-115105163D01*
X119816942Y-115105163D02*
X119769323Y-115200401D01*
X119769323Y-115200401D02*
X119769323Y-115295639D01*
X120007419Y-115248020D02*
X119959800Y-115343258D01*
X119959800Y-115343258D02*
X119864561Y-115438496D01*
X119864561Y-115438496D02*
X119674085Y-115486115D01*
X119674085Y-115486115D02*
X119340752Y-115486115D01*
X119340752Y-115486115D02*
X119150276Y-115438496D01*
X119150276Y-115438496D02*
X119055038Y-115343258D01*
X119055038Y-115343258D02*
X119007419Y-115248020D01*
X119007419Y-115248020D02*
X119007419Y-115057544D01*
X119007419Y-115057544D02*
X119055038Y-114962306D01*
X119055038Y-114962306D02*
X119150276Y-114867068D01*
X119150276Y-114867068D02*
X119340752Y-114819449D01*
X119340752Y-114819449D02*
X119674085Y-114819449D01*
X119674085Y-114819449D02*
X119864561Y-114867068D01*
X119864561Y-114867068D02*
X119959800Y-114962306D01*
X119959800Y-114962306D02*
X120007419Y-115057544D01*
X120007419Y-115057544D02*
X120007419Y-115248020D01*
X118729800Y-118100401D02*
X118729800Y-114728973D01*
X101328295Y-104498646D02*
X101328295Y-104974836D01*
X101042580Y-104403408D02*
X102042580Y-104736741D01*
X102042580Y-104736741D02*
X101042580Y-105070074D01*
X101042580Y-105927217D02*
X101042580Y-105355789D01*
X101042580Y-105641503D02*
X102042580Y-105641503D01*
X102042580Y-105641503D02*
X101899723Y-105546265D01*
X101899723Y-105546265D02*
X101804485Y-105451027D01*
X101804485Y-105451027D02*
X101756866Y-105355789D01*
X129628295Y-104498646D02*
X129628295Y-104974836D01*
X129342580Y-104403408D02*
X130342580Y-104736741D01*
X130342580Y-104736741D02*
X129342580Y-105070074D01*
X130342580Y-105308170D02*
X130342580Y-105974836D01*
X130342580Y-105974836D02*
X129342580Y-105546265D01*
X131928295Y-104498646D02*
X131928295Y-104974836D01*
X131642580Y-104403408D02*
X132642580Y-104736741D01*
X132642580Y-104736741D02*
X131642580Y-105070074D01*
X132642580Y-105831979D02*
X132642580Y-105641503D01*
X132642580Y-105641503D02*
X132594961Y-105546265D01*
X132594961Y-105546265D02*
X132547342Y-105498646D01*
X132547342Y-105498646D02*
X132404485Y-105403408D01*
X132404485Y-105403408D02*
X132214009Y-105355789D01*
X132214009Y-105355789D02*
X131833057Y-105355789D01*
X131833057Y-105355789D02*
X131737819Y-105403408D01*
X131737819Y-105403408D02*
X131690200Y-105451027D01*
X131690200Y-105451027D02*
X131642580Y-105546265D01*
X131642580Y-105546265D02*
X131642580Y-105736741D01*
X131642580Y-105736741D02*
X131690200Y-105831979D01*
X131690200Y-105831979D02*
X131737819Y-105879598D01*
X131737819Y-105879598D02*
X131833057Y-105927217D01*
X131833057Y-105927217D02*
X132071152Y-105927217D01*
X132071152Y-105927217D02*
X132166390Y-105879598D01*
X132166390Y-105879598D02*
X132214009Y-105831979D01*
X132214009Y-105831979D02*
X132261628Y-105736741D01*
X132261628Y-105736741D02*
X132261628Y-105546265D01*
X132261628Y-105546265D02*
X132214009Y-105451027D01*
X132214009Y-105451027D02*
X132166390Y-105403408D01*
X132166390Y-105403408D02*
X132071152Y-105355789D01*
X84364527Y-116343258D02*
X83364527Y-116343258D01*
X83364527Y-116343258D02*
X83364527Y-116105163D01*
X83364527Y-116105163D02*
X83412146Y-115962306D01*
X83412146Y-115962306D02*
X83507384Y-115867068D01*
X83507384Y-115867068D02*
X83602622Y-115819449D01*
X83602622Y-115819449D02*
X83793098Y-115771830D01*
X83793098Y-115771830D02*
X83935955Y-115771830D01*
X83935955Y-115771830D02*
X84126431Y-115819449D01*
X84126431Y-115819449D02*
X84221669Y-115867068D01*
X84221669Y-115867068D02*
X84316908Y-115962306D01*
X84316908Y-115962306D02*
X84364527Y-116105163D01*
X84364527Y-116105163D02*
X84364527Y-116343258D01*
X83364527Y-115438496D02*
X83364527Y-114771830D01*
X83364527Y-114771830D02*
X84364527Y-115200401D01*
X91844961Y-103831979D02*
X91892580Y-103736741D01*
X91892580Y-103736741D02*
X91892580Y-103593884D01*
X91892580Y-103593884D02*
X91844961Y-103451027D01*
X91844961Y-103451027D02*
X91749723Y-103355789D01*
X91749723Y-103355789D02*
X91654485Y-103308170D01*
X91654485Y-103308170D02*
X91464009Y-103260551D01*
X91464009Y-103260551D02*
X91321152Y-103260551D01*
X91321152Y-103260551D02*
X91130676Y-103308170D01*
X91130676Y-103308170D02*
X91035438Y-103355789D01*
X91035438Y-103355789D02*
X90940200Y-103451027D01*
X90940200Y-103451027D02*
X90892580Y-103593884D01*
X90892580Y-103593884D02*
X90892580Y-103689122D01*
X90892580Y-103689122D02*
X90940200Y-103831979D01*
X90940200Y-103831979D02*
X90987819Y-103879598D01*
X90987819Y-103879598D02*
X91321152Y-103879598D01*
X91321152Y-103879598D02*
X91321152Y-103689122D01*
X90892580Y-104308170D02*
X91892580Y-104308170D01*
X91892580Y-104308170D02*
X90892580Y-104879598D01*
X90892580Y-104879598D02*
X91892580Y-104879598D01*
X90892580Y-105355789D02*
X91892580Y-105355789D01*
X91892580Y-105355789D02*
X91892580Y-105593884D01*
X91892580Y-105593884D02*
X91844961Y-105736741D01*
X91844961Y-105736741D02*
X91749723Y-105831979D01*
X91749723Y-105831979D02*
X91654485Y-105879598D01*
X91654485Y-105879598D02*
X91464009Y-105927217D01*
X91464009Y-105927217D02*
X91321152Y-105927217D01*
X91321152Y-105927217D02*
X91130676Y-105879598D01*
X91130676Y-105879598D02*
X91035438Y-105831979D01*
X91035438Y-105831979D02*
X90940200Y-105736741D01*
X90940200Y-105736741D02*
X90892580Y-105593884D01*
X90892580Y-105593884D02*
X90892580Y-105355789D01*
X119178295Y-103546265D02*
X119178295Y-104022455D01*
X118892580Y-103451027D02*
X119892580Y-103784360D01*
X119892580Y-103784360D02*
X118892580Y-104117693D01*
X118892580Y-104974836D02*
X118892580Y-104403408D01*
X118892580Y-104689122D02*
X119892580Y-104689122D01*
X119892580Y-104689122D02*
X119749723Y-104593884D01*
X119749723Y-104593884D02*
X119654485Y-104498646D01*
X119654485Y-104498646D02*
X119606866Y-104403408D01*
X118892580Y-105927217D02*
X118892580Y-105355789D01*
X118892580Y-105641503D02*
X119892580Y-105641503D01*
X119892580Y-105641503D02*
X119749723Y-105546265D01*
X119749723Y-105546265D02*
X119654485Y-105451027D01*
X119654485Y-105451027D02*
X119606866Y-105355789D01*
X104598477Y-116343258D02*
X103598477Y-116343258D01*
X103598477Y-116343258D02*
X103598477Y-116105163D01*
X103598477Y-116105163D02*
X103646096Y-115962306D01*
X103646096Y-115962306D02*
X103741334Y-115867068D01*
X103741334Y-115867068D02*
X103836572Y-115819449D01*
X103836572Y-115819449D02*
X104027048Y-115771830D01*
X104027048Y-115771830D02*
X104169905Y-115771830D01*
X104169905Y-115771830D02*
X104360381Y-115819449D01*
X104360381Y-115819449D02*
X104455619Y-115867068D01*
X104455619Y-115867068D02*
X104550858Y-115962306D01*
X104550858Y-115962306D02*
X104598477Y-116105163D01*
X104598477Y-116105163D02*
X104598477Y-116343258D01*
X103598477Y-115438496D02*
X103598477Y-114819449D01*
X103598477Y-114819449D02*
X103979429Y-115152782D01*
X103979429Y-115152782D02*
X103979429Y-115009925D01*
X103979429Y-115009925D02*
X104027048Y-114914687D01*
X104027048Y-114914687D02*
X104074667Y-114867068D01*
X104074667Y-114867068D02*
X104169905Y-114819449D01*
X104169905Y-114819449D02*
X104408000Y-114819449D01*
X104408000Y-114819449D02*
X104503238Y-114867068D01*
X104503238Y-114867068D02*
X104550858Y-114914687D01*
X104550858Y-114914687D02*
X104598477Y-115009925D01*
X104598477Y-115009925D02*
X104598477Y-115295639D01*
X104598477Y-115295639D02*
X104550858Y-115390877D01*
X104550858Y-115390877D02*
X104503238Y-115438496D01*
X129419145Y-117724210D02*
X130419145Y-117486115D01*
X130419145Y-117486115D02*
X129704859Y-117295639D01*
X129704859Y-117295639D02*
X130419145Y-117105163D01*
X130419145Y-117105163D02*
X129419145Y-116867068D01*
X130133430Y-116533734D02*
X130133430Y-116057544D01*
X130419145Y-116628972D02*
X129419145Y-116295639D01*
X129419145Y-116295639D02*
X130419145Y-115962306D01*
X130419145Y-115628972D02*
X129419145Y-115628972D01*
X129419145Y-115295639D02*
X129419145Y-114724211D01*
X130419145Y-115009925D02*
X129419145Y-115009925D01*
X129141526Y-117767068D02*
X129141526Y-114728973D01*
X116778295Y-103546265D02*
X116778295Y-104022455D01*
X116492580Y-103451027D02*
X117492580Y-103784360D01*
X117492580Y-103784360D02*
X116492580Y-104117693D01*
X116492580Y-104974836D02*
X116492580Y-104403408D01*
X116492580Y-104689122D02*
X117492580Y-104689122D01*
X117492580Y-104689122D02*
X117349723Y-104593884D01*
X117349723Y-104593884D02*
X117254485Y-104498646D01*
X117254485Y-104498646D02*
X117206866Y-104403408D01*
X117397342Y-105355789D02*
X117444961Y-105403408D01*
X117444961Y-105403408D02*
X117492580Y-105498646D01*
X117492580Y-105498646D02*
X117492580Y-105736741D01*
X117492580Y-105736741D02*
X117444961Y-105831979D01*
X117444961Y-105831979D02*
X117397342Y-105879598D01*
X117397342Y-105879598D02*
X117302104Y-105927217D01*
X117302104Y-105927217D02*
X117206866Y-105927217D01*
X117206866Y-105927217D02*
X117064009Y-105879598D01*
X117064009Y-105879598D02*
X116492580Y-105308170D01*
X116492580Y-105308170D02*
X116492580Y-105927217D01*
X109078295Y-103546265D02*
X109078295Y-104022455D01*
X108792580Y-103451027D02*
X109792580Y-103784360D01*
X109792580Y-103784360D02*
X108792580Y-104117693D01*
X108792580Y-104974836D02*
X108792580Y-104403408D01*
X108792580Y-104689122D02*
X109792580Y-104689122D01*
X109792580Y-104689122D02*
X109649723Y-104593884D01*
X109649723Y-104593884D02*
X109554485Y-104498646D01*
X109554485Y-104498646D02*
X109506866Y-104403408D01*
X109792580Y-105879598D02*
X109792580Y-105403408D01*
X109792580Y-105403408D02*
X109316390Y-105355789D01*
X109316390Y-105355789D02*
X109364009Y-105403408D01*
X109364009Y-105403408D02*
X109411628Y-105498646D01*
X109411628Y-105498646D02*
X109411628Y-105736741D01*
X109411628Y-105736741D02*
X109364009Y-105831979D01*
X109364009Y-105831979D02*
X109316390Y-105879598D01*
X109316390Y-105879598D02*
X109221152Y-105927217D01*
X109221152Y-105927217D02*
X108983057Y-105927217D01*
X108983057Y-105927217D02*
X108887819Y-105879598D01*
X108887819Y-105879598D02*
X108840200Y-105831979D01*
X108840200Y-105831979D02*
X108792580Y-105736741D01*
X108792580Y-105736741D02*
X108792580Y-105498646D01*
X108792580Y-105498646D02*
X108840200Y-105403408D01*
X108840200Y-105403408D02*
X108887819Y-105355789D01*
X103778295Y-104498646D02*
X103778295Y-104974836D01*
X103492580Y-104403408D02*
X104492580Y-104736741D01*
X104492580Y-104736741D02*
X103492580Y-105070074D01*
X104397342Y-105355789D02*
X104444961Y-105403408D01*
X104444961Y-105403408D02*
X104492580Y-105498646D01*
X104492580Y-105498646D02*
X104492580Y-105736741D01*
X104492580Y-105736741D02*
X104444961Y-105831979D01*
X104444961Y-105831979D02*
X104397342Y-105879598D01*
X104397342Y-105879598D02*
X104302104Y-105927217D01*
X104302104Y-105927217D02*
X104206866Y-105927217D01*
X104206866Y-105927217D02*
X104064009Y-105879598D01*
X104064009Y-105879598D02*
X103492580Y-105308170D01*
X103492580Y-105308170D02*
X103492580Y-105927217D01*
X102091687Y-116343258D02*
X101091687Y-116343258D01*
X101091687Y-116343258D02*
X101091687Y-116105163D01*
X101091687Y-116105163D02*
X101139306Y-115962306D01*
X101139306Y-115962306D02*
X101234544Y-115867068D01*
X101234544Y-115867068D02*
X101329782Y-115819449D01*
X101329782Y-115819449D02*
X101520258Y-115771830D01*
X101520258Y-115771830D02*
X101663115Y-115771830D01*
X101663115Y-115771830D02*
X101853591Y-115819449D01*
X101853591Y-115819449D02*
X101948829Y-115867068D01*
X101948829Y-115867068D02*
X102044068Y-115962306D01*
X102044068Y-115962306D02*
X102091687Y-116105163D01*
X102091687Y-116105163D02*
X102091687Y-116343258D01*
X101091687Y-114867068D02*
X101091687Y-115343258D01*
X101091687Y-115343258D02*
X101567877Y-115390877D01*
X101567877Y-115390877D02*
X101520258Y-115343258D01*
X101520258Y-115343258D02*
X101472639Y-115248020D01*
X101472639Y-115248020D02*
X101472639Y-115009925D01*
X101472639Y-115009925D02*
X101520258Y-114914687D01*
X101520258Y-114914687D02*
X101567877Y-114867068D01*
X101567877Y-114867068D02*
X101663115Y-114819449D01*
X101663115Y-114819449D02*
X101901210Y-114819449D01*
X101901210Y-114819449D02*
X101996448Y-114867068D01*
X101996448Y-114867068D02*
X102044068Y-114914687D01*
X102044068Y-114914687D02*
X102091687Y-115009925D01*
X102091687Y-115009925D02*
X102091687Y-115248020D01*
X102091687Y-115248020D02*
X102044068Y-115343258D01*
X102044068Y-115343258D02*
X101996448Y-115390877D01*
X124057419Y-116628972D02*
X125057419Y-116390877D01*
X125057419Y-116390877D02*
X124343133Y-116200401D01*
X124343133Y-116200401D02*
X125057419Y-116009925D01*
X125057419Y-116009925D02*
X124057419Y-115771830D01*
X125057419Y-114819449D02*
X124581228Y-115152782D01*
X125057419Y-115390877D02*
X124057419Y-115390877D01*
X124057419Y-115390877D02*
X124057419Y-115009925D01*
X124057419Y-115009925D02*
X124105038Y-114914687D01*
X124105038Y-114914687D02*
X124152657Y-114867068D01*
X124152657Y-114867068D02*
X124247895Y-114819449D01*
X124247895Y-114819449D02*
X124390752Y-114819449D01*
X124390752Y-114819449D02*
X124485990Y-114867068D01*
X124485990Y-114867068D02*
X124533609Y-114914687D01*
X124533609Y-114914687D02*
X124581228Y-115009925D01*
X124581228Y-115009925D02*
X124581228Y-115390877D01*
X123779800Y-116671830D02*
X123779800Y-114728973D01*
X136928295Y-104498646D02*
X136928295Y-104974836D01*
X136642580Y-104403408D02*
X137642580Y-104736741D01*
X137642580Y-104736741D02*
X136642580Y-105070074D01*
X137309247Y-105831979D02*
X136642580Y-105831979D01*
X137690200Y-105593884D02*
X136975914Y-105355789D01*
X136975914Y-105355789D02*
X136975914Y-105974836D01*
X137757419Y-116486115D02*
X136757419Y-116486115D01*
X136757419Y-116486115D02*
X137471704Y-116152782D01*
X137471704Y-116152782D02*
X136757419Y-115819449D01*
X136757419Y-115819449D02*
X137757419Y-115819449D01*
X137757419Y-114819449D02*
X137757419Y-115390877D01*
X137757419Y-115105163D02*
X136757419Y-115105163D01*
X136757419Y-115105163D02*
X136900276Y-115200401D01*
X136900276Y-115200401D02*
X136995514Y-115295639D01*
X136995514Y-115295639D02*
X137043133Y-115390877D01*
X136479800Y-116624211D02*
X136479800Y-114728973D01*
X111728295Y-103546265D02*
X111728295Y-104022455D01*
X111442580Y-103451027D02*
X112442580Y-103784360D01*
X112442580Y-103784360D02*
X111442580Y-104117693D01*
X111442580Y-104974836D02*
X111442580Y-104403408D01*
X111442580Y-104689122D02*
X112442580Y-104689122D01*
X112442580Y-104689122D02*
X112299723Y-104593884D01*
X112299723Y-104593884D02*
X112204485Y-104498646D01*
X112204485Y-104498646D02*
X112156866Y-104403408D01*
X112109247Y-105831979D02*
X111442580Y-105831979D01*
X112490200Y-105593884D02*
X111775914Y-105355789D01*
X111775914Y-105355789D02*
X111775914Y-105974836D01*
X94514527Y-116343258D02*
X93514527Y-116343258D01*
X93514527Y-116343258D02*
X93514527Y-116105163D01*
X93514527Y-116105163D02*
X93562146Y-115962306D01*
X93562146Y-115962306D02*
X93657384Y-115867068D01*
X93657384Y-115867068D02*
X93752622Y-115819449D01*
X93752622Y-115819449D02*
X93943098Y-115771830D01*
X93943098Y-115771830D02*
X94085955Y-115771830D01*
X94085955Y-115771830D02*
X94276431Y-115819449D01*
X94276431Y-115819449D02*
X94371669Y-115867068D01*
X94371669Y-115867068D02*
X94466908Y-115962306D01*
X94466908Y-115962306D02*
X94514527Y-116105163D01*
X94514527Y-116105163D02*
X94514527Y-116343258D01*
X94514527Y-114819449D02*
X94514527Y-115390877D01*
X94514527Y-115105163D02*
X93514527Y-115105163D01*
X93514527Y-115105163D02*
X93657384Y-115200401D01*
X93657384Y-115200401D02*
X93752622Y-115295639D01*
X93752622Y-115295639D02*
X93800241Y-115390877D01*
X126828295Y-104498646D02*
X126828295Y-104974836D01*
X126542580Y-104403408D02*
X127542580Y-104736741D01*
X127542580Y-104736741D02*
X126542580Y-105070074D01*
X127114009Y-105546265D02*
X127161628Y-105451027D01*
X127161628Y-105451027D02*
X127209247Y-105403408D01*
X127209247Y-105403408D02*
X127304485Y-105355789D01*
X127304485Y-105355789D02*
X127352104Y-105355789D01*
X127352104Y-105355789D02*
X127447342Y-105403408D01*
X127447342Y-105403408D02*
X127494961Y-105451027D01*
X127494961Y-105451027D02*
X127542580Y-105546265D01*
X127542580Y-105546265D02*
X127542580Y-105736741D01*
X127542580Y-105736741D02*
X127494961Y-105831979D01*
X127494961Y-105831979D02*
X127447342Y-105879598D01*
X127447342Y-105879598D02*
X127352104Y-105927217D01*
X127352104Y-105927217D02*
X127304485Y-105927217D01*
X127304485Y-105927217D02*
X127209247Y-105879598D01*
X127209247Y-105879598D02*
X127161628Y-105831979D01*
X127161628Y-105831979D02*
X127114009Y-105736741D01*
X127114009Y-105736741D02*
X127114009Y-105546265D01*
X127114009Y-105546265D02*
X127066390Y-105451027D01*
X127066390Y-105451027D02*
X127018771Y-105403408D01*
X127018771Y-105403408D02*
X126923533Y-105355789D01*
X126923533Y-105355789D02*
X126733057Y-105355789D01*
X126733057Y-105355789D02*
X126637819Y-105403408D01*
X126637819Y-105403408D02*
X126590200Y-105451027D01*
X126590200Y-105451027D02*
X126542580Y-105546265D01*
X126542580Y-105546265D02*
X126542580Y-105736741D01*
X126542580Y-105736741D02*
X126590200Y-105831979D01*
X126590200Y-105831979D02*
X126637819Y-105879598D01*
X126637819Y-105879598D02*
X126733057Y-105927217D01*
X126733057Y-105927217D02*
X126923533Y-105927217D01*
X126923533Y-105927217D02*
X127018771Y-105879598D01*
X127018771Y-105879598D02*
X127066390Y-105831979D01*
X127066390Y-105831979D02*
X127114009Y-105736741D01*
X91964527Y-116343258D02*
X90964527Y-116343258D01*
X90964527Y-116343258D02*
X90964527Y-116105163D01*
X90964527Y-116105163D02*
X91012146Y-115962306D01*
X91012146Y-115962306D02*
X91107384Y-115867068D01*
X91107384Y-115867068D02*
X91202622Y-115819449D01*
X91202622Y-115819449D02*
X91393098Y-115771830D01*
X91393098Y-115771830D02*
X91535955Y-115771830D01*
X91535955Y-115771830D02*
X91726431Y-115819449D01*
X91726431Y-115819449D02*
X91821669Y-115867068D01*
X91821669Y-115867068D02*
X91916908Y-115962306D01*
X91916908Y-115962306D02*
X91964527Y-116105163D01*
X91964527Y-116105163D02*
X91964527Y-116343258D01*
X90964527Y-115152782D02*
X90964527Y-115057544D01*
X90964527Y-115057544D02*
X91012146Y-114962306D01*
X91012146Y-114962306D02*
X91059765Y-114914687D01*
X91059765Y-114914687D02*
X91155003Y-114867068D01*
X91155003Y-114867068D02*
X91345479Y-114819449D01*
X91345479Y-114819449D02*
X91583574Y-114819449D01*
X91583574Y-114819449D02*
X91774050Y-114867068D01*
X91774050Y-114867068D02*
X91869288Y-114914687D01*
X91869288Y-114914687D02*
X91916908Y-114962306D01*
X91916908Y-114962306D02*
X91964527Y-115057544D01*
X91964527Y-115057544D02*
X91964527Y-115152782D01*
X91964527Y-115152782D02*
X91916908Y-115248020D01*
X91916908Y-115248020D02*
X91869288Y-115295639D01*
X91869288Y-115295639D02*
X91774050Y-115343258D01*
X91774050Y-115343258D02*
X91583574Y-115390877D01*
X91583574Y-115390877D02*
X91345479Y-115390877D01*
X91345479Y-115390877D02*
X91155003Y-115343258D01*
X91155003Y-115343258D02*
X91059765Y-115295639D01*
X91059765Y-115295639D02*
X91012146Y-115248020D01*
X91012146Y-115248020D02*
X90964527Y-115152782D01*
X138992580Y-101784360D02*
X139468771Y-101451027D01*
X138992580Y-101212932D02*
X139992580Y-101212932D01*
X139992580Y-101212932D02*
X139992580Y-101593884D01*
X139992580Y-101593884D02*
X139944961Y-101689122D01*
X139944961Y-101689122D02*
X139897342Y-101736741D01*
X139897342Y-101736741D02*
X139802104Y-101784360D01*
X139802104Y-101784360D02*
X139659247Y-101784360D01*
X139659247Y-101784360D02*
X139564009Y-101736741D01*
X139564009Y-101736741D02*
X139516390Y-101689122D01*
X139516390Y-101689122D02*
X139468771Y-101593884D01*
X139468771Y-101593884D02*
X139468771Y-101212932D01*
X139992580Y-102403408D02*
X139992580Y-102593884D01*
X139992580Y-102593884D02*
X139944961Y-102689122D01*
X139944961Y-102689122D02*
X139849723Y-102784360D01*
X139849723Y-102784360D02*
X139659247Y-102831979D01*
X139659247Y-102831979D02*
X139325914Y-102831979D01*
X139325914Y-102831979D02*
X139135438Y-102784360D01*
X139135438Y-102784360D02*
X139040200Y-102689122D01*
X139040200Y-102689122D02*
X138992580Y-102593884D01*
X138992580Y-102593884D02*
X138992580Y-102403408D01*
X138992580Y-102403408D02*
X139040200Y-102308170D01*
X139040200Y-102308170D02*
X139135438Y-102212932D01*
X139135438Y-102212932D02*
X139325914Y-102165313D01*
X139325914Y-102165313D02*
X139659247Y-102165313D01*
X139659247Y-102165313D02*
X139849723Y-102212932D01*
X139849723Y-102212932D02*
X139944961Y-102308170D01*
X139944961Y-102308170D02*
X139992580Y-102403408D01*
X138992580Y-103260551D02*
X139992580Y-103260551D01*
X139992580Y-103260551D02*
X139278295Y-103593884D01*
X139278295Y-103593884D02*
X139992580Y-103927217D01*
X139992580Y-103927217D02*
X138992580Y-103927217D01*
X139087819Y-104974836D02*
X139040200Y-104927217D01*
X139040200Y-104927217D02*
X138992580Y-104784360D01*
X138992580Y-104784360D02*
X138992580Y-104689122D01*
X138992580Y-104689122D02*
X139040200Y-104546265D01*
X139040200Y-104546265D02*
X139135438Y-104451027D01*
X139135438Y-104451027D02*
X139230676Y-104403408D01*
X139230676Y-104403408D02*
X139421152Y-104355789D01*
X139421152Y-104355789D02*
X139564009Y-104355789D01*
X139564009Y-104355789D02*
X139754485Y-104403408D01*
X139754485Y-104403408D02*
X139849723Y-104451027D01*
X139849723Y-104451027D02*
X139944961Y-104546265D01*
X139944961Y-104546265D02*
X139992580Y-104689122D01*
X139992580Y-104689122D02*
X139992580Y-104784360D01*
X139992580Y-104784360D02*
X139944961Y-104927217D01*
X139944961Y-104927217D02*
X139897342Y-104974836D01*
X139040200Y-105355789D02*
X138992580Y-105498646D01*
X138992580Y-105498646D02*
X138992580Y-105736741D01*
X138992580Y-105736741D02*
X139040200Y-105831979D01*
X139040200Y-105831979D02*
X139087819Y-105879598D01*
X139087819Y-105879598D02*
X139183057Y-105927217D01*
X139183057Y-105927217D02*
X139278295Y-105927217D01*
X139278295Y-105927217D02*
X139373533Y-105879598D01*
X139373533Y-105879598D02*
X139421152Y-105831979D01*
X139421152Y-105831979D02*
X139468771Y-105736741D01*
X139468771Y-105736741D02*
X139516390Y-105546265D01*
X139516390Y-105546265D02*
X139564009Y-105451027D01*
X139564009Y-105451027D02*
X139611628Y-105403408D01*
X139611628Y-105403408D02*
X139706866Y-105355789D01*
X139706866Y-105355789D02*
X139802104Y-105355789D01*
X139802104Y-105355789D02*
X139897342Y-105403408D01*
X139897342Y-105403408D02*
X139944961Y-105451027D01*
X139944961Y-105451027D02*
X139992580Y-105546265D01*
X139992580Y-105546265D02*
X139992580Y-105784360D01*
X139992580Y-105784360D02*
X139944961Y-105927217D01*
X140270200Y-101074837D02*
X140270200Y-106017694D01*
X107014527Y-116343258D02*
X106014527Y-116343258D01*
X106014527Y-116343258D02*
X106014527Y-116105163D01*
X106014527Y-116105163D02*
X106062146Y-115962306D01*
X106062146Y-115962306D02*
X106157384Y-115867068D01*
X106157384Y-115867068D02*
X106252622Y-115819449D01*
X106252622Y-115819449D02*
X106443098Y-115771830D01*
X106443098Y-115771830D02*
X106585955Y-115771830D01*
X106585955Y-115771830D02*
X106776431Y-115819449D01*
X106776431Y-115819449D02*
X106871669Y-115867068D01*
X106871669Y-115867068D02*
X106966908Y-115962306D01*
X106966908Y-115962306D02*
X107014527Y-116105163D01*
X107014527Y-116105163D02*
X107014527Y-116343258D01*
X106347860Y-114914687D02*
X107014527Y-114914687D01*
X105966908Y-115152782D02*
X106681193Y-115390877D01*
X106681193Y-115390877D02*
X106681193Y-114771830D01*
X124278295Y-104498646D02*
X124278295Y-104974836D01*
X123992580Y-104403408D02*
X124992580Y-104736741D01*
X124992580Y-104736741D02*
X123992580Y-105070074D01*
X123992580Y-105451027D02*
X123992580Y-105641503D01*
X123992580Y-105641503D02*
X124040200Y-105736741D01*
X124040200Y-105736741D02*
X124087819Y-105784360D01*
X124087819Y-105784360D02*
X124230676Y-105879598D01*
X124230676Y-105879598D02*
X124421152Y-105927217D01*
X124421152Y-105927217D02*
X124802104Y-105927217D01*
X124802104Y-105927217D02*
X124897342Y-105879598D01*
X124897342Y-105879598D02*
X124944961Y-105831979D01*
X124944961Y-105831979D02*
X124992580Y-105736741D01*
X124992580Y-105736741D02*
X124992580Y-105546265D01*
X124992580Y-105546265D02*
X124944961Y-105451027D01*
X124944961Y-105451027D02*
X124897342Y-105403408D01*
X124897342Y-105403408D02*
X124802104Y-105355789D01*
X124802104Y-105355789D02*
X124564009Y-105355789D01*
X124564009Y-105355789D02*
X124468771Y-105403408D01*
X124468771Y-105403408D02*
X124421152Y-105451027D01*
X124421152Y-105451027D02*
X124373533Y-105546265D01*
X124373533Y-105546265D02*
X124373533Y-105736741D01*
X124373533Y-105736741D02*
X124421152Y-105831979D01*
X124421152Y-105831979D02*
X124468771Y-105879598D01*
X124468771Y-105879598D02*
X124564009Y-105927217D01*
X98778295Y-104498646D02*
X98778295Y-104974836D01*
X98492580Y-104403408D02*
X99492580Y-104736741D01*
X99492580Y-104736741D02*
X98492580Y-105070074D01*
X99492580Y-105593884D02*
X99492580Y-105689122D01*
X99492580Y-105689122D02*
X99444961Y-105784360D01*
X99444961Y-105784360D02*
X99397342Y-105831979D01*
X99397342Y-105831979D02*
X99302104Y-105879598D01*
X99302104Y-105879598D02*
X99111628Y-105927217D01*
X99111628Y-105927217D02*
X98873533Y-105927217D01*
X98873533Y-105927217D02*
X98683057Y-105879598D01*
X98683057Y-105879598D02*
X98587819Y-105831979D01*
X98587819Y-105831979D02*
X98540200Y-105784360D01*
X98540200Y-105784360D02*
X98492580Y-105689122D01*
X98492580Y-105689122D02*
X98492580Y-105593884D01*
X98492580Y-105593884D02*
X98540200Y-105498646D01*
X98540200Y-105498646D02*
X98587819Y-105451027D01*
X98587819Y-105451027D02*
X98683057Y-105403408D01*
X98683057Y-105403408D02*
X98873533Y-105355789D01*
X98873533Y-105355789D02*
X99111628Y-105355789D01*
X99111628Y-105355789D02*
X99302104Y-105403408D01*
X99302104Y-105403408D02*
X99397342Y-105451027D01*
X99397342Y-105451027D02*
X99444961Y-105498646D01*
X99444961Y-105498646D02*
X99492580Y-105593884D01*
X140307419Y-117676592D02*
X139831228Y-118009925D01*
X140307419Y-118248020D02*
X139307419Y-118248020D01*
X139307419Y-118248020D02*
X139307419Y-117867068D01*
X139307419Y-117867068D02*
X139355038Y-117771830D01*
X139355038Y-117771830D02*
X139402657Y-117724211D01*
X139402657Y-117724211D02*
X139497895Y-117676592D01*
X139497895Y-117676592D02*
X139640752Y-117676592D01*
X139640752Y-117676592D02*
X139735990Y-117724211D01*
X139735990Y-117724211D02*
X139783609Y-117771830D01*
X139783609Y-117771830D02*
X139831228Y-117867068D01*
X139831228Y-117867068D02*
X139831228Y-118248020D01*
X139783609Y-116914687D02*
X139783609Y-117248020D01*
X140307419Y-117248020D02*
X139307419Y-117248020D01*
X139307419Y-117248020D02*
X139307419Y-116771830D01*
X140259800Y-116438496D02*
X140307419Y-116295639D01*
X140307419Y-116295639D02*
X140307419Y-116057544D01*
X140307419Y-116057544D02*
X140259800Y-115962306D01*
X140259800Y-115962306D02*
X140212180Y-115914687D01*
X140212180Y-115914687D02*
X140116942Y-115867068D01*
X140116942Y-115867068D02*
X140021704Y-115867068D01*
X140021704Y-115867068D02*
X139926466Y-115914687D01*
X139926466Y-115914687D02*
X139878847Y-115962306D01*
X139878847Y-115962306D02*
X139831228Y-116057544D01*
X139831228Y-116057544D02*
X139783609Y-116248020D01*
X139783609Y-116248020D02*
X139735990Y-116343258D01*
X139735990Y-116343258D02*
X139688371Y-116390877D01*
X139688371Y-116390877D02*
X139593133Y-116438496D01*
X139593133Y-116438496D02*
X139497895Y-116438496D01*
X139497895Y-116438496D02*
X139402657Y-116390877D01*
X139402657Y-116390877D02*
X139355038Y-116343258D01*
X139355038Y-116343258D02*
X139307419Y-116248020D01*
X139307419Y-116248020D02*
X139307419Y-116009925D01*
X139307419Y-116009925D02*
X139355038Y-115867068D01*
X140307419Y-115438496D02*
X139307419Y-115438496D01*
X139783609Y-115438496D02*
X139783609Y-114867068D01*
X140307419Y-114867068D02*
X139307419Y-114867068D01*
X139029800Y-118386116D02*
X139029800Y-114728973D01*
X121728295Y-103546265D02*
X121728295Y-104022455D01*
X121442580Y-103451027D02*
X122442580Y-103784360D01*
X122442580Y-103784360D02*
X121442580Y-104117693D01*
X121442580Y-104974836D02*
X121442580Y-104403408D01*
X121442580Y-104689122D02*
X122442580Y-104689122D01*
X122442580Y-104689122D02*
X122299723Y-104593884D01*
X122299723Y-104593884D02*
X122204485Y-104498646D01*
X122204485Y-104498646D02*
X122156866Y-104403408D01*
X122442580Y-105593884D02*
X122442580Y-105689122D01*
X122442580Y-105689122D02*
X122394961Y-105784360D01*
X122394961Y-105784360D02*
X122347342Y-105831979D01*
X122347342Y-105831979D02*
X122252104Y-105879598D01*
X122252104Y-105879598D02*
X122061628Y-105927217D01*
X122061628Y-105927217D02*
X121823533Y-105927217D01*
X121823533Y-105927217D02*
X121633057Y-105879598D01*
X121633057Y-105879598D02*
X121537819Y-105831979D01*
X121537819Y-105831979D02*
X121490200Y-105784360D01*
X121490200Y-105784360D02*
X121442580Y-105689122D01*
X121442580Y-105689122D02*
X121442580Y-105593884D01*
X121442580Y-105593884D02*
X121490200Y-105498646D01*
X121490200Y-105498646D02*
X121537819Y-105451027D01*
X121537819Y-105451027D02*
X121633057Y-105403408D01*
X121633057Y-105403408D02*
X121823533Y-105355789D01*
X121823533Y-105355789D02*
X122061628Y-105355789D01*
X122061628Y-105355789D02*
X122252104Y-105403408D01*
X122252104Y-105403408D02*
X122347342Y-105451027D01*
X122347342Y-105451027D02*
X122394961Y-105498646D01*
X122394961Y-105498646D02*
X122442580Y-105593884D01*
X96037819Y-104117693D02*
X95990200Y-104070074D01*
X95990200Y-104070074D02*
X95942580Y-103927217D01*
X95942580Y-103927217D02*
X95942580Y-103831979D01*
X95942580Y-103831979D02*
X95990200Y-103689122D01*
X95990200Y-103689122D02*
X96085438Y-103593884D01*
X96085438Y-103593884D02*
X96180676Y-103546265D01*
X96180676Y-103546265D02*
X96371152Y-103498646D01*
X96371152Y-103498646D02*
X96514009Y-103498646D01*
X96514009Y-103498646D02*
X96704485Y-103546265D01*
X96704485Y-103546265D02*
X96799723Y-103593884D01*
X96799723Y-103593884D02*
X96894961Y-103689122D01*
X96894961Y-103689122D02*
X96942580Y-103831979D01*
X96942580Y-103831979D02*
X96942580Y-103927217D01*
X96942580Y-103927217D02*
X96894961Y-104070074D01*
X96894961Y-104070074D02*
X96847342Y-104117693D01*
X95942580Y-105022455D02*
X95942580Y-104546265D01*
X95942580Y-104546265D02*
X96942580Y-104546265D01*
X95942580Y-105355789D02*
X96942580Y-105355789D01*
X95942580Y-105927217D02*
X96514009Y-105498646D01*
X96942580Y-105927217D02*
X96371152Y-105355789D01*
X97014527Y-116343258D02*
X96014527Y-116343258D01*
X96014527Y-116343258D02*
X96014527Y-116105163D01*
X96014527Y-116105163D02*
X96062146Y-115962306D01*
X96062146Y-115962306D02*
X96157384Y-115867068D01*
X96157384Y-115867068D02*
X96252622Y-115819449D01*
X96252622Y-115819449D02*
X96443098Y-115771830D01*
X96443098Y-115771830D02*
X96585955Y-115771830D01*
X96585955Y-115771830D02*
X96776431Y-115819449D01*
X96776431Y-115819449D02*
X96871669Y-115867068D01*
X96871669Y-115867068D02*
X96966908Y-115962306D01*
X96966908Y-115962306D02*
X97014527Y-116105163D01*
X97014527Y-116105163D02*
X97014527Y-116343258D01*
X96109765Y-115390877D02*
X96062146Y-115343258D01*
X96062146Y-115343258D02*
X96014527Y-115248020D01*
X96014527Y-115248020D02*
X96014527Y-115009925D01*
X96014527Y-115009925D02*
X96062146Y-114914687D01*
X96062146Y-114914687D02*
X96109765Y-114867068D01*
X96109765Y-114867068D02*
X96205003Y-114819449D01*
X96205003Y-114819449D02*
X96300241Y-114819449D01*
X96300241Y-114819449D02*
X96443098Y-114867068D01*
X96443098Y-114867068D02*
X97014527Y-115438496D01*
X97014527Y-115438496D02*
X97014527Y-114819449D01*
X127083609Y-118914687D02*
X127131228Y-118771830D01*
X127131228Y-118771830D02*
X127178847Y-118724211D01*
X127178847Y-118724211D02*
X127274085Y-118676592D01*
X127274085Y-118676592D02*
X127416942Y-118676592D01*
X127416942Y-118676592D02*
X127512180Y-118724211D01*
X127512180Y-118724211D02*
X127559800Y-118771830D01*
X127559800Y-118771830D02*
X127607419Y-118867068D01*
X127607419Y-118867068D02*
X127607419Y-119248020D01*
X127607419Y-119248020D02*
X126607419Y-119248020D01*
X126607419Y-119248020D02*
X126607419Y-118914687D01*
X126607419Y-118914687D02*
X126655038Y-118819449D01*
X126655038Y-118819449D02*
X126702657Y-118771830D01*
X126702657Y-118771830D02*
X126797895Y-118724211D01*
X126797895Y-118724211D02*
X126893133Y-118724211D01*
X126893133Y-118724211D02*
X126988371Y-118771830D01*
X126988371Y-118771830D02*
X127035990Y-118819449D01*
X127035990Y-118819449D02*
X127083609Y-118914687D01*
X127083609Y-118914687D02*
X127083609Y-119248020D01*
X126607419Y-118248020D02*
X127416942Y-118248020D01*
X127416942Y-118248020D02*
X127512180Y-118200401D01*
X127512180Y-118200401D02*
X127559800Y-118152782D01*
X127559800Y-118152782D02*
X127607419Y-118057544D01*
X127607419Y-118057544D02*
X127607419Y-117867068D01*
X127607419Y-117867068D02*
X127559800Y-117771830D01*
X127559800Y-117771830D02*
X127512180Y-117724211D01*
X127512180Y-117724211D02*
X127416942Y-117676592D01*
X127416942Y-117676592D02*
X126607419Y-117676592D01*
X127559800Y-117248020D02*
X127607419Y-117105163D01*
X127607419Y-117105163D02*
X127607419Y-116867068D01*
X127607419Y-116867068D02*
X127559800Y-116771830D01*
X127559800Y-116771830D02*
X127512180Y-116724211D01*
X127512180Y-116724211D02*
X127416942Y-116676592D01*
X127416942Y-116676592D02*
X127321704Y-116676592D01*
X127321704Y-116676592D02*
X127226466Y-116724211D01*
X127226466Y-116724211D02*
X127178847Y-116771830D01*
X127178847Y-116771830D02*
X127131228Y-116867068D01*
X127131228Y-116867068D02*
X127083609Y-117057544D01*
X127083609Y-117057544D02*
X127035990Y-117152782D01*
X127035990Y-117152782D02*
X126988371Y-117200401D01*
X126988371Y-117200401D02*
X126893133Y-117248020D01*
X126893133Y-117248020D02*
X126797895Y-117248020D01*
X126797895Y-117248020D02*
X126702657Y-117200401D01*
X126702657Y-117200401D02*
X126655038Y-117152782D01*
X126655038Y-117152782D02*
X126607419Y-117057544D01*
X126607419Y-117057544D02*
X126607419Y-116819449D01*
X126607419Y-116819449D02*
X126655038Y-116676592D01*
X127321704Y-116295639D02*
X127321704Y-115819449D01*
X127607419Y-116390877D02*
X126607419Y-116057544D01*
X126607419Y-116057544D02*
X127607419Y-115724211D01*
X127512180Y-114819449D02*
X127559800Y-114867068D01*
X127559800Y-114867068D02*
X127607419Y-115009925D01*
X127607419Y-115009925D02*
X127607419Y-115105163D01*
X127607419Y-115105163D02*
X127559800Y-115248020D01*
X127559800Y-115248020D02*
X127464561Y-115343258D01*
X127464561Y-115343258D02*
X127369323Y-115390877D01*
X127369323Y-115390877D02*
X127178847Y-115438496D01*
X127178847Y-115438496D02*
X127035990Y-115438496D01*
X127035990Y-115438496D02*
X126845514Y-115390877D01*
X126845514Y-115390877D02*
X126750276Y-115343258D01*
X126750276Y-115343258D02*
X126655038Y-115248020D01*
X126655038Y-115248020D02*
X126607419Y-115105163D01*
X126607419Y-115105163D02*
X126607419Y-115009925D01*
X126607419Y-115009925D02*
X126655038Y-114867068D01*
X126655038Y-114867068D02*
X126702657Y-114819449D01*
X126329800Y-119386116D02*
X126329800Y-114728973D01*
X135257419Y-118343259D02*
X134781228Y-118676592D01*
X135257419Y-118914687D02*
X134257419Y-118914687D01*
X134257419Y-118914687D02*
X134257419Y-118533735D01*
X134257419Y-118533735D02*
X134305038Y-118438497D01*
X134305038Y-118438497D02*
X134352657Y-118390878D01*
X134352657Y-118390878D02*
X134447895Y-118343259D01*
X134447895Y-118343259D02*
X134590752Y-118343259D01*
X134590752Y-118343259D02*
X134685990Y-118390878D01*
X134685990Y-118390878D02*
X134733609Y-118438497D01*
X134733609Y-118438497D02*
X134781228Y-118533735D01*
X134781228Y-118533735D02*
X134781228Y-118914687D01*
X134733609Y-117914687D02*
X134733609Y-117581354D01*
X135257419Y-117438497D02*
X135257419Y-117914687D01*
X135257419Y-117914687D02*
X134257419Y-117914687D01*
X134257419Y-117914687D02*
X134257419Y-117438497D01*
X135209800Y-117057544D02*
X135257419Y-116914687D01*
X135257419Y-116914687D02*
X135257419Y-116676592D01*
X135257419Y-116676592D02*
X135209800Y-116581354D01*
X135209800Y-116581354D02*
X135162180Y-116533735D01*
X135162180Y-116533735D02*
X135066942Y-116486116D01*
X135066942Y-116486116D02*
X134971704Y-116486116D01*
X134971704Y-116486116D02*
X134876466Y-116533735D01*
X134876466Y-116533735D02*
X134828847Y-116581354D01*
X134828847Y-116581354D02*
X134781228Y-116676592D01*
X134781228Y-116676592D02*
X134733609Y-116867068D01*
X134733609Y-116867068D02*
X134685990Y-116962306D01*
X134685990Y-116962306D02*
X134638371Y-117009925D01*
X134638371Y-117009925D02*
X134543133Y-117057544D01*
X134543133Y-117057544D02*
X134447895Y-117057544D01*
X134447895Y-117057544D02*
X134352657Y-117009925D01*
X134352657Y-117009925D02*
X134305038Y-116962306D01*
X134305038Y-116962306D02*
X134257419Y-116867068D01*
X134257419Y-116867068D02*
X134257419Y-116628973D01*
X134257419Y-116628973D02*
X134305038Y-116486116D01*
X134733609Y-116057544D02*
X134733609Y-115724211D01*
X135257419Y-115581354D02*
X135257419Y-116057544D01*
X135257419Y-116057544D02*
X134257419Y-116057544D01*
X134257419Y-116057544D02*
X134257419Y-115581354D01*
X134257419Y-115295639D02*
X134257419Y-114724211D01*
X135257419Y-115009925D02*
X134257419Y-115009925D01*
X133979800Y-119052783D02*
X133979800Y-114728973D01*
X87019145Y-118771830D02*
X86542954Y-119105163D01*
X87019145Y-119343258D02*
X86019145Y-119343258D01*
X86019145Y-119343258D02*
X86019145Y-118962306D01*
X86019145Y-118962306D02*
X86066764Y-118867068D01*
X86066764Y-118867068D02*
X86114383Y-118819449D01*
X86114383Y-118819449D02*
X86209621Y-118771830D01*
X86209621Y-118771830D02*
X86352478Y-118771830D01*
X86352478Y-118771830D02*
X86447716Y-118819449D01*
X86447716Y-118819449D02*
X86495335Y-118867068D01*
X86495335Y-118867068D02*
X86542954Y-118962306D01*
X86542954Y-118962306D02*
X86542954Y-119343258D01*
X86733430Y-118390877D02*
X86733430Y-117914687D01*
X87019145Y-118486115D02*
X86019145Y-118152782D01*
X86019145Y-118152782D02*
X87019145Y-117819449D01*
X87019145Y-117486115D02*
X86019145Y-117486115D01*
X86019145Y-117486115D02*
X86733430Y-117152782D01*
X86733430Y-117152782D02*
X86019145Y-116819449D01*
X86019145Y-116819449D02*
X87019145Y-116819449D01*
X86923906Y-115771830D02*
X86971526Y-115819449D01*
X86971526Y-115819449D02*
X87019145Y-115962306D01*
X87019145Y-115962306D02*
X87019145Y-116057544D01*
X87019145Y-116057544D02*
X86971526Y-116200401D01*
X86971526Y-116200401D02*
X86876287Y-116295639D01*
X86876287Y-116295639D02*
X86781049Y-116343258D01*
X86781049Y-116343258D02*
X86590573Y-116390877D01*
X86590573Y-116390877D02*
X86447716Y-116390877D01*
X86447716Y-116390877D02*
X86257240Y-116343258D01*
X86257240Y-116343258D02*
X86162002Y-116295639D01*
X86162002Y-116295639D02*
X86066764Y-116200401D01*
X86066764Y-116200401D02*
X86019145Y-116057544D01*
X86019145Y-116057544D02*
X86019145Y-115962306D01*
X86019145Y-115962306D02*
X86066764Y-115819449D01*
X86066764Y-115819449D02*
X86114383Y-115771830D01*
X86971526Y-115390877D02*
X87019145Y-115248020D01*
X87019145Y-115248020D02*
X87019145Y-115009925D01*
X87019145Y-115009925D02*
X86971526Y-114914687D01*
X86971526Y-114914687D02*
X86923906Y-114867068D01*
X86923906Y-114867068D02*
X86828668Y-114819449D01*
X86828668Y-114819449D02*
X86733430Y-114819449D01*
X86733430Y-114819449D02*
X86638192Y-114867068D01*
X86638192Y-114867068D02*
X86590573Y-114914687D01*
X86590573Y-114914687D02*
X86542954Y-115009925D01*
X86542954Y-115009925D02*
X86495335Y-115200401D01*
X86495335Y-115200401D02*
X86447716Y-115295639D01*
X86447716Y-115295639D02*
X86400097Y-115343258D01*
X86400097Y-115343258D02*
X86304859Y-115390877D01*
X86304859Y-115390877D02*
X86209621Y-115390877D01*
X86209621Y-115390877D02*
X86114383Y-115343258D01*
X86114383Y-115343258D02*
X86066764Y-115295639D01*
X86066764Y-115295639D02*
X86019145Y-115200401D01*
X86019145Y-115200401D02*
X86019145Y-114962306D01*
X86019145Y-114962306D02*
X86066764Y-114819449D01*
X85741526Y-119481354D02*
X85741526Y-114728973D01*
X114819145Y-117867068D02*
X113819145Y-117867068D01*
X114295335Y-117867068D02*
X114295335Y-117295640D01*
X114819145Y-117295640D02*
X113819145Y-117295640D01*
X114533430Y-116867068D02*
X114533430Y-116390878D01*
X114819145Y-116962306D02*
X113819145Y-116628973D01*
X113819145Y-116628973D02*
X114819145Y-116295640D01*
X114819145Y-115486116D02*
X114819145Y-115962306D01*
X114819145Y-115962306D02*
X113819145Y-115962306D01*
X113819145Y-115295639D02*
X113819145Y-114724211D01*
X114819145Y-115009925D02*
X113819145Y-115009925D01*
X113541526Y-118005164D02*
X113541526Y-114728973D01*
X83673533Y-103308170D02*
X83673533Y-104070075D01*
X83292580Y-103689122D02*
X84054485Y-103689122D01*
X84292580Y-105022455D02*
X84292580Y-104546265D01*
X84292580Y-104546265D02*
X83816390Y-104498646D01*
X83816390Y-104498646D02*
X83864009Y-104546265D01*
X83864009Y-104546265D02*
X83911628Y-104641503D01*
X83911628Y-104641503D02*
X83911628Y-104879598D01*
X83911628Y-104879598D02*
X83864009Y-104974836D01*
X83864009Y-104974836D02*
X83816390Y-105022455D01*
X83816390Y-105022455D02*
X83721152Y-105070074D01*
X83721152Y-105070074D02*
X83483057Y-105070074D01*
X83483057Y-105070074D02*
X83387819Y-105022455D01*
X83387819Y-105022455D02*
X83340200Y-104974836D01*
X83340200Y-104974836D02*
X83292580Y-104879598D01*
X83292580Y-104879598D02*
X83292580Y-104641503D01*
X83292580Y-104641503D02*
X83340200Y-104546265D01*
X83340200Y-104546265D02*
X83387819Y-104498646D01*
X84292580Y-105355789D02*
X83292580Y-105689122D01*
X83292580Y-105689122D02*
X84292580Y-106022455D01*
X109919145Y-116676591D02*
X108919145Y-116676591D01*
X109919145Y-116200401D02*
X108919145Y-116200401D01*
X108919145Y-116200401D02*
X109919145Y-115628973D01*
X109919145Y-115628973D02*
X108919145Y-115628973D01*
X108919145Y-115295639D02*
X108919145Y-114724211D01*
X109919145Y-115009925D02*
X108919145Y-115009925D01*
X108641526Y-116814687D02*
X108641526Y-114728973D01*
X113978295Y-103546265D02*
X113978295Y-104022455D01*
X113692580Y-103451027D02*
X114692580Y-103784360D01*
X114692580Y-103784360D02*
X113692580Y-104117693D01*
X113692580Y-104974836D02*
X113692580Y-104403408D01*
X113692580Y-104689122D02*
X114692580Y-104689122D01*
X114692580Y-104689122D02*
X114549723Y-104593884D01*
X114549723Y-104593884D02*
X114454485Y-104498646D01*
X114454485Y-104498646D02*
X114406866Y-104403408D01*
X114692580Y-105308170D02*
X114692580Y-105927217D01*
X114692580Y-105927217D02*
X114311628Y-105593884D01*
X114311628Y-105593884D02*
X114311628Y-105736741D01*
X114311628Y-105736741D02*
X114264009Y-105831979D01*
X114264009Y-105831979D02*
X114216390Y-105879598D01*
X114216390Y-105879598D02*
X114121152Y-105927217D01*
X114121152Y-105927217D02*
X113883057Y-105927217D01*
X113883057Y-105927217D02*
X113787819Y-105879598D01*
X113787819Y-105879598D02*
X113740200Y-105831979D01*
X113740200Y-105831979D02*
X113692580Y-105736741D01*
X113692580Y-105736741D02*
X113692580Y-105451027D01*
X113692580Y-105451027D02*
X113740200Y-105355789D01*
X113740200Y-105355789D02*
X113787819Y-105308170D01*
X117507419Y-118486115D02*
X116507419Y-118486115D01*
X116507419Y-118486115D02*
X117221704Y-118152782D01*
X117221704Y-118152782D02*
X116507419Y-117819449D01*
X116507419Y-117819449D02*
X117507419Y-117819449D01*
X117507419Y-116771830D02*
X117031228Y-117105163D01*
X117507419Y-117343258D02*
X116507419Y-117343258D01*
X116507419Y-117343258D02*
X116507419Y-116962306D01*
X116507419Y-116962306D02*
X116555038Y-116867068D01*
X116555038Y-116867068D02*
X116602657Y-116819449D01*
X116602657Y-116819449D02*
X116697895Y-116771830D01*
X116697895Y-116771830D02*
X116840752Y-116771830D01*
X116840752Y-116771830D02*
X116935990Y-116819449D01*
X116935990Y-116819449D02*
X116983609Y-116867068D01*
X116983609Y-116867068D02*
X117031228Y-116962306D01*
X117031228Y-116962306D02*
X117031228Y-117343258D01*
X116983609Y-116343258D02*
X116983609Y-116009925D01*
X117507419Y-115867068D02*
X117507419Y-116343258D01*
X117507419Y-116343258D02*
X116507419Y-116343258D01*
X116507419Y-116343258D02*
X116507419Y-115867068D01*
X117602657Y-114771830D02*
X117555038Y-114867068D01*
X117555038Y-114867068D02*
X117459800Y-114962306D01*
X117459800Y-114962306D02*
X117316942Y-115105163D01*
X117316942Y-115105163D02*
X117269323Y-115200401D01*
X117269323Y-115200401D02*
X117269323Y-115295639D01*
X117507419Y-115248020D02*
X117459800Y-115343258D01*
X117459800Y-115343258D02*
X117364561Y-115438496D01*
X117364561Y-115438496D02*
X117174085Y-115486115D01*
X117174085Y-115486115D02*
X116840752Y-115486115D01*
X116840752Y-115486115D02*
X116650276Y-115438496D01*
X116650276Y-115438496D02*
X116555038Y-115343258D01*
X116555038Y-115343258D02*
X116507419Y-115248020D01*
X116507419Y-115248020D02*
X116507419Y-115057544D01*
X116507419Y-115057544D02*
X116555038Y-114962306D01*
X116555038Y-114962306D02*
X116650276Y-114867068D01*
X116650276Y-114867068D02*
X116840752Y-114819449D01*
X116840752Y-114819449D02*
X117174085Y-114819449D01*
X117174085Y-114819449D02*
X117364561Y-114867068D01*
X117364561Y-114867068D02*
X117459800Y-114962306D01*
X117459800Y-114962306D02*
X117507419Y-115057544D01*
X117507419Y-115057544D02*
X117507419Y-115248020D01*
X116229800Y-118624211D02*
X116229800Y-114728973D01*
X122507419Y-115819449D02*
X122031228Y-116152782D01*
X122507419Y-116390877D02*
X121507419Y-116390877D01*
X121507419Y-116390877D02*
X121507419Y-116009925D01*
X121507419Y-116009925D02*
X121555038Y-115914687D01*
X121555038Y-115914687D02*
X121602657Y-115867068D01*
X121602657Y-115867068D02*
X121697895Y-115819449D01*
X121697895Y-115819449D02*
X121840752Y-115819449D01*
X121840752Y-115819449D02*
X121935990Y-115867068D01*
X121935990Y-115867068D02*
X121983609Y-115914687D01*
X121983609Y-115914687D02*
X122031228Y-116009925D01*
X122031228Y-116009925D02*
X122031228Y-116390877D01*
X122507419Y-115390877D02*
X121507419Y-115390877D01*
X121507419Y-115390877D02*
X121507419Y-115152782D01*
X121507419Y-115152782D02*
X121555038Y-115009925D01*
X121555038Y-115009925D02*
X121650276Y-114914687D01*
X121650276Y-114914687D02*
X121745514Y-114867068D01*
X121745514Y-114867068D02*
X121935990Y-114819449D01*
X121935990Y-114819449D02*
X122078847Y-114819449D01*
X122078847Y-114819449D02*
X122269323Y-114867068D01*
X122269323Y-114867068D02*
X122364561Y-114914687D01*
X122364561Y-114914687D02*
X122459800Y-115009925D01*
X122459800Y-115009925D02*
X122507419Y-115152782D01*
X122507419Y-115152782D02*
X122507419Y-115390877D01*
X121229800Y-116528973D02*
X121229800Y-114728973D01*
X106228295Y-104498646D02*
X106228295Y-104974836D01*
X105942580Y-104403408D02*
X106942580Y-104736741D01*
X106942580Y-104736741D02*
X105942580Y-105070074D01*
X106942580Y-105308170D02*
X106942580Y-105927217D01*
X106942580Y-105927217D02*
X106561628Y-105593884D01*
X106561628Y-105593884D02*
X106561628Y-105736741D01*
X106561628Y-105736741D02*
X106514009Y-105831979D01*
X106514009Y-105831979D02*
X106466390Y-105879598D01*
X106466390Y-105879598D02*
X106371152Y-105927217D01*
X106371152Y-105927217D02*
X106133057Y-105927217D01*
X106133057Y-105927217D02*
X106037819Y-105879598D01*
X106037819Y-105879598D02*
X105990200Y-105831979D01*
X105990200Y-105831979D02*
X105942580Y-105736741D01*
X105942580Y-105736741D02*
X105942580Y-105451027D01*
X105942580Y-105451027D02*
X105990200Y-105355789D01*
X105990200Y-105355789D02*
X106037819Y-105308170D01*
X112569145Y-117057543D02*
X111569145Y-117057543D01*
X111569145Y-117057543D02*
X112569145Y-116486115D01*
X112569145Y-116486115D02*
X111569145Y-116486115D01*
X112569145Y-116009924D02*
X111569145Y-116009924D01*
X111569145Y-116009924D02*
X112283430Y-115676591D01*
X112283430Y-115676591D02*
X111569145Y-115343258D01*
X111569145Y-115343258D02*
X112569145Y-115343258D01*
X112569145Y-114867067D02*
X111569145Y-114867067D01*
X111291526Y-117195639D02*
X111291526Y-114728973D01*
X99534897Y-116343258D02*
X98534897Y-116343258D01*
X98534897Y-116343258D02*
X98534897Y-116105163D01*
X98534897Y-116105163D02*
X98582516Y-115962306D01*
X98582516Y-115962306D02*
X98677754Y-115867068D01*
X98677754Y-115867068D02*
X98772992Y-115819449D01*
X98772992Y-115819449D02*
X98963468Y-115771830D01*
X98963468Y-115771830D02*
X99106325Y-115771830D01*
X99106325Y-115771830D02*
X99296801Y-115819449D01*
X99296801Y-115819449D02*
X99392039Y-115867068D01*
X99392039Y-115867068D02*
X99487278Y-115962306D01*
X99487278Y-115962306D02*
X99534897Y-116105163D01*
X99534897Y-116105163D02*
X99534897Y-116343258D01*
X98534897Y-114914687D02*
X98534897Y-115105163D01*
X98534897Y-115105163D02*
X98582516Y-115200401D01*
X98582516Y-115200401D02*
X98630135Y-115248020D01*
X98630135Y-115248020D02*
X98772992Y-115343258D01*
X98772992Y-115343258D02*
X98963468Y-115390877D01*
X98963468Y-115390877D02*
X99344420Y-115390877D01*
X99344420Y-115390877D02*
X99439658Y-115343258D01*
X99439658Y-115343258D02*
X99487278Y-115295639D01*
X99487278Y-115295639D02*
X99534897Y-115200401D01*
X99534897Y-115200401D02*
X99534897Y-115009925D01*
X99534897Y-115009925D02*
X99487278Y-114914687D01*
X99487278Y-114914687D02*
X99439658Y-114867068D01*
X99439658Y-114867068D02*
X99344420Y-114819449D01*
X99344420Y-114819449D02*
X99106325Y-114819449D01*
X99106325Y-114819449D02*
X99011087Y-114867068D01*
X99011087Y-114867068D02*
X98963468Y-114914687D01*
X98963468Y-114914687D02*
X98915849Y-115009925D01*
X98915849Y-115009925D02*
X98915849Y-115200401D01*
X98915849Y-115200401D02*
X98963468Y-115295639D01*
X98963468Y-115295639D02*
X99011087Y-115343258D01*
X99011087Y-115343258D02*
X99106325Y-115390877D01*
X86273533Y-103308170D02*
X86273533Y-104070075D01*
X85892580Y-103689122D02*
X86654485Y-103689122D01*
X85892580Y-104593884D02*
X85892580Y-104784360D01*
X85892580Y-104784360D02*
X85940200Y-104879598D01*
X85940200Y-104879598D02*
X85987819Y-104927217D01*
X85987819Y-104927217D02*
X86130676Y-105022455D01*
X86130676Y-105022455D02*
X86321152Y-105070074D01*
X86321152Y-105070074D02*
X86702104Y-105070074D01*
X86702104Y-105070074D02*
X86797342Y-105022455D01*
X86797342Y-105022455D02*
X86844961Y-104974836D01*
X86844961Y-104974836D02*
X86892580Y-104879598D01*
X86892580Y-104879598D02*
X86892580Y-104689122D01*
X86892580Y-104689122D02*
X86844961Y-104593884D01*
X86844961Y-104593884D02*
X86797342Y-104546265D01*
X86797342Y-104546265D02*
X86702104Y-104498646D01*
X86702104Y-104498646D02*
X86464009Y-104498646D01*
X86464009Y-104498646D02*
X86368771Y-104546265D01*
X86368771Y-104546265D02*
X86321152Y-104593884D01*
X86321152Y-104593884D02*
X86273533Y-104689122D01*
X86273533Y-104689122D02*
X86273533Y-104879598D01*
X86273533Y-104879598D02*
X86321152Y-104974836D01*
X86321152Y-104974836D02*
X86368771Y-105022455D01*
X86368771Y-105022455D02*
X86464009Y-105070074D01*
X86892580Y-105355789D02*
X85892580Y-105689122D01*
X85892580Y-105689122D02*
X86892580Y-106022455D01*
X134478295Y-104498646D02*
X134478295Y-104974836D01*
X134192580Y-104403408D02*
X135192580Y-104736741D01*
X135192580Y-104736741D02*
X134192580Y-105070074D01*
X135192580Y-105879598D02*
X135192580Y-105403408D01*
X135192580Y-105403408D02*
X134716390Y-105355789D01*
X134716390Y-105355789D02*
X134764009Y-105403408D01*
X134764009Y-105403408D02*
X134811628Y-105498646D01*
X134811628Y-105498646D02*
X134811628Y-105736741D01*
X134811628Y-105736741D02*
X134764009Y-105831979D01*
X134764009Y-105831979D02*
X134716390Y-105879598D01*
X134716390Y-105879598D02*
X134621152Y-105927217D01*
X134621152Y-105927217D02*
X134383057Y-105927217D01*
X134383057Y-105927217D02*
X134287819Y-105879598D01*
X134287819Y-105879598D02*
X134240200Y-105831979D01*
X134240200Y-105831979D02*
X134192580Y-105736741D01*
X134192580Y-105736741D02*
X134192580Y-105498646D01*
X134192580Y-105498646D02*
X134240200Y-105403408D01*
X134240200Y-105403408D02*
X134287819Y-105355789D01*
X132145335Y-119105163D02*
X132192954Y-118962306D01*
X132192954Y-118962306D02*
X132240573Y-118914687D01*
X132240573Y-118914687D02*
X132335811Y-118867068D01*
X132335811Y-118867068D02*
X132478668Y-118867068D01*
X132478668Y-118867068D02*
X132573906Y-118914687D01*
X132573906Y-118914687D02*
X132621526Y-118962306D01*
X132621526Y-118962306D02*
X132669145Y-119057544D01*
X132669145Y-119057544D02*
X132669145Y-119438496D01*
X132669145Y-119438496D02*
X131669145Y-119438496D01*
X131669145Y-119438496D02*
X131669145Y-119105163D01*
X131669145Y-119105163D02*
X131716764Y-119009925D01*
X131716764Y-119009925D02*
X131764383Y-118962306D01*
X131764383Y-118962306D02*
X131859621Y-118914687D01*
X131859621Y-118914687D02*
X131954859Y-118914687D01*
X131954859Y-118914687D02*
X132050097Y-118962306D01*
X132050097Y-118962306D02*
X132097716Y-119009925D01*
X132097716Y-119009925D02*
X132145335Y-119105163D01*
X132145335Y-119105163D02*
X132145335Y-119438496D01*
X131669145Y-118438496D02*
X132478668Y-118438496D01*
X132478668Y-118438496D02*
X132573906Y-118390877D01*
X132573906Y-118390877D02*
X132621526Y-118343258D01*
X132621526Y-118343258D02*
X132669145Y-118248020D01*
X132669145Y-118248020D02*
X132669145Y-118057544D01*
X132669145Y-118057544D02*
X132621526Y-117962306D01*
X132621526Y-117962306D02*
X132573906Y-117914687D01*
X132573906Y-117914687D02*
X132478668Y-117867068D01*
X132478668Y-117867068D02*
X131669145Y-117867068D01*
X132621526Y-117438496D02*
X132669145Y-117295639D01*
X132669145Y-117295639D02*
X132669145Y-117057544D01*
X132669145Y-117057544D02*
X132621526Y-116962306D01*
X132621526Y-116962306D02*
X132573906Y-116914687D01*
X132573906Y-116914687D02*
X132478668Y-116867068D01*
X132478668Y-116867068D02*
X132383430Y-116867068D01*
X132383430Y-116867068D02*
X132288192Y-116914687D01*
X132288192Y-116914687D02*
X132240573Y-116962306D01*
X132240573Y-116962306D02*
X132192954Y-117057544D01*
X132192954Y-117057544D02*
X132145335Y-117248020D01*
X132145335Y-117248020D02*
X132097716Y-117343258D01*
X132097716Y-117343258D02*
X132050097Y-117390877D01*
X132050097Y-117390877D02*
X131954859Y-117438496D01*
X131954859Y-117438496D02*
X131859621Y-117438496D01*
X131859621Y-117438496D02*
X131764383Y-117390877D01*
X131764383Y-117390877D02*
X131716764Y-117343258D01*
X131716764Y-117343258D02*
X131669145Y-117248020D01*
X131669145Y-117248020D02*
X131669145Y-117009925D01*
X131669145Y-117009925D02*
X131716764Y-116867068D01*
X132669145Y-115867068D02*
X132192954Y-116200401D01*
X132669145Y-116438496D02*
X131669145Y-116438496D01*
X131669145Y-116438496D02*
X131669145Y-116057544D01*
X131669145Y-116057544D02*
X131716764Y-115962306D01*
X131716764Y-115962306D02*
X131764383Y-115914687D01*
X131764383Y-115914687D02*
X131859621Y-115867068D01*
X131859621Y-115867068D02*
X132002478Y-115867068D01*
X132002478Y-115867068D02*
X132097716Y-115914687D01*
X132097716Y-115914687D02*
X132145335Y-115962306D01*
X132145335Y-115962306D02*
X132192954Y-116057544D01*
X132192954Y-116057544D02*
X132192954Y-116438496D01*
X132764383Y-114771830D02*
X132716764Y-114867068D01*
X132716764Y-114867068D02*
X132621526Y-114962306D01*
X132621526Y-114962306D02*
X132478668Y-115105163D01*
X132478668Y-115105163D02*
X132431049Y-115200401D01*
X132431049Y-115200401D02*
X132431049Y-115295639D01*
X132669145Y-115248020D02*
X132621526Y-115343258D01*
X132621526Y-115343258D02*
X132526287Y-115438496D01*
X132526287Y-115438496D02*
X132335811Y-115486115D01*
X132335811Y-115486115D02*
X132002478Y-115486115D01*
X132002478Y-115486115D02*
X131812002Y-115438496D01*
X131812002Y-115438496D02*
X131716764Y-115343258D01*
X131716764Y-115343258D02*
X131669145Y-115248020D01*
X131669145Y-115248020D02*
X131669145Y-115057544D01*
X131669145Y-115057544D02*
X131716764Y-114962306D01*
X131716764Y-114962306D02*
X131812002Y-114867068D01*
X131812002Y-114867068D02*
X132002478Y-114819449D01*
X132002478Y-114819449D02*
X132335811Y-114819449D01*
X132335811Y-114819449D02*
X132526287Y-114867068D01*
X132526287Y-114867068D02*
X132621526Y-114962306D01*
X132621526Y-114962306D02*
X132669145Y-115057544D01*
X132669145Y-115057544D02*
X132669145Y-115248020D01*
X131391526Y-119576592D02*
X131391526Y-114728973D01*
X119932019Y-98980400D02*
X118932019Y-98980400D01*
X118932019Y-98313734D02*
X118932019Y-98123258D01*
X118932019Y-98123258D02*
X118979638Y-98028020D01*
X118979638Y-98028020D02*
X119074876Y-97932782D01*
X119074876Y-97932782D02*
X119265352Y-97885163D01*
X119265352Y-97885163D02*
X119598685Y-97885163D01*
X119598685Y-97885163D02*
X119789161Y-97932782D01*
X119789161Y-97932782D02*
X119884400Y-98028020D01*
X119884400Y-98028020D02*
X119932019Y-98123258D01*
X119932019Y-98123258D02*
X119932019Y-98313734D01*
X119932019Y-98313734D02*
X119884400Y-98408972D01*
X119884400Y-98408972D02*
X119789161Y-98504210D01*
X119789161Y-98504210D02*
X119598685Y-98551829D01*
X119598685Y-98551829D02*
X119265352Y-98551829D01*
X119265352Y-98551829D02*
X119074876Y-98504210D01*
X119074876Y-98504210D02*
X118979638Y-98408972D01*
X118979638Y-98408972D02*
X118932019Y-98313734D01*
X119932019Y-96885163D02*
X119455828Y-97218496D01*
X119932019Y-97456591D02*
X118932019Y-97456591D01*
X118932019Y-97456591D02*
X118932019Y-97075639D01*
X118932019Y-97075639D02*
X118979638Y-96980401D01*
X118979638Y-96980401D02*
X119027257Y-96932782D01*
X119027257Y-96932782D02*
X119122495Y-96885163D01*
X119122495Y-96885163D02*
X119265352Y-96885163D01*
X119265352Y-96885163D02*
X119360590Y-96932782D01*
X119360590Y-96932782D02*
X119408209Y-96980401D01*
X119408209Y-96980401D02*
X119455828Y-97075639D01*
X119455828Y-97075639D02*
X119455828Y-97456591D01*
X120027257Y-95789925D02*
X119979638Y-95885163D01*
X119979638Y-95885163D02*
X119884400Y-95980401D01*
X119884400Y-95980401D02*
X119741542Y-96123258D01*
X119741542Y-96123258D02*
X119693923Y-96218496D01*
X119693923Y-96218496D02*
X119693923Y-96313734D01*
X119932019Y-96266115D02*
X119884400Y-96361353D01*
X119884400Y-96361353D02*
X119789161Y-96456591D01*
X119789161Y-96456591D02*
X119598685Y-96504210D01*
X119598685Y-96504210D02*
X119265352Y-96504210D01*
X119265352Y-96504210D02*
X119074876Y-96456591D01*
X119074876Y-96456591D02*
X118979638Y-96361353D01*
X118979638Y-96361353D02*
X118932019Y-96266115D01*
X118932019Y-96266115D02*
X118932019Y-96075639D01*
X118932019Y-96075639D02*
X118979638Y-95980401D01*
X118979638Y-95980401D02*
X119074876Y-95885163D01*
X119074876Y-95885163D02*
X119265352Y-95837544D01*
X119265352Y-95837544D02*
X119598685Y-95837544D01*
X119598685Y-95837544D02*
X119789161Y-95885163D01*
X119789161Y-95885163D02*
X119884400Y-95980401D01*
X119884400Y-95980401D02*
X119932019Y-96075639D01*
X119932019Y-96075639D02*
X119932019Y-96266115D01*
X118654400Y-99118496D02*
X118654400Y-95747068D01*
X86943745Y-99789925D02*
X86467554Y-100123258D01*
X86943745Y-100361353D02*
X85943745Y-100361353D01*
X85943745Y-100361353D02*
X85943745Y-99980401D01*
X85943745Y-99980401D02*
X85991364Y-99885163D01*
X85991364Y-99885163D02*
X86038983Y-99837544D01*
X86038983Y-99837544D02*
X86134221Y-99789925D01*
X86134221Y-99789925D02*
X86277078Y-99789925D01*
X86277078Y-99789925D02*
X86372316Y-99837544D01*
X86372316Y-99837544D02*
X86419935Y-99885163D01*
X86419935Y-99885163D02*
X86467554Y-99980401D01*
X86467554Y-99980401D02*
X86467554Y-100361353D01*
X86658030Y-99408972D02*
X86658030Y-98932782D01*
X86943745Y-99504210D02*
X85943745Y-99170877D01*
X85943745Y-99170877D02*
X86943745Y-98837544D01*
X86943745Y-98504210D02*
X85943745Y-98504210D01*
X85943745Y-98504210D02*
X86658030Y-98170877D01*
X86658030Y-98170877D02*
X85943745Y-97837544D01*
X85943745Y-97837544D02*
X86943745Y-97837544D01*
X86848506Y-96789925D02*
X86896126Y-96837544D01*
X86896126Y-96837544D02*
X86943745Y-96980401D01*
X86943745Y-96980401D02*
X86943745Y-97075639D01*
X86943745Y-97075639D02*
X86896126Y-97218496D01*
X86896126Y-97218496D02*
X86800887Y-97313734D01*
X86800887Y-97313734D02*
X86705649Y-97361353D01*
X86705649Y-97361353D02*
X86515173Y-97408972D01*
X86515173Y-97408972D02*
X86372316Y-97408972D01*
X86372316Y-97408972D02*
X86181840Y-97361353D01*
X86181840Y-97361353D02*
X86086602Y-97313734D01*
X86086602Y-97313734D02*
X85991364Y-97218496D01*
X85991364Y-97218496D02*
X85943745Y-97075639D01*
X85943745Y-97075639D02*
X85943745Y-96980401D01*
X85943745Y-96980401D02*
X85991364Y-96837544D01*
X85991364Y-96837544D02*
X86038983Y-96789925D01*
X86896126Y-96408972D02*
X86943745Y-96266115D01*
X86943745Y-96266115D02*
X86943745Y-96028020D01*
X86943745Y-96028020D02*
X86896126Y-95932782D01*
X86896126Y-95932782D02*
X86848506Y-95885163D01*
X86848506Y-95885163D02*
X86753268Y-95837544D01*
X86753268Y-95837544D02*
X86658030Y-95837544D01*
X86658030Y-95837544D02*
X86562792Y-95885163D01*
X86562792Y-95885163D02*
X86515173Y-95932782D01*
X86515173Y-95932782D02*
X86467554Y-96028020D01*
X86467554Y-96028020D02*
X86419935Y-96218496D01*
X86419935Y-96218496D02*
X86372316Y-96313734D01*
X86372316Y-96313734D02*
X86324697Y-96361353D01*
X86324697Y-96361353D02*
X86229459Y-96408972D01*
X86229459Y-96408972D02*
X86134221Y-96408972D01*
X86134221Y-96408972D02*
X86038983Y-96361353D01*
X86038983Y-96361353D02*
X85991364Y-96313734D01*
X85991364Y-96313734D02*
X85943745Y-96218496D01*
X85943745Y-96218496D02*
X85943745Y-95980401D01*
X85943745Y-95980401D02*
X85991364Y-95837544D01*
X85666126Y-100499449D02*
X85666126Y-95747068D01*
X91889127Y-97361353D02*
X90889127Y-97361353D01*
X90889127Y-97361353D02*
X90889127Y-97123258D01*
X90889127Y-97123258D02*
X90936746Y-96980401D01*
X90936746Y-96980401D02*
X91031984Y-96885163D01*
X91031984Y-96885163D02*
X91127222Y-96837544D01*
X91127222Y-96837544D02*
X91317698Y-96789925D01*
X91317698Y-96789925D02*
X91460555Y-96789925D01*
X91460555Y-96789925D02*
X91651031Y-96837544D01*
X91651031Y-96837544D02*
X91746269Y-96885163D01*
X91746269Y-96885163D02*
X91841508Y-96980401D01*
X91841508Y-96980401D02*
X91889127Y-97123258D01*
X91889127Y-97123258D02*
X91889127Y-97361353D01*
X90889127Y-96170877D02*
X90889127Y-96075639D01*
X90889127Y-96075639D02*
X90936746Y-95980401D01*
X90936746Y-95980401D02*
X90984365Y-95932782D01*
X90984365Y-95932782D02*
X91079603Y-95885163D01*
X91079603Y-95885163D02*
X91270079Y-95837544D01*
X91270079Y-95837544D02*
X91508174Y-95837544D01*
X91508174Y-95837544D02*
X91698650Y-95885163D01*
X91698650Y-95885163D02*
X91793888Y-95932782D01*
X91793888Y-95932782D02*
X91841508Y-95980401D01*
X91841508Y-95980401D02*
X91889127Y-96075639D01*
X91889127Y-96075639D02*
X91889127Y-96170877D01*
X91889127Y-96170877D02*
X91841508Y-96266115D01*
X91841508Y-96266115D02*
X91793888Y-96313734D01*
X91793888Y-96313734D02*
X91698650Y-96361353D01*
X91698650Y-96361353D02*
X91508174Y-96408972D01*
X91508174Y-96408972D02*
X91270079Y-96408972D01*
X91270079Y-96408972D02*
X91079603Y-96361353D01*
X91079603Y-96361353D02*
X90984365Y-96313734D01*
X90984365Y-96313734D02*
X90936746Y-96266115D01*
X90936746Y-96266115D02*
X90889127Y-96170877D01*
X96939127Y-97361353D02*
X95939127Y-97361353D01*
X95939127Y-97361353D02*
X95939127Y-97123258D01*
X95939127Y-97123258D02*
X95986746Y-96980401D01*
X95986746Y-96980401D02*
X96081984Y-96885163D01*
X96081984Y-96885163D02*
X96177222Y-96837544D01*
X96177222Y-96837544D02*
X96367698Y-96789925D01*
X96367698Y-96789925D02*
X96510555Y-96789925D01*
X96510555Y-96789925D02*
X96701031Y-96837544D01*
X96701031Y-96837544D02*
X96796269Y-96885163D01*
X96796269Y-96885163D02*
X96891508Y-96980401D01*
X96891508Y-96980401D02*
X96939127Y-97123258D01*
X96939127Y-97123258D02*
X96939127Y-97361353D01*
X96034365Y-96408972D02*
X95986746Y-96361353D01*
X95986746Y-96361353D02*
X95939127Y-96266115D01*
X95939127Y-96266115D02*
X95939127Y-96028020D01*
X95939127Y-96028020D02*
X95986746Y-95932782D01*
X95986746Y-95932782D02*
X96034365Y-95885163D01*
X96034365Y-95885163D02*
X96129603Y-95837544D01*
X96129603Y-95837544D02*
X96224841Y-95837544D01*
X96224841Y-95837544D02*
X96367698Y-95885163D01*
X96367698Y-95885163D02*
X96939127Y-96456591D01*
X96939127Y-96456591D02*
X96939127Y-95837544D01*
X129343745Y-98742305D02*
X130343745Y-98504210D01*
X130343745Y-98504210D02*
X129629459Y-98313734D01*
X129629459Y-98313734D02*
X130343745Y-98123258D01*
X130343745Y-98123258D02*
X129343745Y-97885163D01*
X130058030Y-97551829D02*
X130058030Y-97075639D01*
X130343745Y-97647067D02*
X129343745Y-97313734D01*
X129343745Y-97313734D02*
X130343745Y-96980401D01*
X130343745Y-96647067D02*
X129343745Y-96647067D01*
X129343745Y-96313734D02*
X129343745Y-95742306D01*
X130343745Y-96028020D02*
X129343745Y-96028020D01*
X129066126Y-98785163D02*
X129066126Y-95747068D01*
X135182019Y-99361354D02*
X134705828Y-99694687D01*
X135182019Y-99932782D02*
X134182019Y-99932782D01*
X134182019Y-99932782D02*
X134182019Y-99551830D01*
X134182019Y-99551830D02*
X134229638Y-99456592D01*
X134229638Y-99456592D02*
X134277257Y-99408973D01*
X134277257Y-99408973D02*
X134372495Y-99361354D01*
X134372495Y-99361354D02*
X134515352Y-99361354D01*
X134515352Y-99361354D02*
X134610590Y-99408973D01*
X134610590Y-99408973D02*
X134658209Y-99456592D01*
X134658209Y-99456592D02*
X134705828Y-99551830D01*
X134705828Y-99551830D02*
X134705828Y-99932782D01*
X134658209Y-98932782D02*
X134658209Y-98599449D01*
X135182019Y-98456592D02*
X135182019Y-98932782D01*
X135182019Y-98932782D02*
X134182019Y-98932782D01*
X134182019Y-98932782D02*
X134182019Y-98456592D01*
X135134400Y-98075639D02*
X135182019Y-97932782D01*
X135182019Y-97932782D02*
X135182019Y-97694687D01*
X135182019Y-97694687D02*
X135134400Y-97599449D01*
X135134400Y-97599449D02*
X135086780Y-97551830D01*
X135086780Y-97551830D02*
X134991542Y-97504211D01*
X134991542Y-97504211D02*
X134896304Y-97504211D01*
X134896304Y-97504211D02*
X134801066Y-97551830D01*
X134801066Y-97551830D02*
X134753447Y-97599449D01*
X134753447Y-97599449D02*
X134705828Y-97694687D01*
X134705828Y-97694687D02*
X134658209Y-97885163D01*
X134658209Y-97885163D02*
X134610590Y-97980401D01*
X134610590Y-97980401D02*
X134562971Y-98028020D01*
X134562971Y-98028020D02*
X134467733Y-98075639D01*
X134467733Y-98075639D02*
X134372495Y-98075639D01*
X134372495Y-98075639D02*
X134277257Y-98028020D01*
X134277257Y-98028020D02*
X134229638Y-97980401D01*
X134229638Y-97980401D02*
X134182019Y-97885163D01*
X134182019Y-97885163D02*
X134182019Y-97647068D01*
X134182019Y-97647068D02*
X134229638Y-97504211D01*
X134658209Y-97075639D02*
X134658209Y-96742306D01*
X135182019Y-96599449D02*
X135182019Y-97075639D01*
X135182019Y-97075639D02*
X134182019Y-97075639D01*
X134182019Y-97075639D02*
X134182019Y-96599449D01*
X134182019Y-96313734D02*
X134182019Y-95742306D01*
X135182019Y-96028020D02*
X134182019Y-96028020D01*
X133904400Y-100070878D02*
X133904400Y-95747068D01*
X104523077Y-97361353D02*
X103523077Y-97361353D01*
X103523077Y-97361353D02*
X103523077Y-97123258D01*
X103523077Y-97123258D02*
X103570696Y-96980401D01*
X103570696Y-96980401D02*
X103665934Y-96885163D01*
X103665934Y-96885163D02*
X103761172Y-96837544D01*
X103761172Y-96837544D02*
X103951648Y-96789925D01*
X103951648Y-96789925D02*
X104094505Y-96789925D01*
X104094505Y-96789925D02*
X104284981Y-96837544D01*
X104284981Y-96837544D02*
X104380219Y-96885163D01*
X104380219Y-96885163D02*
X104475458Y-96980401D01*
X104475458Y-96980401D02*
X104523077Y-97123258D01*
X104523077Y-97123258D02*
X104523077Y-97361353D01*
X103523077Y-96456591D02*
X103523077Y-95837544D01*
X103523077Y-95837544D02*
X103904029Y-96170877D01*
X103904029Y-96170877D02*
X103904029Y-96028020D01*
X103904029Y-96028020D02*
X103951648Y-95932782D01*
X103951648Y-95932782D02*
X103999267Y-95885163D01*
X103999267Y-95885163D02*
X104094505Y-95837544D01*
X104094505Y-95837544D02*
X104332600Y-95837544D01*
X104332600Y-95837544D02*
X104427838Y-95885163D01*
X104427838Y-95885163D02*
X104475458Y-95932782D01*
X104475458Y-95932782D02*
X104523077Y-96028020D01*
X104523077Y-96028020D02*
X104523077Y-96313734D01*
X104523077Y-96313734D02*
X104475458Y-96408972D01*
X104475458Y-96408972D02*
X104427838Y-96456591D01*
X109843745Y-97694686D02*
X108843745Y-97694686D01*
X109843745Y-97218496D02*
X108843745Y-97218496D01*
X108843745Y-97218496D02*
X109843745Y-96647068D01*
X109843745Y-96647068D02*
X108843745Y-96647068D01*
X108843745Y-96313734D02*
X108843745Y-95742306D01*
X109843745Y-96028020D02*
X108843745Y-96028020D01*
X108566126Y-97832782D02*
X108566126Y-95747068D01*
X99459497Y-97361353D02*
X98459497Y-97361353D01*
X98459497Y-97361353D02*
X98459497Y-97123258D01*
X98459497Y-97123258D02*
X98507116Y-96980401D01*
X98507116Y-96980401D02*
X98602354Y-96885163D01*
X98602354Y-96885163D02*
X98697592Y-96837544D01*
X98697592Y-96837544D02*
X98888068Y-96789925D01*
X98888068Y-96789925D02*
X99030925Y-96789925D01*
X99030925Y-96789925D02*
X99221401Y-96837544D01*
X99221401Y-96837544D02*
X99316639Y-96885163D01*
X99316639Y-96885163D02*
X99411878Y-96980401D01*
X99411878Y-96980401D02*
X99459497Y-97123258D01*
X99459497Y-97123258D02*
X99459497Y-97361353D01*
X98459497Y-95932782D02*
X98459497Y-96123258D01*
X98459497Y-96123258D02*
X98507116Y-96218496D01*
X98507116Y-96218496D02*
X98554735Y-96266115D01*
X98554735Y-96266115D02*
X98697592Y-96361353D01*
X98697592Y-96361353D02*
X98888068Y-96408972D01*
X98888068Y-96408972D02*
X99269020Y-96408972D01*
X99269020Y-96408972D02*
X99364258Y-96361353D01*
X99364258Y-96361353D02*
X99411878Y-96313734D01*
X99411878Y-96313734D02*
X99459497Y-96218496D01*
X99459497Y-96218496D02*
X99459497Y-96028020D01*
X99459497Y-96028020D02*
X99411878Y-95932782D01*
X99411878Y-95932782D02*
X99364258Y-95885163D01*
X99364258Y-95885163D02*
X99269020Y-95837544D01*
X99269020Y-95837544D02*
X99030925Y-95837544D01*
X99030925Y-95837544D02*
X98935687Y-95885163D01*
X98935687Y-95885163D02*
X98888068Y-95932782D01*
X98888068Y-95932782D02*
X98840449Y-96028020D01*
X98840449Y-96028020D02*
X98840449Y-96218496D01*
X98840449Y-96218496D02*
X98888068Y-96313734D01*
X98888068Y-96313734D02*
X98935687Y-96361353D01*
X98935687Y-96361353D02*
X99030925Y-96408972D01*
X117432019Y-99504210D02*
X116432019Y-99504210D01*
X116432019Y-99504210D02*
X117146304Y-99170877D01*
X117146304Y-99170877D02*
X116432019Y-98837544D01*
X116432019Y-98837544D02*
X117432019Y-98837544D01*
X117432019Y-97789925D02*
X116955828Y-98123258D01*
X117432019Y-98361353D02*
X116432019Y-98361353D01*
X116432019Y-98361353D02*
X116432019Y-97980401D01*
X116432019Y-97980401D02*
X116479638Y-97885163D01*
X116479638Y-97885163D02*
X116527257Y-97837544D01*
X116527257Y-97837544D02*
X116622495Y-97789925D01*
X116622495Y-97789925D02*
X116765352Y-97789925D01*
X116765352Y-97789925D02*
X116860590Y-97837544D01*
X116860590Y-97837544D02*
X116908209Y-97885163D01*
X116908209Y-97885163D02*
X116955828Y-97980401D01*
X116955828Y-97980401D02*
X116955828Y-98361353D01*
X116908209Y-97361353D02*
X116908209Y-97028020D01*
X117432019Y-96885163D02*
X117432019Y-97361353D01*
X117432019Y-97361353D02*
X116432019Y-97361353D01*
X116432019Y-97361353D02*
X116432019Y-96885163D01*
X117527257Y-95789925D02*
X117479638Y-95885163D01*
X117479638Y-95885163D02*
X117384400Y-95980401D01*
X117384400Y-95980401D02*
X117241542Y-96123258D01*
X117241542Y-96123258D02*
X117193923Y-96218496D01*
X117193923Y-96218496D02*
X117193923Y-96313734D01*
X117432019Y-96266115D02*
X117384400Y-96361353D01*
X117384400Y-96361353D02*
X117289161Y-96456591D01*
X117289161Y-96456591D02*
X117098685Y-96504210D01*
X117098685Y-96504210D02*
X116765352Y-96504210D01*
X116765352Y-96504210D02*
X116574876Y-96456591D01*
X116574876Y-96456591D02*
X116479638Y-96361353D01*
X116479638Y-96361353D02*
X116432019Y-96266115D01*
X116432019Y-96266115D02*
X116432019Y-96075639D01*
X116432019Y-96075639D02*
X116479638Y-95980401D01*
X116479638Y-95980401D02*
X116574876Y-95885163D01*
X116574876Y-95885163D02*
X116765352Y-95837544D01*
X116765352Y-95837544D02*
X117098685Y-95837544D01*
X117098685Y-95837544D02*
X117289161Y-95885163D01*
X117289161Y-95885163D02*
X117384400Y-95980401D01*
X117384400Y-95980401D02*
X117432019Y-96075639D01*
X117432019Y-96075639D02*
X117432019Y-96266115D01*
X116154400Y-99642306D02*
X116154400Y-95747068D01*
X140232019Y-98694687D02*
X139755828Y-99028020D01*
X140232019Y-99266115D02*
X139232019Y-99266115D01*
X139232019Y-99266115D02*
X139232019Y-98885163D01*
X139232019Y-98885163D02*
X139279638Y-98789925D01*
X139279638Y-98789925D02*
X139327257Y-98742306D01*
X139327257Y-98742306D02*
X139422495Y-98694687D01*
X139422495Y-98694687D02*
X139565352Y-98694687D01*
X139565352Y-98694687D02*
X139660590Y-98742306D01*
X139660590Y-98742306D02*
X139708209Y-98789925D01*
X139708209Y-98789925D02*
X139755828Y-98885163D01*
X139755828Y-98885163D02*
X139755828Y-99266115D01*
X139708209Y-97932782D02*
X139708209Y-98266115D01*
X140232019Y-98266115D02*
X139232019Y-98266115D01*
X139232019Y-98266115D02*
X139232019Y-97789925D01*
X140184400Y-97456591D02*
X140232019Y-97313734D01*
X140232019Y-97313734D02*
X140232019Y-97075639D01*
X140232019Y-97075639D02*
X140184400Y-96980401D01*
X140184400Y-96980401D02*
X140136780Y-96932782D01*
X140136780Y-96932782D02*
X140041542Y-96885163D01*
X140041542Y-96885163D02*
X139946304Y-96885163D01*
X139946304Y-96885163D02*
X139851066Y-96932782D01*
X139851066Y-96932782D02*
X139803447Y-96980401D01*
X139803447Y-96980401D02*
X139755828Y-97075639D01*
X139755828Y-97075639D02*
X139708209Y-97266115D01*
X139708209Y-97266115D02*
X139660590Y-97361353D01*
X139660590Y-97361353D02*
X139612971Y-97408972D01*
X139612971Y-97408972D02*
X139517733Y-97456591D01*
X139517733Y-97456591D02*
X139422495Y-97456591D01*
X139422495Y-97456591D02*
X139327257Y-97408972D01*
X139327257Y-97408972D02*
X139279638Y-97361353D01*
X139279638Y-97361353D02*
X139232019Y-97266115D01*
X139232019Y-97266115D02*
X139232019Y-97028020D01*
X139232019Y-97028020D02*
X139279638Y-96885163D01*
X140232019Y-96456591D02*
X139232019Y-96456591D01*
X139708209Y-96456591D02*
X139708209Y-95885163D01*
X140232019Y-95885163D02*
X139232019Y-95885163D01*
X138954400Y-99404211D02*
X138954400Y-95747068D01*
X123982019Y-97647067D02*
X124982019Y-97408972D01*
X124982019Y-97408972D02*
X124267733Y-97218496D01*
X124267733Y-97218496D02*
X124982019Y-97028020D01*
X124982019Y-97028020D02*
X123982019Y-96789925D01*
X124982019Y-95837544D02*
X124505828Y-96170877D01*
X124982019Y-96408972D02*
X123982019Y-96408972D01*
X123982019Y-96408972D02*
X123982019Y-96028020D01*
X123982019Y-96028020D02*
X124029638Y-95932782D01*
X124029638Y-95932782D02*
X124077257Y-95885163D01*
X124077257Y-95885163D02*
X124172495Y-95837544D01*
X124172495Y-95837544D02*
X124315352Y-95837544D01*
X124315352Y-95837544D02*
X124410590Y-95885163D01*
X124410590Y-95885163D02*
X124458209Y-95932782D01*
X124458209Y-95932782D02*
X124505828Y-96028020D01*
X124505828Y-96028020D02*
X124505828Y-96408972D01*
X123704400Y-97689925D02*
X123704400Y-95747068D01*
X114743745Y-98885163D02*
X113743745Y-98885163D01*
X114219935Y-98885163D02*
X114219935Y-98313735D01*
X114743745Y-98313735D02*
X113743745Y-98313735D01*
X114458030Y-97885163D02*
X114458030Y-97408973D01*
X114743745Y-97980401D02*
X113743745Y-97647068D01*
X113743745Y-97647068D02*
X114743745Y-97313735D01*
X114743745Y-96504211D02*
X114743745Y-96980401D01*
X114743745Y-96980401D02*
X113743745Y-96980401D01*
X113743745Y-96313734D02*
X113743745Y-95742306D01*
X114743745Y-96028020D02*
X113743745Y-96028020D01*
X113466126Y-99023259D02*
X113466126Y-95747068D01*
X132069935Y-100123258D02*
X132117554Y-99980401D01*
X132117554Y-99980401D02*
X132165173Y-99932782D01*
X132165173Y-99932782D02*
X132260411Y-99885163D01*
X132260411Y-99885163D02*
X132403268Y-99885163D01*
X132403268Y-99885163D02*
X132498506Y-99932782D01*
X132498506Y-99932782D02*
X132546126Y-99980401D01*
X132546126Y-99980401D02*
X132593745Y-100075639D01*
X132593745Y-100075639D02*
X132593745Y-100456591D01*
X132593745Y-100456591D02*
X131593745Y-100456591D01*
X131593745Y-100456591D02*
X131593745Y-100123258D01*
X131593745Y-100123258D02*
X131641364Y-100028020D01*
X131641364Y-100028020D02*
X131688983Y-99980401D01*
X131688983Y-99980401D02*
X131784221Y-99932782D01*
X131784221Y-99932782D02*
X131879459Y-99932782D01*
X131879459Y-99932782D02*
X131974697Y-99980401D01*
X131974697Y-99980401D02*
X132022316Y-100028020D01*
X132022316Y-100028020D02*
X132069935Y-100123258D01*
X132069935Y-100123258D02*
X132069935Y-100456591D01*
X131593745Y-99456591D02*
X132403268Y-99456591D01*
X132403268Y-99456591D02*
X132498506Y-99408972D01*
X132498506Y-99408972D02*
X132546126Y-99361353D01*
X132546126Y-99361353D02*
X132593745Y-99266115D01*
X132593745Y-99266115D02*
X132593745Y-99075639D01*
X132593745Y-99075639D02*
X132546126Y-98980401D01*
X132546126Y-98980401D02*
X132498506Y-98932782D01*
X132498506Y-98932782D02*
X132403268Y-98885163D01*
X132403268Y-98885163D02*
X131593745Y-98885163D01*
X132546126Y-98456591D02*
X132593745Y-98313734D01*
X132593745Y-98313734D02*
X132593745Y-98075639D01*
X132593745Y-98075639D02*
X132546126Y-97980401D01*
X132546126Y-97980401D02*
X132498506Y-97932782D01*
X132498506Y-97932782D02*
X132403268Y-97885163D01*
X132403268Y-97885163D02*
X132308030Y-97885163D01*
X132308030Y-97885163D02*
X132212792Y-97932782D01*
X132212792Y-97932782D02*
X132165173Y-97980401D01*
X132165173Y-97980401D02*
X132117554Y-98075639D01*
X132117554Y-98075639D02*
X132069935Y-98266115D01*
X132069935Y-98266115D02*
X132022316Y-98361353D01*
X132022316Y-98361353D02*
X131974697Y-98408972D01*
X131974697Y-98408972D02*
X131879459Y-98456591D01*
X131879459Y-98456591D02*
X131784221Y-98456591D01*
X131784221Y-98456591D02*
X131688983Y-98408972D01*
X131688983Y-98408972D02*
X131641364Y-98361353D01*
X131641364Y-98361353D02*
X131593745Y-98266115D01*
X131593745Y-98266115D02*
X131593745Y-98028020D01*
X131593745Y-98028020D02*
X131641364Y-97885163D01*
X132593745Y-96885163D02*
X132117554Y-97218496D01*
X132593745Y-97456591D02*
X131593745Y-97456591D01*
X131593745Y-97456591D02*
X131593745Y-97075639D01*
X131593745Y-97075639D02*
X131641364Y-96980401D01*
X131641364Y-96980401D02*
X131688983Y-96932782D01*
X131688983Y-96932782D02*
X131784221Y-96885163D01*
X131784221Y-96885163D02*
X131927078Y-96885163D01*
X131927078Y-96885163D02*
X132022316Y-96932782D01*
X132022316Y-96932782D02*
X132069935Y-96980401D01*
X132069935Y-96980401D02*
X132117554Y-97075639D01*
X132117554Y-97075639D02*
X132117554Y-97456591D01*
X132688983Y-95789925D02*
X132641364Y-95885163D01*
X132641364Y-95885163D02*
X132546126Y-95980401D01*
X132546126Y-95980401D02*
X132403268Y-96123258D01*
X132403268Y-96123258D02*
X132355649Y-96218496D01*
X132355649Y-96218496D02*
X132355649Y-96313734D01*
X132593745Y-96266115D02*
X132546126Y-96361353D01*
X132546126Y-96361353D02*
X132450887Y-96456591D01*
X132450887Y-96456591D02*
X132260411Y-96504210D01*
X132260411Y-96504210D02*
X131927078Y-96504210D01*
X131927078Y-96504210D02*
X131736602Y-96456591D01*
X131736602Y-96456591D02*
X131641364Y-96361353D01*
X131641364Y-96361353D02*
X131593745Y-96266115D01*
X131593745Y-96266115D02*
X131593745Y-96075639D01*
X131593745Y-96075639D02*
X131641364Y-95980401D01*
X131641364Y-95980401D02*
X131736602Y-95885163D01*
X131736602Y-95885163D02*
X131927078Y-95837544D01*
X131927078Y-95837544D02*
X132260411Y-95837544D01*
X132260411Y-95837544D02*
X132450887Y-95885163D01*
X132450887Y-95885163D02*
X132546126Y-95980401D01*
X132546126Y-95980401D02*
X132593745Y-96075639D01*
X132593745Y-96075639D02*
X132593745Y-96266115D01*
X131316126Y-100594687D02*
X131316126Y-95747068D01*
X106939127Y-97361353D02*
X105939127Y-97361353D01*
X105939127Y-97361353D02*
X105939127Y-97123258D01*
X105939127Y-97123258D02*
X105986746Y-96980401D01*
X105986746Y-96980401D02*
X106081984Y-96885163D01*
X106081984Y-96885163D02*
X106177222Y-96837544D01*
X106177222Y-96837544D02*
X106367698Y-96789925D01*
X106367698Y-96789925D02*
X106510555Y-96789925D01*
X106510555Y-96789925D02*
X106701031Y-96837544D01*
X106701031Y-96837544D02*
X106796269Y-96885163D01*
X106796269Y-96885163D02*
X106891508Y-96980401D01*
X106891508Y-96980401D02*
X106939127Y-97123258D01*
X106939127Y-97123258D02*
X106939127Y-97361353D01*
X106272460Y-95932782D02*
X106939127Y-95932782D01*
X105891508Y-96170877D02*
X106605793Y-96408972D01*
X106605793Y-96408972D02*
X106605793Y-95789925D01*
X84289127Y-97361353D02*
X83289127Y-97361353D01*
X83289127Y-97361353D02*
X83289127Y-97123258D01*
X83289127Y-97123258D02*
X83336746Y-96980401D01*
X83336746Y-96980401D02*
X83431984Y-96885163D01*
X83431984Y-96885163D02*
X83527222Y-96837544D01*
X83527222Y-96837544D02*
X83717698Y-96789925D01*
X83717698Y-96789925D02*
X83860555Y-96789925D01*
X83860555Y-96789925D02*
X84051031Y-96837544D01*
X84051031Y-96837544D02*
X84146269Y-96885163D01*
X84146269Y-96885163D02*
X84241508Y-96980401D01*
X84241508Y-96980401D02*
X84289127Y-97123258D01*
X84289127Y-97123258D02*
X84289127Y-97361353D01*
X83289127Y-96456591D02*
X83289127Y-95789925D01*
X83289127Y-95789925D02*
X84289127Y-96218496D01*
X112493745Y-98075638D02*
X111493745Y-98075638D01*
X111493745Y-98075638D02*
X112493745Y-97504210D01*
X112493745Y-97504210D02*
X111493745Y-97504210D01*
X112493745Y-97028019D02*
X111493745Y-97028019D01*
X111493745Y-97028019D02*
X112208030Y-96694686D01*
X112208030Y-96694686D02*
X111493745Y-96361353D01*
X111493745Y-96361353D02*
X112493745Y-96361353D01*
X112493745Y-95885162D02*
X111493745Y-95885162D01*
X111216126Y-98213734D02*
X111216126Y-95747068D01*
X94439127Y-97361353D02*
X93439127Y-97361353D01*
X93439127Y-97361353D02*
X93439127Y-97123258D01*
X93439127Y-97123258D02*
X93486746Y-96980401D01*
X93486746Y-96980401D02*
X93581984Y-96885163D01*
X93581984Y-96885163D02*
X93677222Y-96837544D01*
X93677222Y-96837544D02*
X93867698Y-96789925D01*
X93867698Y-96789925D02*
X94010555Y-96789925D01*
X94010555Y-96789925D02*
X94201031Y-96837544D01*
X94201031Y-96837544D02*
X94296269Y-96885163D01*
X94296269Y-96885163D02*
X94391508Y-96980401D01*
X94391508Y-96980401D02*
X94439127Y-97123258D01*
X94439127Y-97123258D02*
X94439127Y-97361353D01*
X94439127Y-95837544D02*
X94439127Y-96408972D01*
X94439127Y-96123258D02*
X93439127Y-96123258D01*
X93439127Y-96123258D02*
X93581984Y-96218496D01*
X93581984Y-96218496D02*
X93677222Y-96313734D01*
X93677222Y-96313734D02*
X93724841Y-96408972D01*
X127008209Y-99932782D02*
X127055828Y-99789925D01*
X127055828Y-99789925D02*
X127103447Y-99742306D01*
X127103447Y-99742306D02*
X127198685Y-99694687D01*
X127198685Y-99694687D02*
X127341542Y-99694687D01*
X127341542Y-99694687D02*
X127436780Y-99742306D01*
X127436780Y-99742306D02*
X127484400Y-99789925D01*
X127484400Y-99789925D02*
X127532019Y-99885163D01*
X127532019Y-99885163D02*
X127532019Y-100266115D01*
X127532019Y-100266115D02*
X126532019Y-100266115D01*
X126532019Y-100266115D02*
X126532019Y-99932782D01*
X126532019Y-99932782D02*
X126579638Y-99837544D01*
X126579638Y-99837544D02*
X126627257Y-99789925D01*
X126627257Y-99789925D02*
X126722495Y-99742306D01*
X126722495Y-99742306D02*
X126817733Y-99742306D01*
X126817733Y-99742306D02*
X126912971Y-99789925D01*
X126912971Y-99789925D02*
X126960590Y-99837544D01*
X126960590Y-99837544D02*
X127008209Y-99932782D01*
X127008209Y-99932782D02*
X127008209Y-100266115D01*
X126532019Y-99266115D02*
X127341542Y-99266115D01*
X127341542Y-99266115D02*
X127436780Y-99218496D01*
X127436780Y-99218496D02*
X127484400Y-99170877D01*
X127484400Y-99170877D02*
X127532019Y-99075639D01*
X127532019Y-99075639D02*
X127532019Y-98885163D01*
X127532019Y-98885163D02*
X127484400Y-98789925D01*
X127484400Y-98789925D02*
X127436780Y-98742306D01*
X127436780Y-98742306D02*
X127341542Y-98694687D01*
X127341542Y-98694687D02*
X126532019Y-98694687D01*
X127484400Y-98266115D02*
X127532019Y-98123258D01*
X127532019Y-98123258D02*
X127532019Y-97885163D01*
X127532019Y-97885163D02*
X127484400Y-97789925D01*
X127484400Y-97789925D02*
X127436780Y-97742306D01*
X127436780Y-97742306D02*
X127341542Y-97694687D01*
X127341542Y-97694687D02*
X127246304Y-97694687D01*
X127246304Y-97694687D02*
X127151066Y-97742306D01*
X127151066Y-97742306D02*
X127103447Y-97789925D01*
X127103447Y-97789925D02*
X127055828Y-97885163D01*
X127055828Y-97885163D02*
X127008209Y-98075639D01*
X127008209Y-98075639D02*
X126960590Y-98170877D01*
X126960590Y-98170877D02*
X126912971Y-98218496D01*
X126912971Y-98218496D02*
X126817733Y-98266115D01*
X126817733Y-98266115D02*
X126722495Y-98266115D01*
X126722495Y-98266115D02*
X126627257Y-98218496D01*
X126627257Y-98218496D02*
X126579638Y-98170877D01*
X126579638Y-98170877D02*
X126532019Y-98075639D01*
X126532019Y-98075639D02*
X126532019Y-97837544D01*
X126532019Y-97837544D02*
X126579638Y-97694687D01*
X127246304Y-97313734D02*
X127246304Y-96837544D01*
X127532019Y-97408972D02*
X126532019Y-97075639D01*
X126532019Y-97075639D02*
X127532019Y-96742306D01*
X127436780Y-95837544D02*
X127484400Y-95885163D01*
X127484400Y-95885163D02*
X127532019Y-96028020D01*
X127532019Y-96028020D02*
X127532019Y-96123258D01*
X127532019Y-96123258D02*
X127484400Y-96266115D01*
X127484400Y-96266115D02*
X127389161Y-96361353D01*
X127389161Y-96361353D02*
X127293923Y-96408972D01*
X127293923Y-96408972D02*
X127103447Y-96456591D01*
X127103447Y-96456591D02*
X126960590Y-96456591D01*
X126960590Y-96456591D02*
X126770114Y-96408972D01*
X126770114Y-96408972D02*
X126674876Y-96361353D01*
X126674876Y-96361353D02*
X126579638Y-96266115D01*
X126579638Y-96266115D02*
X126532019Y-96123258D01*
X126532019Y-96123258D02*
X126532019Y-96028020D01*
X126532019Y-96028020D02*
X126579638Y-95885163D01*
X126579638Y-95885163D02*
X126627257Y-95837544D01*
X126254400Y-100404211D02*
X126254400Y-95747068D01*
X122432019Y-96837544D02*
X121955828Y-97170877D01*
X122432019Y-97408972D02*
X121432019Y-97408972D01*
X121432019Y-97408972D02*
X121432019Y-97028020D01*
X121432019Y-97028020D02*
X121479638Y-96932782D01*
X121479638Y-96932782D02*
X121527257Y-96885163D01*
X121527257Y-96885163D02*
X121622495Y-96837544D01*
X121622495Y-96837544D02*
X121765352Y-96837544D01*
X121765352Y-96837544D02*
X121860590Y-96885163D01*
X121860590Y-96885163D02*
X121908209Y-96932782D01*
X121908209Y-96932782D02*
X121955828Y-97028020D01*
X121955828Y-97028020D02*
X121955828Y-97408972D01*
X122432019Y-96408972D02*
X121432019Y-96408972D01*
X121432019Y-96408972D02*
X121432019Y-96170877D01*
X121432019Y-96170877D02*
X121479638Y-96028020D01*
X121479638Y-96028020D02*
X121574876Y-95932782D01*
X121574876Y-95932782D02*
X121670114Y-95885163D01*
X121670114Y-95885163D02*
X121860590Y-95837544D01*
X121860590Y-95837544D02*
X122003447Y-95837544D01*
X122003447Y-95837544D02*
X122193923Y-95885163D01*
X122193923Y-95885163D02*
X122289161Y-95932782D01*
X122289161Y-95932782D02*
X122384400Y-96028020D01*
X122384400Y-96028020D02*
X122432019Y-96170877D01*
X122432019Y-96170877D02*
X122432019Y-96408972D01*
X121154400Y-97547068D02*
X121154400Y-95747068D01*
X102016287Y-97361353D02*
X101016287Y-97361353D01*
X101016287Y-97361353D02*
X101016287Y-97123258D01*
X101016287Y-97123258D02*
X101063906Y-96980401D01*
X101063906Y-96980401D02*
X101159144Y-96885163D01*
X101159144Y-96885163D02*
X101254382Y-96837544D01*
X101254382Y-96837544D02*
X101444858Y-96789925D01*
X101444858Y-96789925D02*
X101587715Y-96789925D01*
X101587715Y-96789925D02*
X101778191Y-96837544D01*
X101778191Y-96837544D02*
X101873429Y-96885163D01*
X101873429Y-96885163D02*
X101968668Y-96980401D01*
X101968668Y-96980401D02*
X102016287Y-97123258D01*
X102016287Y-97123258D02*
X102016287Y-97361353D01*
X101016287Y-95885163D02*
X101016287Y-96361353D01*
X101016287Y-96361353D02*
X101492477Y-96408972D01*
X101492477Y-96408972D02*
X101444858Y-96361353D01*
X101444858Y-96361353D02*
X101397239Y-96266115D01*
X101397239Y-96266115D02*
X101397239Y-96028020D01*
X101397239Y-96028020D02*
X101444858Y-95932782D01*
X101444858Y-95932782D02*
X101492477Y-95885163D01*
X101492477Y-95885163D02*
X101587715Y-95837544D01*
X101587715Y-95837544D02*
X101825810Y-95837544D01*
X101825810Y-95837544D02*
X101921048Y-95885163D01*
X101921048Y-95885163D02*
X101968668Y-95932782D01*
X101968668Y-95932782D02*
X102016287Y-96028020D01*
X102016287Y-96028020D02*
X102016287Y-96266115D01*
X102016287Y-96266115D02*
X101968668Y-96361353D01*
X101968668Y-96361353D02*
X101921048Y-96408972D01*
X137682019Y-97504210D02*
X136682019Y-97504210D01*
X136682019Y-97504210D02*
X137396304Y-97170877D01*
X137396304Y-97170877D02*
X136682019Y-96837544D01*
X136682019Y-96837544D02*
X137682019Y-96837544D01*
X137682019Y-95837544D02*
X137682019Y-96408972D01*
X137682019Y-96123258D02*
X136682019Y-96123258D01*
X136682019Y-96123258D02*
X136824876Y-96218496D01*
X136824876Y-96218496D02*
X136920114Y-96313734D01*
X136920114Y-96313734D02*
X136967733Y-96408972D01*
X136404400Y-97642306D02*
X136404400Y-95747068D01*
D11*
X87484819Y-124707619D02*
X87484819Y-125279047D01*
X87484819Y-124993333D02*
X86484819Y-124993333D01*
X86484819Y-124993333D02*
X86627676Y-125088571D01*
X86627676Y-125088571D02*
X86722914Y-125183809D01*
X86722914Y-125183809D02*
X86770533Y-125279047D01*
X86484819Y-124088571D02*
X86484819Y-123993333D01*
X86484819Y-123993333D02*
X86532438Y-123898095D01*
X86532438Y-123898095D02*
X86580057Y-123850476D01*
X86580057Y-123850476D02*
X86675295Y-123802857D01*
X86675295Y-123802857D02*
X86865771Y-123755238D01*
X86865771Y-123755238D02*
X87103866Y-123755238D01*
X87103866Y-123755238D02*
X87294342Y-123802857D01*
X87294342Y-123802857D02*
X87389580Y-123850476D01*
X87389580Y-123850476D02*
X87437200Y-123898095D01*
X87437200Y-123898095D02*
X87484819Y-123993333D01*
X87484819Y-123993333D02*
X87484819Y-124088571D01*
X87484819Y-124088571D02*
X87437200Y-124183809D01*
X87437200Y-124183809D02*
X87389580Y-124231428D01*
X87389580Y-124231428D02*
X87294342Y-124279047D01*
X87294342Y-124279047D02*
X87103866Y-124326666D01*
X87103866Y-124326666D02*
X86865771Y-124326666D01*
X86865771Y-124326666D02*
X86675295Y-124279047D01*
X86675295Y-124279047D02*
X86580057Y-124231428D01*
X86580057Y-124231428D02*
X86532438Y-124183809D01*
X86532438Y-124183809D02*
X86484819Y-124088571D01*
X86484819Y-123136190D02*
X86484819Y-123040952D01*
X86484819Y-123040952D02*
X86532438Y-122945714D01*
X86532438Y-122945714D02*
X86580057Y-122898095D01*
X86580057Y-122898095D02*
X86675295Y-122850476D01*
X86675295Y-122850476D02*
X86865771Y-122802857D01*
X86865771Y-122802857D02*
X87103866Y-122802857D01*
X87103866Y-122802857D02*
X87294342Y-122850476D01*
X87294342Y-122850476D02*
X87389580Y-122898095D01*
X87389580Y-122898095D02*
X87437200Y-122945714D01*
X87437200Y-122945714D02*
X87484819Y-123040952D01*
X87484819Y-123040952D02*
X87484819Y-123136190D01*
X87484819Y-123136190D02*
X87437200Y-123231428D01*
X87437200Y-123231428D02*
X87389580Y-123279047D01*
X87389580Y-123279047D02*
X87294342Y-123326666D01*
X87294342Y-123326666D02*
X87103866Y-123374285D01*
X87103866Y-123374285D02*
X86865771Y-123374285D01*
X86865771Y-123374285D02*
X86675295Y-123326666D01*
X86675295Y-123326666D02*
X86580057Y-123279047D01*
X86580057Y-123279047D02*
X86532438Y-123231428D01*
X86532438Y-123231428D02*
X86484819Y-123136190D01*
X86818152Y-122374285D02*
X87484819Y-122374285D01*
X86913390Y-122374285D02*
X86865771Y-122326666D01*
X86865771Y-122326666D02*
X86818152Y-122231428D01*
X86818152Y-122231428D02*
X86818152Y-122088571D01*
X86818152Y-122088571D02*
X86865771Y-121993333D01*
X86865771Y-121993333D02*
X86961009Y-121945714D01*
X86961009Y-121945714D02*
X87484819Y-121945714D01*
X86961009Y-121136190D02*
X86961009Y-121469523D01*
X87484819Y-121469523D02*
X86484819Y-121469523D01*
X86484819Y-121469523D02*
X86484819Y-120993333D01*
X131405714Y-121644819D02*
X130834286Y-121644819D01*
X131120000Y-121644819D02*
X131120000Y-120644819D01*
X131120000Y-120644819D02*
X131024762Y-120787676D01*
X131024762Y-120787676D02*
X130929524Y-120882914D01*
X130929524Y-120882914D02*
X130834286Y-120930533D01*
X131834286Y-121644819D02*
X131834286Y-120644819D01*
X132405714Y-121644819D02*
X131977143Y-121073390D01*
X132405714Y-120644819D02*
X131834286Y-121216247D01*
X136104819Y-123715357D02*
X136104819Y-124191547D01*
X136104819Y-124191547D02*
X135104819Y-124191547D01*
X135581009Y-123382023D02*
X135581009Y-123048690D01*
X136104819Y-122905833D02*
X136104819Y-123382023D01*
X136104819Y-123382023D02*
X135104819Y-123382023D01*
X135104819Y-123382023D02*
X135104819Y-122905833D01*
X136104819Y-122477261D02*
X135104819Y-122477261D01*
X135104819Y-122477261D02*
X135104819Y-122239166D01*
X135104819Y-122239166D02*
X135152438Y-122096309D01*
X135152438Y-122096309D02*
X135247676Y-122001071D01*
X135247676Y-122001071D02*
X135342914Y-121953452D01*
X135342914Y-121953452D02*
X135533390Y-121905833D01*
X135533390Y-121905833D02*
X135676247Y-121905833D01*
X135676247Y-121905833D02*
X135866723Y-121953452D01*
X135866723Y-121953452D02*
X135961961Y-122001071D01*
X135961961Y-122001071D02*
X136057200Y-122096309D01*
X136057200Y-122096309D02*
X136104819Y-122239166D01*
X136104819Y-122239166D02*
X136104819Y-122477261D01*
D10*
X140074365Y-130733735D02*
X139598174Y-131067068D01*
X140074365Y-131305163D02*
X139074365Y-131305163D01*
X139074365Y-131305163D02*
X139074365Y-130924211D01*
X139074365Y-130924211D02*
X139121984Y-130828973D01*
X139121984Y-130828973D02*
X139169603Y-130781354D01*
X139169603Y-130781354D02*
X139264841Y-130733735D01*
X139264841Y-130733735D02*
X139407698Y-130733735D01*
X139407698Y-130733735D02*
X139502936Y-130781354D01*
X139502936Y-130781354D02*
X139550555Y-130828973D01*
X139550555Y-130828973D02*
X139598174Y-130924211D01*
X139598174Y-130924211D02*
X139598174Y-131305163D01*
X139550555Y-129971830D02*
X139550555Y-130305163D01*
X140074365Y-130305163D02*
X139074365Y-130305163D01*
X139074365Y-130305163D02*
X139074365Y-129828973D01*
X140026746Y-129495639D02*
X140074365Y-129352782D01*
X140074365Y-129352782D02*
X140074365Y-129114687D01*
X140074365Y-129114687D02*
X140026746Y-129019449D01*
X140026746Y-129019449D02*
X139979126Y-128971830D01*
X139979126Y-128971830D02*
X139883888Y-128924211D01*
X139883888Y-128924211D02*
X139788650Y-128924211D01*
X139788650Y-128924211D02*
X139693412Y-128971830D01*
X139693412Y-128971830D02*
X139645793Y-129019449D01*
X139645793Y-129019449D02*
X139598174Y-129114687D01*
X139598174Y-129114687D02*
X139550555Y-129305163D01*
X139550555Y-129305163D02*
X139502936Y-129400401D01*
X139502936Y-129400401D02*
X139455317Y-129448020D01*
X139455317Y-129448020D02*
X139360079Y-129495639D01*
X139360079Y-129495639D02*
X139264841Y-129495639D01*
X139264841Y-129495639D02*
X139169603Y-129448020D01*
X139169603Y-129448020D02*
X139121984Y-129400401D01*
X139121984Y-129400401D02*
X139074365Y-129305163D01*
X139074365Y-129305163D02*
X139074365Y-129067068D01*
X139074365Y-129067068D02*
X139121984Y-128924211D01*
X140074365Y-128495639D02*
X139074365Y-128495639D01*
X139550555Y-128495639D02*
X139550555Y-127924211D01*
X140074365Y-127924211D02*
X139074365Y-127924211D01*
X138796746Y-131443259D02*
X138796746Y-127786116D01*
X101858633Y-131305163D02*
X100858633Y-131305163D01*
X100858633Y-131305163D02*
X100858633Y-131067068D01*
X100858633Y-131067068D02*
X100906252Y-130924211D01*
X100906252Y-130924211D02*
X101001490Y-130828973D01*
X101001490Y-130828973D02*
X101096728Y-130781354D01*
X101096728Y-130781354D02*
X101287204Y-130733735D01*
X101287204Y-130733735D02*
X101430061Y-130733735D01*
X101430061Y-130733735D02*
X101620537Y-130781354D01*
X101620537Y-130781354D02*
X101715775Y-130828973D01*
X101715775Y-130828973D02*
X101811014Y-130924211D01*
X101811014Y-130924211D02*
X101858633Y-131067068D01*
X101858633Y-131067068D02*
X101858633Y-131305163D01*
X100858633Y-129828973D02*
X100858633Y-130305163D01*
X100858633Y-130305163D02*
X101334823Y-130352782D01*
X101334823Y-130352782D02*
X101287204Y-130305163D01*
X101287204Y-130305163D02*
X101239585Y-130209925D01*
X101239585Y-130209925D02*
X101239585Y-129971830D01*
X101239585Y-129971830D02*
X101287204Y-129876592D01*
X101287204Y-129876592D02*
X101334823Y-129828973D01*
X101334823Y-129828973D02*
X101430061Y-129781354D01*
X101430061Y-129781354D02*
X101668156Y-129781354D01*
X101668156Y-129781354D02*
X101763394Y-129828973D01*
X101763394Y-129828973D02*
X101811014Y-129876592D01*
X101811014Y-129876592D02*
X101858633Y-129971830D01*
X101858633Y-129971830D02*
X101858633Y-130209925D01*
X101858633Y-130209925D02*
X101811014Y-130305163D01*
X101811014Y-130305163D02*
X101763394Y-130352782D01*
X104365423Y-131305163D02*
X103365423Y-131305163D01*
X103365423Y-131305163D02*
X103365423Y-131067068D01*
X103365423Y-131067068D02*
X103413042Y-130924211D01*
X103413042Y-130924211D02*
X103508280Y-130828973D01*
X103508280Y-130828973D02*
X103603518Y-130781354D01*
X103603518Y-130781354D02*
X103793994Y-130733735D01*
X103793994Y-130733735D02*
X103936851Y-130733735D01*
X103936851Y-130733735D02*
X104127327Y-130781354D01*
X104127327Y-130781354D02*
X104222565Y-130828973D01*
X104222565Y-130828973D02*
X104317804Y-130924211D01*
X104317804Y-130924211D02*
X104365423Y-131067068D01*
X104365423Y-131067068D02*
X104365423Y-131305163D01*
X103365423Y-130400401D02*
X103365423Y-129781354D01*
X103365423Y-129781354D02*
X103746375Y-130114687D01*
X103746375Y-130114687D02*
X103746375Y-129971830D01*
X103746375Y-129971830D02*
X103793994Y-129876592D01*
X103793994Y-129876592D02*
X103841613Y-129828973D01*
X103841613Y-129828973D02*
X103936851Y-129781354D01*
X103936851Y-129781354D02*
X104174946Y-129781354D01*
X104174946Y-129781354D02*
X104270184Y-129828973D01*
X104270184Y-129828973D02*
X104317804Y-129876592D01*
X104317804Y-129876592D02*
X104365423Y-129971830D01*
X104365423Y-129971830D02*
X104365423Y-130257544D01*
X104365423Y-130257544D02*
X104317804Y-130352782D01*
X104317804Y-130352782D02*
X104270184Y-130400401D01*
X123824365Y-131400401D02*
X124824365Y-131162306D01*
X124824365Y-131162306D02*
X124110079Y-130971830D01*
X124110079Y-130971830D02*
X124824365Y-130781354D01*
X124824365Y-130781354D02*
X123824365Y-130543259D01*
X124824365Y-129590878D02*
X124348174Y-129924211D01*
X124824365Y-130162306D02*
X123824365Y-130162306D01*
X123824365Y-130162306D02*
X123824365Y-129781354D01*
X123824365Y-129781354D02*
X123871984Y-129686116D01*
X123871984Y-129686116D02*
X123919603Y-129638497D01*
X123919603Y-129638497D02*
X124014841Y-129590878D01*
X124014841Y-129590878D02*
X124157698Y-129590878D01*
X124157698Y-129590878D02*
X124252936Y-129638497D01*
X124252936Y-129638497D02*
X124300555Y-129686116D01*
X124300555Y-129686116D02*
X124348174Y-129781354D01*
X124348174Y-129781354D02*
X124348174Y-130162306D01*
X123546746Y-131443259D02*
X123546746Y-129500402D01*
X114586091Y-131305163D02*
X113586091Y-131305163D01*
X114062281Y-131305163D02*
X114062281Y-130733735D01*
X114586091Y-130733735D02*
X113586091Y-130733735D01*
X114300376Y-130305163D02*
X114300376Y-129828973D01*
X114586091Y-130400401D02*
X113586091Y-130067068D01*
X113586091Y-130067068D02*
X114586091Y-129733735D01*
X114586091Y-128924211D02*
X114586091Y-129400401D01*
X114586091Y-129400401D02*
X113586091Y-129400401D01*
X113586091Y-128733734D02*
X113586091Y-128162306D01*
X114586091Y-128448020D02*
X113586091Y-128448020D01*
X113308472Y-131443259D02*
X113308472Y-128167068D01*
X131912281Y-130971830D02*
X131959900Y-130828973D01*
X131959900Y-130828973D02*
X132007519Y-130781354D01*
X132007519Y-130781354D02*
X132102757Y-130733735D01*
X132102757Y-130733735D02*
X132245614Y-130733735D01*
X132245614Y-130733735D02*
X132340852Y-130781354D01*
X132340852Y-130781354D02*
X132388472Y-130828973D01*
X132388472Y-130828973D02*
X132436091Y-130924211D01*
X132436091Y-130924211D02*
X132436091Y-131305163D01*
X132436091Y-131305163D02*
X131436091Y-131305163D01*
X131436091Y-131305163D02*
X131436091Y-130971830D01*
X131436091Y-130971830D02*
X131483710Y-130876592D01*
X131483710Y-130876592D02*
X131531329Y-130828973D01*
X131531329Y-130828973D02*
X131626567Y-130781354D01*
X131626567Y-130781354D02*
X131721805Y-130781354D01*
X131721805Y-130781354D02*
X131817043Y-130828973D01*
X131817043Y-130828973D02*
X131864662Y-130876592D01*
X131864662Y-130876592D02*
X131912281Y-130971830D01*
X131912281Y-130971830D02*
X131912281Y-131305163D01*
X131436091Y-130305163D02*
X132245614Y-130305163D01*
X132245614Y-130305163D02*
X132340852Y-130257544D01*
X132340852Y-130257544D02*
X132388472Y-130209925D01*
X132388472Y-130209925D02*
X132436091Y-130114687D01*
X132436091Y-130114687D02*
X132436091Y-129924211D01*
X132436091Y-129924211D02*
X132388472Y-129828973D01*
X132388472Y-129828973D02*
X132340852Y-129781354D01*
X132340852Y-129781354D02*
X132245614Y-129733735D01*
X132245614Y-129733735D02*
X131436091Y-129733735D01*
X132388472Y-129305163D02*
X132436091Y-129162306D01*
X132436091Y-129162306D02*
X132436091Y-128924211D01*
X132436091Y-128924211D02*
X132388472Y-128828973D01*
X132388472Y-128828973D02*
X132340852Y-128781354D01*
X132340852Y-128781354D02*
X132245614Y-128733735D01*
X132245614Y-128733735D02*
X132150376Y-128733735D01*
X132150376Y-128733735D02*
X132055138Y-128781354D01*
X132055138Y-128781354D02*
X132007519Y-128828973D01*
X132007519Y-128828973D02*
X131959900Y-128924211D01*
X131959900Y-128924211D02*
X131912281Y-129114687D01*
X131912281Y-129114687D02*
X131864662Y-129209925D01*
X131864662Y-129209925D02*
X131817043Y-129257544D01*
X131817043Y-129257544D02*
X131721805Y-129305163D01*
X131721805Y-129305163D02*
X131626567Y-129305163D01*
X131626567Y-129305163D02*
X131531329Y-129257544D01*
X131531329Y-129257544D02*
X131483710Y-129209925D01*
X131483710Y-129209925D02*
X131436091Y-129114687D01*
X131436091Y-129114687D02*
X131436091Y-128876592D01*
X131436091Y-128876592D02*
X131483710Y-128733735D01*
X132436091Y-127733735D02*
X131959900Y-128067068D01*
X132436091Y-128305163D02*
X131436091Y-128305163D01*
X131436091Y-128305163D02*
X131436091Y-127924211D01*
X131436091Y-127924211D02*
X131483710Y-127828973D01*
X131483710Y-127828973D02*
X131531329Y-127781354D01*
X131531329Y-127781354D02*
X131626567Y-127733735D01*
X131626567Y-127733735D02*
X131769424Y-127733735D01*
X131769424Y-127733735D02*
X131864662Y-127781354D01*
X131864662Y-127781354D02*
X131912281Y-127828973D01*
X131912281Y-127828973D02*
X131959900Y-127924211D01*
X131959900Y-127924211D02*
X131959900Y-128305163D01*
X132531329Y-126638497D02*
X132483710Y-126733735D01*
X132483710Y-126733735D02*
X132388472Y-126828973D01*
X132388472Y-126828973D02*
X132245614Y-126971830D01*
X132245614Y-126971830D02*
X132197995Y-127067068D01*
X132197995Y-127067068D02*
X132197995Y-127162306D01*
X132436091Y-127114687D02*
X132388472Y-127209925D01*
X132388472Y-127209925D02*
X132293233Y-127305163D01*
X132293233Y-127305163D02*
X132102757Y-127352782D01*
X132102757Y-127352782D02*
X131769424Y-127352782D01*
X131769424Y-127352782D02*
X131578948Y-127305163D01*
X131578948Y-127305163D02*
X131483710Y-127209925D01*
X131483710Y-127209925D02*
X131436091Y-127114687D01*
X131436091Y-127114687D02*
X131436091Y-126924211D01*
X131436091Y-126924211D02*
X131483710Y-126828973D01*
X131483710Y-126828973D02*
X131578948Y-126733735D01*
X131578948Y-126733735D02*
X131769424Y-126686116D01*
X131769424Y-126686116D02*
X132102757Y-126686116D01*
X132102757Y-126686116D02*
X132293233Y-126733735D01*
X132293233Y-126733735D02*
X132388472Y-126828973D01*
X132388472Y-126828973D02*
X132436091Y-126924211D01*
X132436091Y-126924211D02*
X132436091Y-127114687D01*
X131158472Y-131443259D02*
X131158472Y-126595640D01*
X91731473Y-131305163D02*
X90731473Y-131305163D01*
X90731473Y-131305163D02*
X90731473Y-131067068D01*
X90731473Y-131067068D02*
X90779092Y-130924211D01*
X90779092Y-130924211D02*
X90874330Y-130828973D01*
X90874330Y-130828973D02*
X90969568Y-130781354D01*
X90969568Y-130781354D02*
X91160044Y-130733735D01*
X91160044Y-130733735D02*
X91302901Y-130733735D01*
X91302901Y-130733735D02*
X91493377Y-130781354D01*
X91493377Y-130781354D02*
X91588615Y-130828973D01*
X91588615Y-130828973D02*
X91683854Y-130924211D01*
X91683854Y-130924211D02*
X91731473Y-131067068D01*
X91731473Y-131067068D02*
X91731473Y-131305163D01*
X90731473Y-130114687D02*
X90731473Y-130019449D01*
X90731473Y-130019449D02*
X90779092Y-129924211D01*
X90779092Y-129924211D02*
X90826711Y-129876592D01*
X90826711Y-129876592D02*
X90921949Y-129828973D01*
X90921949Y-129828973D02*
X91112425Y-129781354D01*
X91112425Y-129781354D02*
X91350520Y-129781354D01*
X91350520Y-129781354D02*
X91540996Y-129828973D01*
X91540996Y-129828973D02*
X91636234Y-129876592D01*
X91636234Y-129876592D02*
X91683854Y-129924211D01*
X91683854Y-129924211D02*
X91731473Y-130019449D01*
X91731473Y-130019449D02*
X91731473Y-130114687D01*
X91731473Y-130114687D02*
X91683854Y-130209925D01*
X91683854Y-130209925D02*
X91636234Y-130257544D01*
X91636234Y-130257544D02*
X91540996Y-130305163D01*
X91540996Y-130305163D02*
X91350520Y-130352782D01*
X91350520Y-130352782D02*
X91112425Y-130352782D01*
X91112425Y-130352782D02*
X90921949Y-130305163D01*
X90921949Y-130305163D02*
X90826711Y-130257544D01*
X90826711Y-130257544D02*
X90779092Y-130209925D01*
X90779092Y-130209925D02*
X90731473Y-130114687D01*
X86786091Y-130733735D02*
X86309900Y-131067068D01*
X86786091Y-131305163D02*
X85786091Y-131305163D01*
X85786091Y-131305163D02*
X85786091Y-130924211D01*
X85786091Y-130924211D02*
X85833710Y-130828973D01*
X85833710Y-130828973D02*
X85881329Y-130781354D01*
X85881329Y-130781354D02*
X85976567Y-130733735D01*
X85976567Y-130733735D02*
X86119424Y-130733735D01*
X86119424Y-130733735D02*
X86214662Y-130781354D01*
X86214662Y-130781354D02*
X86262281Y-130828973D01*
X86262281Y-130828973D02*
X86309900Y-130924211D01*
X86309900Y-130924211D02*
X86309900Y-131305163D01*
X86500376Y-130352782D02*
X86500376Y-129876592D01*
X86786091Y-130448020D02*
X85786091Y-130114687D01*
X85786091Y-130114687D02*
X86786091Y-129781354D01*
X86786091Y-129448020D02*
X85786091Y-129448020D01*
X85786091Y-129448020D02*
X86500376Y-129114687D01*
X86500376Y-129114687D02*
X85786091Y-128781354D01*
X85786091Y-128781354D02*
X86786091Y-128781354D01*
X86690852Y-127733735D02*
X86738472Y-127781354D01*
X86738472Y-127781354D02*
X86786091Y-127924211D01*
X86786091Y-127924211D02*
X86786091Y-128019449D01*
X86786091Y-128019449D02*
X86738472Y-128162306D01*
X86738472Y-128162306D02*
X86643233Y-128257544D01*
X86643233Y-128257544D02*
X86547995Y-128305163D01*
X86547995Y-128305163D02*
X86357519Y-128352782D01*
X86357519Y-128352782D02*
X86214662Y-128352782D01*
X86214662Y-128352782D02*
X86024186Y-128305163D01*
X86024186Y-128305163D02*
X85928948Y-128257544D01*
X85928948Y-128257544D02*
X85833710Y-128162306D01*
X85833710Y-128162306D02*
X85786091Y-128019449D01*
X85786091Y-128019449D02*
X85786091Y-127924211D01*
X85786091Y-127924211D02*
X85833710Y-127781354D01*
X85833710Y-127781354D02*
X85881329Y-127733735D01*
X86738472Y-127352782D02*
X86786091Y-127209925D01*
X86786091Y-127209925D02*
X86786091Y-126971830D01*
X86786091Y-126971830D02*
X86738472Y-126876592D01*
X86738472Y-126876592D02*
X86690852Y-126828973D01*
X86690852Y-126828973D02*
X86595614Y-126781354D01*
X86595614Y-126781354D02*
X86500376Y-126781354D01*
X86500376Y-126781354D02*
X86405138Y-126828973D01*
X86405138Y-126828973D02*
X86357519Y-126876592D01*
X86357519Y-126876592D02*
X86309900Y-126971830D01*
X86309900Y-126971830D02*
X86262281Y-127162306D01*
X86262281Y-127162306D02*
X86214662Y-127257544D01*
X86214662Y-127257544D02*
X86167043Y-127305163D01*
X86167043Y-127305163D02*
X86071805Y-127352782D01*
X86071805Y-127352782D02*
X85976567Y-127352782D01*
X85976567Y-127352782D02*
X85881329Y-127305163D01*
X85881329Y-127305163D02*
X85833710Y-127257544D01*
X85833710Y-127257544D02*
X85786091Y-127162306D01*
X85786091Y-127162306D02*
X85786091Y-126924211D01*
X85786091Y-126924211D02*
X85833710Y-126781354D01*
X85508472Y-131443259D02*
X85508472Y-126690878D01*
X84131473Y-131305163D02*
X83131473Y-131305163D01*
X83131473Y-131305163D02*
X83131473Y-131067068D01*
X83131473Y-131067068D02*
X83179092Y-130924211D01*
X83179092Y-130924211D02*
X83274330Y-130828973D01*
X83274330Y-130828973D02*
X83369568Y-130781354D01*
X83369568Y-130781354D02*
X83560044Y-130733735D01*
X83560044Y-130733735D02*
X83702901Y-130733735D01*
X83702901Y-130733735D02*
X83893377Y-130781354D01*
X83893377Y-130781354D02*
X83988615Y-130828973D01*
X83988615Y-130828973D02*
X84083854Y-130924211D01*
X84083854Y-130924211D02*
X84131473Y-131067068D01*
X84131473Y-131067068D02*
X84131473Y-131305163D01*
X83131473Y-130400401D02*
X83131473Y-129733735D01*
X83131473Y-129733735D02*
X84131473Y-130162306D01*
X94281473Y-131305163D02*
X93281473Y-131305163D01*
X93281473Y-131305163D02*
X93281473Y-131067068D01*
X93281473Y-131067068D02*
X93329092Y-130924211D01*
X93329092Y-130924211D02*
X93424330Y-130828973D01*
X93424330Y-130828973D02*
X93519568Y-130781354D01*
X93519568Y-130781354D02*
X93710044Y-130733735D01*
X93710044Y-130733735D02*
X93852901Y-130733735D01*
X93852901Y-130733735D02*
X94043377Y-130781354D01*
X94043377Y-130781354D02*
X94138615Y-130828973D01*
X94138615Y-130828973D02*
X94233854Y-130924211D01*
X94233854Y-130924211D02*
X94281473Y-131067068D01*
X94281473Y-131067068D02*
X94281473Y-131305163D01*
X94281473Y-129781354D02*
X94281473Y-130352782D01*
X94281473Y-130067068D02*
X93281473Y-130067068D01*
X93281473Y-130067068D02*
X93424330Y-130162306D01*
X93424330Y-130162306D02*
X93519568Y-130257544D01*
X93519568Y-130257544D02*
X93567187Y-130352782D01*
X137524365Y-131305163D02*
X136524365Y-131305163D01*
X136524365Y-131305163D02*
X137238650Y-130971830D01*
X137238650Y-130971830D02*
X136524365Y-130638497D01*
X136524365Y-130638497D02*
X137524365Y-130638497D01*
X137524365Y-129638497D02*
X137524365Y-130209925D01*
X137524365Y-129924211D02*
X136524365Y-129924211D01*
X136524365Y-129924211D02*
X136667222Y-130019449D01*
X136667222Y-130019449D02*
X136762460Y-130114687D01*
X136762460Y-130114687D02*
X136810079Y-130209925D01*
X136246746Y-131443259D02*
X136246746Y-129548021D01*
X99301843Y-131305163D02*
X98301843Y-131305163D01*
X98301843Y-131305163D02*
X98301843Y-131067068D01*
X98301843Y-131067068D02*
X98349462Y-130924211D01*
X98349462Y-130924211D02*
X98444700Y-130828973D01*
X98444700Y-130828973D02*
X98539938Y-130781354D01*
X98539938Y-130781354D02*
X98730414Y-130733735D01*
X98730414Y-130733735D02*
X98873271Y-130733735D01*
X98873271Y-130733735D02*
X99063747Y-130781354D01*
X99063747Y-130781354D02*
X99158985Y-130828973D01*
X99158985Y-130828973D02*
X99254224Y-130924211D01*
X99254224Y-130924211D02*
X99301843Y-131067068D01*
X99301843Y-131067068D02*
X99301843Y-131305163D01*
X98301843Y-129876592D02*
X98301843Y-130067068D01*
X98301843Y-130067068D02*
X98349462Y-130162306D01*
X98349462Y-130162306D02*
X98397081Y-130209925D01*
X98397081Y-130209925D02*
X98539938Y-130305163D01*
X98539938Y-130305163D02*
X98730414Y-130352782D01*
X98730414Y-130352782D02*
X99111366Y-130352782D01*
X99111366Y-130352782D02*
X99206604Y-130305163D01*
X99206604Y-130305163D02*
X99254224Y-130257544D01*
X99254224Y-130257544D02*
X99301843Y-130162306D01*
X99301843Y-130162306D02*
X99301843Y-129971830D01*
X99301843Y-129971830D02*
X99254224Y-129876592D01*
X99254224Y-129876592D02*
X99206604Y-129828973D01*
X99206604Y-129828973D02*
X99111366Y-129781354D01*
X99111366Y-129781354D02*
X98873271Y-129781354D01*
X98873271Y-129781354D02*
X98778033Y-129828973D01*
X98778033Y-129828973D02*
X98730414Y-129876592D01*
X98730414Y-129876592D02*
X98682795Y-129971830D01*
X98682795Y-129971830D02*
X98682795Y-130162306D01*
X98682795Y-130162306D02*
X98730414Y-130257544D01*
X98730414Y-130257544D02*
X98778033Y-130305163D01*
X98778033Y-130305163D02*
X98873271Y-130352782D01*
X96781473Y-131305163D02*
X95781473Y-131305163D01*
X95781473Y-131305163D02*
X95781473Y-131067068D01*
X95781473Y-131067068D02*
X95829092Y-130924211D01*
X95829092Y-130924211D02*
X95924330Y-130828973D01*
X95924330Y-130828973D02*
X96019568Y-130781354D01*
X96019568Y-130781354D02*
X96210044Y-130733735D01*
X96210044Y-130733735D02*
X96352901Y-130733735D01*
X96352901Y-130733735D02*
X96543377Y-130781354D01*
X96543377Y-130781354D02*
X96638615Y-130828973D01*
X96638615Y-130828973D02*
X96733854Y-130924211D01*
X96733854Y-130924211D02*
X96781473Y-131067068D01*
X96781473Y-131067068D02*
X96781473Y-131305163D01*
X95876711Y-130352782D02*
X95829092Y-130305163D01*
X95829092Y-130305163D02*
X95781473Y-130209925D01*
X95781473Y-130209925D02*
X95781473Y-129971830D01*
X95781473Y-129971830D02*
X95829092Y-129876592D01*
X95829092Y-129876592D02*
X95876711Y-129828973D01*
X95876711Y-129828973D02*
X95971949Y-129781354D01*
X95971949Y-129781354D02*
X96067187Y-129781354D01*
X96067187Y-129781354D02*
X96210044Y-129828973D01*
X96210044Y-129828973D02*
X96781473Y-130400401D01*
X96781473Y-130400401D02*
X96781473Y-129781354D01*
X106781473Y-131305163D02*
X105781473Y-131305163D01*
X105781473Y-131305163D02*
X105781473Y-131067068D01*
X105781473Y-131067068D02*
X105829092Y-130924211D01*
X105829092Y-130924211D02*
X105924330Y-130828973D01*
X105924330Y-130828973D02*
X106019568Y-130781354D01*
X106019568Y-130781354D02*
X106210044Y-130733735D01*
X106210044Y-130733735D02*
X106352901Y-130733735D01*
X106352901Y-130733735D02*
X106543377Y-130781354D01*
X106543377Y-130781354D02*
X106638615Y-130828973D01*
X106638615Y-130828973D02*
X106733854Y-130924211D01*
X106733854Y-130924211D02*
X106781473Y-131067068D01*
X106781473Y-131067068D02*
X106781473Y-131305163D01*
X106114806Y-129876592D02*
X106781473Y-129876592D01*
X105733854Y-130114687D02*
X106448139Y-130352782D01*
X106448139Y-130352782D02*
X106448139Y-129733735D01*
X109686091Y-131305163D02*
X108686091Y-131305163D01*
X109686091Y-130828973D02*
X108686091Y-130828973D01*
X108686091Y-130828973D02*
X109686091Y-130257545D01*
X109686091Y-130257545D02*
X108686091Y-130257545D01*
X108686091Y-129924211D02*
X108686091Y-129352783D01*
X109686091Y-129638497D02*
X108686091Y-129638497D01*
X108408472Y-131443259D02*
X108408472Y-129357545D01*
X135024365Y-130733735D02*
X134548174Y-131067068D01*
X135024365Y-131305163D02*
X134024365Y-131305163D01*
X134024365Y-131305163D02*
X134024365Y-130924211D01*
X134024365Y-130924211D02*
X134071984Y-130828973D01*
X134071984Y-130828973D02*
X134119603Y-130781354D01*
X134119603Y-130781354D02*
X134214841Y-130733735D01*
X134214841Y-130733735D02*
X134357698Y-130733735D01*
X134357698Y-130733735D02*
X134452936Y-130781354D01*
X134452936Y-130781354D02*
X134500555Y-130828973D01*
X134500555Y-130828973D02*
X134548174Y-130924211D01*
X134548174Y-130924211D02*
X134548174Y-131305163D01*
X134500555Y-130305163D02*
X134500555Y-129971830D01*
X135024365Y-129828973D02*
X135024365Y-130305163D01*
X135024365Y-130305163D02*
X134024365Y-130305163D01*
X134024365Y-130305163D02*
X134024365Y-129828973D01*
X134976746Y-129448020D02*
X135024365Y-129305163D01*
X135024365Y-129305163D02*
X135024365Y-129067068D01*
X135024365Y-129067068D02*
X134976746Y-128971830D01*
X134976746Y-128971830D02*
X134929126Y-128924211D01*
X134929126Y-128924211D02*
X134833888Y-128876592D01*
X134833888Y-128876592D02*
X134738650Y-128876592D01*
X134738650Y-128876592D02*
X134643412Y-128924211D01*
X134643412Y-128924211D02*
X134595793Y-128971830D01*
X134595793Y-128971830D02*
X134548174Y-129067068D01*
X134548174Y-129067068D02*
X134500555Y-129257544D01*
X134500555Y-129257544D02*
X134452936Y-129352782D01*
X134452936Y-129352782D02*
X134405317Y-129400401D01*
X134405317Y-129400401D02*
X134310079Y-129448020D01*
X134310079Y-129448020D02*
X134214841Y-129448020D01*
X134214841Y-129448020D02*
X134119603Y-129400401D01*
X134119603Y-129400401D02*
X134071984Y-129352782D01*
X134071984Y-129352782D02*
X134024365Y-129257544D01*
X134024365Y-129257544D02*
X134024365Y-129019449D01*
X134024365Y-129019449D02*
X134071984Y-128876592D01*
X134500555Y-128448020D02*
X134500555Y-128114687D01*
X135024365Y-127971830D02*
X135024365Y-128448020D01*
X135024365Y-128448020D02*
X134024365Y-128448020D01*
X134024365Y-128448020D02*
X134024365Y-127971830D01*
X134024365Y-127686115D02*
X134024365Y-127114687D01*
X135024365Y-127400401D02*
X134024365Y-127400401D01*
X133746746Y-131443259D02*
X133746746Y-127119449D01*
X129186091Y-131400401D02*
X130186091Y-131162306D01*
X130186091Y-131162306D02*
X129471805Y-130971830D01*
X129471805Y-130971830D02*
X130186091Y-130781354D01*
X130186091Y-130781354D02*
X129186091Y-130543259D01*
X129900376Y-130209925D02*
X129900376Y-129733735D01*
X130186091Y-130305163D02*
X129186091Y-129971830D01*
X129186091Y-129971830D02*
X130186091Y-129638497D01*
X130186091Y-129305163D02*
X129186091Y-129305163D01*
X129186091Y-128971830D02*
X129186091Y-128400402D01*
X130186091Y-128686116D02*
X129186091Y-128686116D01*
X128908472Y-131443259D02*
X128908472Y-128405164D01*
X122274365Y-130733735D02*
X121798174Y-131067068D01*
X122274365Y-131305163D02*
X121274365Y-131305163D01*
X121274365Y-131305163D02*
X121274365Y-130924211D01*
X121274365Y-130924211D02*
X121321984Y-130828973D01*
X121321984Y-130828973D02*
X121369603Y-130781354D01*
X121369603Y-130781354D02*
X121464841Y-130733735D01*
X121464841Y-130733735D02*
X121607698Y-130733735D01*
X121607698Y-130733735D02*
X121702936Y-130781354D01*
X121702936Y-130781354D02*
X121750555Y-130828973D01*
X121750555Y-130828973D02*
X121798174Y-130924211D01*
X121798174Y-130924211D02*
X121798174Y-131305163D01*
X122274365Y-130305163D02*
X121274365Y-130305163D01*
X121274365Y-130305163D02*
X121274365Y-130067068D01*
X121274365Y-130067068D02*
X121321984Y-129924211D01*
X121321984Y-129924211D02*
X121417222Y-129828973D01*
X121417222Y-129828973D02*
X121512460Y-129781354D01*
X121512460Y-129781354D02*
X121702936Y-129733735D01*
X121702936Y-129733735D02*
X121845793Y-129733735D01*
X121845793Y-129733735D02*
X122036269Y-129781354D01*
X122036269Y-129781354D02*
X122131507Y-129828973D01*
X122131507Y-129828973D02*
X122226746Y-129924211D01*
X122226746Y-129924211D02*
X122274365Y-130067068D01*
X122274365Y-130067068D02*
X122274365Y-130305163D01*
X120996746Y-131443259D02*
X120996746Y-129643259D01*
X119774365Y-131305163D02*
X118774365Y-131305163D01*
X118774365Y-130638497D02*
X118774365Y-130448021D01*
X118774365Y-130448021D02*
X118821984Y-130352783D01*
X118821984Y-130352783D02*
X118917222Y-130257545D01*
X118917222Y-130257545D02*
X119107698Y-130209926D01*
X119107698Y-130209926D02*
X119441031Y-130209926D01*
X119441031Y-130209926D02*
X119631507Y-130257545D01*
X119631507Y-130257545D02*
X119726746Y-130352783D01*
X119726746Y-130352783D02*
X119774365Y-130448021D01*
X119774365Y-130448021D02*
X119774365Y-130638497D01*
X119774365Y-130638497D02*
X119726746Y-130733735D01*
X119726746Y-130733735D02*
X119631507Y-130828973D01*
X119631507Y-130828973D02*
X119441031Y-130876592D01*
X119441031Y-130876592D02*
X119107698Y-130876592D01*
X119107698Y-130876592D02*
X118917222Y-130828973D01*
X118917222Y-130828973D02*
X118821984Y-130733735D01*
X118821984Y-130733735D02*
X118774365Y-130638497D01*
X119774365Y-129209926D02*
X119298174Y-129543259D01*
X119774365Y-129781354D02*
X118774365Y-129781354D01*
X118774365Y-129781354D02*
X118774365Y-129400402D01*
X118774365Y-129400402D02*
X118821984Y-129305164D01*
X118821984Y-129305164D02*
X118869603Y-129257545D01*
X118869603Y-129257545D02*
X118964841Y-129209926D01*
X118964841Y-129209926D02*
X119107698Y-129209926D01*
X119107698Y-129209926D02*
X119202936Y-129257545D01*
X119202936Y-129257545D02*
X119250555Y-129305164D01*
X119250555Y-129305164D02*
X119298174Y-129400402D01*
X119298174Y-129400402D02*
X119298174Y-129781354D01*
X119869603Y-128114688D02*
X119821984Y-128209926D01*
X119821984Y-128209926D02*
X119726746Y-128305164D01*
X119726746Y-128305164D02*
X119583888Y-128448021D01*
X119583888Y-128448021D02*
X119536269Y-128543259D01*
X119536269Y-128543259D02*
X119536269Y-128638497D01*
X119774365Y-128590878D02*
X119726746Y-128686116D01*
X119726746Y-128686116D02*
X119631507Y-128781354D01*
X119631507Y-128781354D02*
X119441031Y-128828973D01*
X119441031Y-128828973D02*
X119107698Y-128828973D01*
X119107698Y-128828973D02*
X118917222Y-128781354D01*
X118917222Y-128781354D02*
X118821984Y-128686116D01*
X118821984Y-128686116D02*
X118774365Y-128590878D01*
X118774365Y-128590878D02*
X118774365Y-128400402D01*
X118774365Y-128400402D02*
X118821984Y-128305164D01*
X118821984Y-128305164D02*
X118917222Y-128209926D01*
X118917222Y-128209926D02*
X119107698Y-128162307D01*
X119107698Y-128162307D02*
X119441031Y-128162307D01*
X119441031Y-128162307D02*
X119631507Y-128209926D01*
X119631507Y-128209926D02*
X119726746Y-128305164D01*
X119726746Y-128305164D02*
X119774365Y-128400402D01*
X119774365Y-128400402D02*
X119774365Y-128590878D01*
X118496746Y-131443259D02*
X118496746Y-128071831D01*
X126850555Y-130971830D02*
X126898174Y-130828973D01*
X126898174Y-130828973D02*
X126945793Y-130781354D01*
X126945793Y-130781354D02*
X127041031Y-130733735D01*
X127041031Y-130733735D02*
X127183888Y-130733735D01*
X127183888Y-130733735D02*
X127279126Y-130781354D01*
X127279126Y-130781354D02*
X127326746Y-130828973D01*
X127326746Y-130828973D02*
X127374365Y-130924211D01*
X127374365Y-130924211D02*
X127374365Y-131305163D01*
X127374365Y-131305163D02*
X126374365Y-131305163D01*
X126374365Y-131305163D02*
X126374365Y-130971830D01*
X126374365Y-130971830D02*
X126421984Y-130876592D01*
X126421984Y-130876592D02*
X126469603Y-130828973D01*
X126469603Y-130828973D02*
X126564841Y-130781354D01*
X126564841Y-130781354D02*
X126660079Y-130781354D01*
X126660079Y-130781354D02*
X126755317Y-130828973D01*
X126755317Y-130828973D02*
X126802936Y-130876592D01*
X126802936Y-130876592D02*
X126850555Y-130971830D01*
X126850555Y-130971830D02*
X126850555Y-131305163D01*
X126374365Y-130305163D02*
X127183888Y-130305163D01*
X127183888Y-130305163D02*
X127279126Y-130257544D01*
X127279126Y-130257544D02*
X127326746Y-130209925D01*
X127326746Y-130209925D02*
X127374365Y-130114687D01*
X127374365Y-130114687D02*
X127374365Y-129924211D01*
X127374365Y-129924211D02*
X127326746Y-129828973D01*
X127326746Y-129828973D02*
X127279126Y-129781354D01*
X127279126Y-129781354D02*
X127183888Y-129733735D01*
X127183888Y-129733735D02*
X126374365Y-129733735D01*
X127326746Y-129305163D02*
X127374365Y-129162306D01*
X127374365Y-129162306D02*
X127374365Y-128924211D01*
X127374365Y-128924211D02*
X127326746Y-128828973D01*
X127326746Y-128828973D02*
X127279126Y-128781354D01*
X127279126Y-128781354D02*
X127183888Y-128733735D01*
X127183888Y-128733735D02*
X127088650Y-128733735D01*
X127088650Y-128733735D02*
X126993412Y-128781354D01*
X126993412Y-128781354D02*
X126945793Y-128828973D01*
X126945793Y-128828973D02*
X126898174Y-128924211D01*
X126898174Y-128924211D02*
X126850555Y-129114687D01*
X126850555Y-129114687D02*
X126802936Y-129209925D01*
X126802936Y-129209925D02*
X126755317Y-129257544D01*
X126755317Y-129257544D02*
X126660079Y-129305163D01*
X126660079Y-129305163D02*
X126564841Y-129305163D01*
X126564841Y-129305163D02*
X126469603Y-129257544D01*
X126469603Y-129257544D02*
X126421984Y-129209925D01*
X126421984Y-129209925D02*
X126374365Y-129114687D01*
X126374365Y-129114687D02*
X126374365Y-128876592D01*
X126374365Y-128876592D02*
X126421984Y-128733735D01*
X127088650Y-128352782D02*
X127088650Y-127876592D01*
X127374365Y-128448020D02*
X126374365Y-128114687D01*
X126374365Y-128114687D02*
X127374365Y-127781354D01*
X127279126Y-126876592D02*
X127326746Y-126924211D01*
X127326746Y-126924211D02*
X127374365Y-127067068D01*
X127374365Y-127067068D02*
X127374365Y-127162306D01*
X127374365Y-127162306D02*
X127326746Y-127305163D01*
X127326746Y-127305163D02*
X127231507Y-127400401D01*
X127231507Y-127400401D02*
X127136269Y-127448020D01*
X127136269Y-127448020D02*
X126945793Y-127495639D01*
X126945793Y-127495639D02*
X126802936Y-127495639D01*
X126802936Y-127495639D02*
X126612460Y-127448020D01*
X126612460Y-127448020D02*
X126517222Y-127400401D01*
X126517222Y-127400401D02*
X126421984Y-127305163D01*
X126421984Y-127305163D02*
X126374365Y-127162306D01*
X126374365Y-127162306D02*
X126374365Y-127067068D01*
X126374365Y-127067068D02*
X126421984Y-126924211D01*
X126421984Y-126924211D02*
X126469603Y-126876592D01*
X126096746Y-131443259D02*
X126096746Y-126786116D01*
X117274365Y-131305163D02*
X116274365Y-131305163D01*
X116274365Y-131305163D02*
X116988650Y-130971830D01*
X116988650Y-130971830D02*
X116274365Y-130638497D01*
X116274365Y-130638497D02*
X117274365Y-130638497D01*
X117274365Y-129590878D02*
X116798174Y-129924211D01*
X117274365Y-130162306D02*
X116274365Y-130162306D01*
X116274365Y-130162306D02*
X116274365Y-129781354D01*
X116274365Y-129781354D02*
X116321984Y-129686116D01*
X116321984Y-129686116D02*
X116369603Y-129638497D01*
X116369603Y-129638497D02*
X116464841Y-129590878D01*
X116464841Y-129590878D02*
X116607698Y-129590878D01*
X116607698Y-129590878D02*
X116702936Y-129638497D01*
X116702936Y-129638497D02*
X116750555Y-129686116D01*
X116750555Y-129686116D02*
X116798174Y-129781354D01*
X116798174Y-129781354D02*
X116798174Y-130162306D01*
X116750555Y-129162306D02*
X116750555Y-128828973D01*
X117274365Y-128686116D02*
X117274365Y-129162306D01*
X117274365Y-129162306D02*
X116274365Y-129162306D01*
X116274365Y-129162306D02*
X116274365Y-128686116D01*
X117369603Y-127590878D02*
X117321984Y-127686116D01*
X117321984Y-127686116D02*
X117226746Y-127781354D01*
X117226746Y-127781354D02*
X117083888Y-127924211D01*
X117083888Y-127924211D02*
X117036269Y-128019449D01*
X117036269Y-128019449D02*
X117036269Y-128114687D01*
X117274365Y-128067068D02*
X117226746Y-128162306D01*
X117226746Y-128162306D02*
X117131507Y-128257544D01*
X117131507Y-128257544D02*
X116941031Y-128305163D01*
X116941031Y-128305163D02*
X116607698Y-128305163D01*
X116607698Y-128305163D02*
X116417222Y-128257544D01*
X116417222Y-128257544D02*
X116321984Y-128162306D01*
X116321984Y-128162306D02*
X116274365Y-128067068D01*
X116274365Y-128067068D02*
X116274365Y-127876592D01*
X116274365Y-127876592D02*
X116321984Y-127781354D01*
X116321984Y-127781354D02*
X116417222Y-127686116D01*
X116417222Y-127686116D02*
X116607698Y-127638497D01*
X116607698Y-127638497D02*
X116941031Y-127638497D01*
X116941031Y-127638497D02*
X117131507Y-127686116D01*
X117131507Y-127686116D02*
X117226746Y-127781354D01*
X117226746Y-127781354D02*
X117274365Y-127876592D01*
X117274365Y-127876592D02*
X117274365Y-128067068D01*
X115996746Y-131443259D02*
X115996746Y-127548021D01*
X112336091Y-131305163D02*
X111336091Y-131305163D01*
X111336091Y-131305163D02*
X112336091Y-130733735D01*
X112336091Y-130733735D02*
X111336091Y-130733735D01*
X112336091Y-130257544D02*
X111336091Y-130257544D01*
X111336091Y-130257544D02*
X112050376Y-129924211D01*
X112050376Y-129924211D02*
X111336091Y-129590878D01*
X111336091Y-129590878D02*
X112336091Y-129590878D01*
X112336091Y-129114687D02*
X111336091Y-129114687D01*
X111058472Y-131443259D02*
X111058472Y-128976593D01*
D12*
%TO.C,C1*%
X87970000Y-122448748D02*
X87970000Y-123871252D01*
X89790000Y-122448748D02*
X89790000Y-123871252D01*
%TO.C,R1*%
X132347064Y-122100000D02*
X130892936Y-122100000D01*
X132347064Y-123920000D02*
X130892936Y-123920000D01*
%TO.C,D1*%
X136335000Y-120612500D02*
X136335000Y-124672500D01*
X138605000Y-120612500D02*
X136335000Y-120612500D01*
X138605000Y-124672500D02*
X138605000Y-120612500D01*
%TD*%
M02*
